%TF.GenerationSoftware,KiCad,Pcbnew,9.0.7-9.0.7~ubuntu24.04.1*%
%TF.CreationDate,2026-03-17T21:49:25-04:00*%
%TF.ProjectId,VECTAR-PSU-Rev1a,56454354-4152-42d5-9053-552d52657631,rev?*%
%TF.SameCoordinates,Original*%
%TF.FileFunction,Copper,L2,Bot*%
%TF.FilePolarity,Positive*%
%FSLAX46Y46*%
G04 Gerber Fmt 4.6, Leading zero omitted, Abs format (unit mm)*
G04 Created by KiCad (PCBNEW 9.0.7-9.0.7~ubuntu24.04.1) date 2026-03-17 21:49:25*
%MOMM*%
%LPD*%
G01*
G04 APERTURE LIST*
G04 Aperture macros list*
%AMRoundRect*
0 Rectangle with rounded corners*
0 $1 Rounding radius*
0 $2 $3 $4 $5 $6 $7 $8 $9 X,Y pos of 4 corners*
0 Add a 4 corners polygon primitive as box body*
4,1,4,$2,$3,$4,$5,$6,$7,$8,$9,$2,$3,0*
0 Add four circle primitives for the rounded corners*
1,1,$1+$1,$2,$3*
1,1,$1+$1,$4,$5*
1,1,$1+$1,$6,$7*
1,1,$1+$1,$8,$9*
0 Add four rect primitives between the rounded corners*
20,1,$1+$1,$2,$3,$4,$5,0*
20,1,$1+$1,$4,$5,$6,$7,0*
20,1,$1+$1,$6,$7,$8,$9,0*
20,1,$1+$1,$8,$9,$2,$3,0*%
G04 Aperture macros list end*
%TA.AperFunction,ComponentPad*%
%ADD10C,1.500000*%
%TD*%
%TA.AperFunction,ComponentPad*%
%ADD11C,1.530000*%
%TD*%
%TA.AperFunction,ComponentPad*%
%ADD12R,3.716000X3.716000*%
%TD*%
%TA.AperFunction,ComponentPad*%
%ADD13C,3.716000*%
%TD*%
%TA.AperFunction,ComponentPad*%
%ADD14O,2.400000X1.200000*%
%TD*%
%TA.AperFunction,ComponentPad*%
%ADD15R,1.750000X1.750000*%
%TD*%
%TA.AperFunction,ComponentPad*%
%ADD16C,1.750000*%
%TD*%
%TA.AperFunction,ComponentPad*%
%ADD17R,2.205000X2.205000*%
%TD*%
%TA.AperFunction,ComponentPad*%
%ADD18C,2.205000*%
%TD*%
%TA.AperFunction,ComponentPad*%
%ADD19C,3.030000*%
%TD*%
%TA.AperFunction,ComponentPad*%
%ADD20R,4.916000X4.916000*%
%TD*%
%TA.AperFunction,ComponentPad*%
%ADD21C,4.916000*%
%TD*%
%TA.AperFunction,ComponentPad*%
%ADD22O,2.600000X1.300000*%
%TD*%
%TA.AperFunction,ComponentPad*%
%ADD23C,2.500000*%
%TD*%
%TA.AperFunction,SMDPad,CuDef*%
%ADD24RoundRect,0.200000X0.200000X0.275000X-0.200000X0.275000X-0.200000X-0.275000X0.200000X-0.275000X0*%
%TD*%
%TA.AperFunction,SMDPad,CuDef*%
%ADD25RoundRect,0.075000X0.225000X-0.540000X0.225000X0.540000X-0.225000X0.540000X-0.225000X-0.540000X0*%
%TD*%
%TA.AperFunction,SMDPad,CuDef*%
%ADD26RoundRect,0.250000X-0.450000X0.262500X-0.450000X-0.262500X0.450000X-0.262500X0.450000X0.262500X0*%
%TD*%
%TA.AperFunction,SMDPad,CuDef*%
%ADD27RoundRect,0.200000X0.275000X-0.200000X0.275000X0.200000X-0.275000X0.200000X-0.275000X-0.200000X0*%
%TD*%
%TA.AperFunction,SMDPad,CuDef*%
%ADD28RoundRect,0.200000X-0.275000X0.200000X-0.275000X-0.200000X0.275000X-0.200000X0.275000X0.200000X0*%
%TD*%
%TA.AperFunction,ViaPad*%
%ADD29C,0.400000*%
%TD*%
%TA.AperFunction,ViaPad*%
%ADD30C,0.600000*%
%TD*%
%TA.AperFunction,Conductor*%
%ADD31C,0.200000*%
%TD*%
G04 APERTURE END LIST*
D10*
%TO.P,J5,6,Pin_6*%
%TO.N,GND*%
X165000000Y-88950000D03*
%TO.P,J5,5,Pin_5*%
X162500000Y-88950000D03*
%TO.P,J5,4,Pin_4*%
X160000000Y-88950000D03*
%TO.P,J5,3,Pin_3*%
X157500000Y-88950000D03*
%TO.P,J5,2,Pin_2*%
%TO.N,+5V*%
X155000000Y-88950000D03*
%TO.P,J5,1,Pin_1*%
X152500000Y-88950000D03*
%TD*%
D11*
%TO.P,TP4,1,1*%
%TO.N,/12V_EN*%
X146200000Y-103100000D03*
%TD*%
%TO.P,TP2,1,1*%
%TO.N,+12V*%
X185000000Y-24450000D03*
%TD*%
%TO.P,TP9,1,1*%
%TO.N,/Gate*%
X146000000Y-57200000D03*
%TD*%
D12*
%TO.P,J2,1,P*%
%TO.N,+BATT*%
X116550000Y-52800000D03*
D13*
%TO.P,J2,2,N*%
%TO.N,GND*%
X116550000Y-60000000D03*
D14*
%TO.P,J2,SH1,SHIELD*%
X110550000Y-49650000D03*
%TO.P,J2,SH2,SHIELD*%
X110550000Y-63150000D03*
%TD*%
D11*
%TO.P,TP5,1,1*%
%TO.N,/5V_EN*%
X168400000Y-77650000D03*
%TD*%
D12*
%TO.P,J1,1,P*%
%TO.N,+BATT*%
X116550000Y-34500000D03*
D13*
%TO.P,J1,2,N*%
%TO.N,GND*%
X116550000Y-41700000D03*
D14*
%TO.P,J1,SH1,SHIELD*%
X110550000Y-31350000D03*
%TO.P,J1,SH2,SHIELD*%
X110550000Y-44850000D03*
%TD*%
D11*
%TO.P,TP3,1,1*%
%TO.N,+5V*%
X153000000Y-95000000D03*
%TD*%
D15*
%TO.P,Q2,1,GATE*%
%TO.N,/Gate*%
X140640000Y-60900000D03*
D16*
%TO.P,Q2,2,DRAIN*%
%TO.N,/Vin*%
X138100000Y-60900000D03*
%TO.P,Q2,3,SOURCE*%
%TO.N,Net-(Q2-SOURCE)*%
X135560000Y-60900000D03*
%TD*%
D17*
%TO.P,PS78,1,VIN(+)*%
%TO.N,+BATT*%
X144050000Y-28850000D03*
D18*
%TO.P,PS78,2,~{ON}/OFF*%
%TO.N,/12V_EN*%
X144050000Y-36450000D03*
%TO.P,PS78,3,VIN(-)*%
%TO.N,GND*%
X144050000Y-44050000D03*
D19*
%TO.P,PS78,4,VOUT(-)*%
X171950000Y-44050000D03*
D18*
%TO.P,PS78,5,PWR_GOOD*%
%TO.N,/12V_PG*%
X171950000Y-40250000D03*
%TO.P,PS78,6,TRIM*%
%TO.N,Net-(PS78-TRIM)*%
X171950000Y-36450000D03*
%TO.P,PS78,7,SENSE+*%
%TO.N,+12V*%
X171950000Y-32650000D03*
D19*
%TO.P,PS78,8,VOUT(+)*%
X171950000Y-28850000D03*
D18*
%TO.P,PS78,32,SYNC*%
%TO.N,unconnected-(PS78-SYNC-Pad32)*%
X164350000Y-45450000D03*
%TO.P,PS78,33,MS*%
%TO.N,unconnected-(PS78-MS-Pad33)*%
X168150000Y-45450000D03*
%TO.P,PS78,34,SEQ*%
%TO.N,unconnected-(PS78-SEQ-Pad34)*%
X144050000Y-32650000D03*
%TD*%
D11*
%TO.P,TP11,1,1*%
%TO.N,/OV*%
X128500000Y-65500000D03*
%TD*%
D20*
%TO.P,J6,1,POS*%
%TO.N,/RAW_BATT*%
X120400000Y-86550000D03*
D21*
%TO.P,J6,2,NEG*%
%TO.N,GND*%
X120400000Y-97450000D03*
D22*
%TO.P,J6,S1,S1*%
X111000000Y-82550000D03*
%TO.P,J6,S2,S2*%
X111000000Y-101450000D03*
%TD*%
D10*
%TO.P,SW2,1,A*%
%TO.N,GND*%
X107000000Y-74000000D03*
%TO.P,SW2,2,B*%
%TO.N,/Vin_EN*%
X109500000Y-74000000D03*
%TD*%
D11*
%TO.P,TP12,1,1*%
%TO.N,GND*%
X119000000Y-78000000D03*
%TD*%
%TO.P,TP10,1,1*%
%TO.N,/Vin_EN*%
X119000000Y-68000000D03*
%TD*%
%TO.P,TP6,1,1*%
%TO.N,/12V_PG*%
X177000000Y-40300000D03*
%TD*%
D23*
%TO.P,J3,1,Pin_1*%
%TO.N,+12V*%
X188100000Y-28900000D03*
%TO.P,J3,2,Pin_2*%
%TO.N,GND*%
X191400000Y-28900000D03*
%TD*%
D11*
%TO.P,TP8,1,1*%
%TO.N,/5V_FB*%
X184800000Y-75700000D03*
%TD*%
%TO.P,TP1,1,1*%
%TO.N,/RAW_BATT*%
X129000000Y-96000000D03*
%TD*%
D15*
%TO.P,Q3,1,GATE*%
%TO.N,/Gate*%
X140600000Y-52960000D03*
D16*
%TO.P,Q3,2,DRAIN*%
%TO.N,+BATT*%
X138060000Y-52960000D03*
%TO.P,Q3,3,SOURCE*%
%TO.N,Net-(Q2-SOURCE)*%
X135520000Y-52960000D03*
%TD*%
D11*
%TO.P,TP7,1,1*%
%TO.N,/12V_PG_Gate*%
X158500000Y-21000000D03*
%TD*%
D24*
%TO.P,R5,1*%
%TO.N,GND*%
X156325000Y-38500000D03*
%TO.P,R5,2*%
%TO.N,/12V_PG_Gate*%
X154675000Y-38500000D03*
%TD*%
D25*
%TO.P,Q1,1,G*%
%TO.N,/12V_PG_Gate*%
X155450000Y-32560000D03*
%TO.P,Q1,2,S*%
%TO.N,GND*%
X153550000Y-32560000D03*
%TO.P,Q1,3,D*%
%TO.N,Net-(D2-K)*%
X154500000Y-30440000D03*
%TD*%
D26*
%TO.P,R1,1*%
%TO.N,Net-(PS78-TRIM)*%
X168050000Y-39137500D03*
%TO.P,R1,2*%
%TO.N,GND*%
X168050000Y-40962500D03*
%TD*%
D24*
%TO.P,R4,1*%
%TO.N,/12V_PG*%
X156325000Y-41000000D03*
%TO.P,R4,2*%
%TO.N,/12V_PG_Gate*%
X154675000Y-41000000D03*
%TD*%
D27*
%TO.P,R3,1*%
%TO.N,+5V*%
X156500000Y-45500000D03*
%TO.P,R3,2*%
%TO.N,/12V_PG*%
X156500000Y-43850000D03*
%TD*%
D28*
%TO.P,R6,1*%
%TO.N,Net-(D2-A)*%
X151000000Y-43850000D03*
%TO.P,R6,2*%
%TO.N,+5V*%
X151000000Y-45500000D03*
%TD*%
D29*
%TO.N,GND*%
X170900000Y-70100000D03*
X170900000Y-70600000D03*
X173800000Y-71300000D03*
X171400000Y-70600000D03*
X173800000Y-70800000D03*
X170900000Y-71100000D03*
D30*
X153000000Y-36000000D03*
%TO.N,Net-(U2-SW)*%
X169000000Y-75000000D03*
X172000000Y-66000000D03*
%TO.N,+5V*%
X154000000Y-53000000D03*
%TO.N,Net-(D2-A)*%
X150000000Y-23500000D03*
%TO.N,Net-(D2-K)*%
X153000000Y-23500000D03*
%TO.N,/12V_EN*%
X148500000Y-106000000D03*
%TO.N,/5V_EN*%
X172400001Y-74731872D03*
X155000000Y-101000000D03*
%TO.N,/12V_PG*%
X162500000Y-43000000D03*
%TO.N,/Gate*%
X132300000Y-57500000D03*
%TO.N,/OV*%
X129100000Y-60300000D03*
X131100000Y-57100000D03*
%TO.N,/Vin_EN*%
X125800000Y-54300000D03*
X126400000Y-71800000D03*
%TD*%
D31*
%TO.N,Net-(U2-SW)*%
X169000000Y-69000000D02*
X169000000Y-75000000D01*
X172000000Y-66000000D02*
X169000000Y-69000000D01*
%TO.N,+5V*%
X156500000Y-50500000D02*
X154000000Y-53000000D01*
X156500000Y-45500000D02*
X156500000Y-50500000D01*
X156500000Y-45500000D02*
X151000000Y-45500000D01*
%TO.N,Net-(D2-A)*%
X151000000Y-43850000D02*
X151000000Y-24500000D01*
X151000000Y-24500000D02*
X150000000Y-23500000D01*
%TO.N,Net-(D2-K)*%
X154500000Y-30440000D02*
X154500000Y-25000000D01*
X154500000Y-25000000D02*
X153000000Y-23500000D01*
%TO.N,/12V_EN*%
X148500000Y-105400000D02*
X146200000Y-103100000D01*
X148500000Y-106000000D02*
X149500000Y-105000000D01*
X149500000Y-41900000D02*
X144050000Y-36450000D01*
X149500000Y-105000000D02*
X149500000Y-41900000D01*
X148500000Y-106000000D02*
X148500000Y-105400000D01*
%TO.N,/5V_EN*%
X155000000Y-101000000D02*
X158500000Y-101000000D01*
X172400001Y-87099999D02*
X172400001Y-74731872D01*
X158500000Y-101000000D02*
X172400001Y-87099999D01*
%TO.N,Net-(PS78-TRIM)*%
X169262500Y-39137500D02*
X168050000Y-39137500D01*
X171950000Y-36450000D02*
X169262500Y-39137500D01*
%TO.N,/12V_PG*%
X156325000Y-43675000D02*
X156500000Y-43850000D01*
X161650000Y-43850000D02*
X156500000Y-43850000D01*
X156325000Y-41000000D02*
X156325000Y-43675000D01*
X162500000Y-43000000D02*
X161650000Y-43850000D01*
%TO.N,/12V_PG_Gate*%
X158500000Y-33500000D02*
X154675000Y-37325000D01*
X154500000Y-38500000D02*
X154450000Y-38550000D01*
X155450000Y-36550000D02*
X155450000Y-32560000D01*
X154675000Y-37325000D02*
X155450000Y-36550000D01*
X154675000Y-38500000D02*
X154675000Y-37325000D01*
X154675000Y-38500000D02*
X154500000Y-38500000D01*
X154675000Y-41000000D02*
X154675000Y-38500000D01*
X158500000Y-21000000D02*
X158500000Y-33500000D01*
%TO.N,/Gate*%
X139490000Y-57200000D02*
X139510000Y-57200000D01*
X139620000Y-57200000D02*
X140640000Y-58220000D01*
X140640000Y-58220000D02*
X140640000Y-60900000D01*
X139620000Y-57180000D02*
X140600000Y-56200000D01*
X132300000Y-57500000D02*
X133200000Y-57500000D01*
X139620000Y-57200000D02*
X139620000Y-57180000D01*
X146000000Y-57200000D02*
X139620000Y-57200000D01*
X133500000Y-57200000D02*
X139490000Y-57200000D01*
X133200000Y-57500000D02*
X133500000Y-57200000D01*
X139490000Y-57200000D02*
X139620000Y-57200000D01*
X140600000Y-56200000D02*
X140600000Y-52960000D01*
%TO.N,/OV*%
X130400000Y-59000000D02*
X130400000Y-57800000D01*
X129100000Y-60300000D02*
X130400000Y-59000000D01*
X130400000Y-57800000D02*
X131100000Y-57100000D01*
%TO.N,/Vin_EN*%
X126400000Y-54900000D02*
X125800000Y-54300000D01*
X126400000Y-71800000D02*
X126400000Y-54900000D01*
%TD*%
%TA.AperFunction,Conductor*%
%TO.N,GND*%
G36*
X195442539Y-17520185D02*
G01*
X195488294Y-17572989D01*
X195499500Y-17624500D01*
X195499500Y-114375500D01*
X195479815Y-114442539D01*
X195427011Y-114488294D01*
X195375500Y-114499500D01*
X102624500Y-114499500D01*
X102557461Y-114479815D01*
X102511706Y-114427011D01*
X102500500Y-114375500D01*
X102500500Y-109852486D01*
X104749500Y-109852486D01*
X104749500Y-110147513D01*
X104768482Y-110291690D01*
X104788007Y-110439993D01*
X104788008Y-110439995D01*
X104864361Y-110724951D01*
X104864364Y-110724961D01*
X104977254Y-110997500D01*
X104977258Y-110997510D01*
X105124761Y-111252993D01*
X105304352Y-111487040D01*
X105304358Y-111487047D01*
X105512952Y-111695641D01*
X105512959Y-111695647D01*
X105747006Y-111875238D01*
X106002489Y-112022741D01*
X106002490Y-112022741D01*
X106002493Y-112022743D01*
X106275048Y-112135639D01*
X106560007Y-112211993D01*
X106852494Y-112250500D01*
X106852501Y-112250500D01*
X107147499Y-112250500D01*
X107147506Y-112250500D01*
X107439993Y-112211993D01*
X107724952Y-112135639D01*
X107997507Y-112022743D01*
X108252994Y-111875238D01*
X108487042Y-111695646D01*
X108695646Y-111487042D01*
X108875238Y-111252994D01*
X109022743Y-110997507D01*
X109135639Y-110724952D01*
X109211993Y-110439993D01*
X109250500Y-110147506D01*
X109250500Y-109852494D01*
X109250499Y-109852486D01*
X188749500Y-109852486D01*
X188749500Y-110147513D01*
X188768482Y-110291690D01*
X188788007Y-110439993D01*
X188788008Y-110439995D01*
X188864361Y-110724951D01*
X188864364Y-110724961D01*
X188977254Y-110997500D01*
X188977258Y-110997510D01*
X189124761Y-111252993D01*
X189304352Y-111487040D01*
X189304358Y-111487047D01*
X189512952Y-111695641D01*
X189512959Y-111695647D01*
X189747006Y-111875238D01*
X190002489Y-112022741D01*
X190002490Y-112022741D01*
X190002493Y-112022743D01*
X190275048Y-112135639D01*
X190560007Y-112211993D01*
X190852494Y-112250500D01*
X190852501Y-112250500D01*
X191147499Y-112250500D01*
X191147506Y-112250500D01*
X191439993Y-112211993D01*
X191724952Y-112135639D01*
X191997507Y-112022743D01*
X192252994Y-111875238D01*
X192487042Y-111695646D01*
X192695646Y-111487042D01*
X192875238Y-111252994D01*
X193022743Y-110997507D01*
X193135639Y-110724952D01*
X193211993Y-110439993D01*
X193250500Y-110147506D01*
X193250500Y-109852494D01*
X193211993Y-109560007D01*
X193135639Y-109275048D01*
X193022743Y-109002493D01*
X192875238Y-108747006D01*
X192695646Y-108512958D01*
X192695641Y-108512952D01*
X192487047Y-108304358D01*
X192487040Y-108304352D01*
X192252993Y-108124761D01*
X191997510Y-107977258D01*
X191997500Y-107977254D01*
X191724961Y-107864364D01*
X191724954Y-107864362D01*
X191724952Y-107864361D01*
X191439993Y-107788007D01*
X191391113Y-107781571D01*
X191147513Y-107749500D01*
X191147506Y-107749500D01*
X190852494Y-107749500D01*
X190852486Y-107749500D01*
X190574085Y-107786153D01*
X190560007Y-107788007D01*
X190275048Y-107864361D01*
X190275038Y-107864364D01*
X190002499Y-107977254D01*
X190002489Y-107977258D01*
X189747006Y-108124761D01*
X189512959Y-108304352D01*
X189512952Y-108304358D01*
X189304358Y-108512952D01*
X189304352Y-108512959D01*
X189124761Y-108747006D01*
X188977258Y-109002489D01*
X188977254Y-109002499D01*
X188864364Y-109275038D01*
X188864361Y-109275048D01*
X188788008Y-109560004D01*
X188788006Y-109560015D01*
X188749500Y-109852486D01*
X109250499Y-109852486D01*
X109211993Y-109560007D01*
X109135639Y-109275048D01*
X109022743Y-109002493D01*
X108875238Y-108747006D01*
X108695646Y-108512958D01*
X108695641Y-108512952D01*
X108487047Y-108304358D01*
X108487040Y-108304352D01*
X108252993Y-108124761D01*
X107997510Y-107977258D01*
X107997500Y-107977254D01*
X107724961Y-107864364D01*
X107724954Y-107864362D01*
X107724952Y-107864361D01*
X107439993Y-107788007D01*
X107391113Y-107781571D01*
X107147513Y-107749500D01*
X107147506Y-107749500D01*
X106852494Y-107749500D01*
X106852486Y-107749500D01*
X106574085Y-107786153D01*
X106560007Y-107788007D01*
X106275048Y-107864361D01*
X106275038Y-107864364D01*
X106002499Y-107977254D01*
X106002489Y-107977258D01*
X105747006Y-108124761D01*
X105512959Y-108304352D01*
X105512952Y-108304358D01*
X105304358Y-108512952D01*
X105304352Y-108512959D01*
X105124761Y-108747006D01*
X104977258Y-109002489D01*
X104977254Y-109002499D01*
X104864364Y-109275038D01*
X104864361Y-109275048D01*
X104788008Y-109560004D01*
X104788006Y-109560015D01*
X104749500Y-109852486D01*
X102500500Y-109852486D01*
X102500500Y-101200000D01*
X109225261Y-101200000D01*
X110333012Y-101200000D01*
X110315795Y-101209940D01*
X110259940Y-101265795D01*
X110220444Y-101334204D01*
X110200000Y-101410504D01*
X110200000Y-101489496D01*
X110220444Y-101565796D01*
X110259940Y-101634205D01*
X110315795Y-101690060D01*
X110333012Y-101700000D01*
X109225261Y-101700000D01*
X109228315Y-101719285D01*
X109228318Y-101719295D01*
X109284250Y-101891441D01*
X109284252Y-101891447D01*
X109366434Y-102052734D01*
X109472823Y-102199169D01*
X109600830Y-102327176D01*
X109747265Y-102433565D01*
X109908552Y-102515747D01*
X109908555Y-102515748D01*
X110080706Y-102571682D01*
X110259494Y-102600000D01*
X110750000Y-102600000D01*
X110750000Y-101750000D01*
X111250000Y-101750000D01*
X111250000Y-102600000D01*
X111740506Y-102600000D01*
X111919293Y-102571682D01*
X112091444Y-102515748D01*
X112091447Y-102515747D01*
X112252734Y-102433565D01*
X112399169Y-102327176D01*
X112527176Y-102199169D01*
X112633565Y-102052734D01*
X112715747Y-101891447D01*
X112715749Y-101891441D01*
X112771681Y-101719295D01*
X112771684Y-101719285D01*
X112774739Y-101700000D01*
X111666988Y-101700000D01*
X111684205Y-101690060D01*
X111740060Y-101634205D01*
X111779556Y-101565796D01*
X111800000Y-101489496D01*
X111800000Y-101410504D01*
X111779556Y-101334204D01*
X111740060Y-101265795D01*
X111684205Y-101209940D01*
X111666988Y-101200000D01*
X112774739Y-101200000D01*
X112771684Y-101180714D01*
X112771681Y-101180704D01*
X112715749Y-101008558D01*
X112715747Y-101008552D01*
X112633565Y-100847265D01*
X112527176Y-100700830D01*
X112399169Y-100572823D01*
X112252734Y-100466434D01*
X112091447Y-100384252D01*
X112091444Y-100384251D01*
X111919293Y-100328317D01*
X111740506Y-100300000D01*
X111250000Y-100300000D01*
X111250000Y-101150000D01*
X110750000Y-101150000D01*
X110750000Y-100300000D01*
X110259494Y-100300000D01*
X110080706Y-100328317D01*
X109908555Y-100384251D01*
X109908552Y-100384252D01*
X109747265Y-100466434D01*
X109600830Y-100572823D01*
X109472823Y-100700830D01*
X109366434Y-100847265D01*
X109284252Y-101008552D01*
X109284250Y-101008558D01*
X109228318Y-101180704D01*
X109228315Y-101180714D01*
X109225261Y-101200000D01*
X102500500Y-101200000D01*
X102500500Y-97283875D01*
X117442000Y-97283875D01*
X117442000Y-97616124D01*
X117479195Y-97946249D01*
X117479198Y-97946263D01*
X117553127Y-98270169D01*
X117553131Y-98270181D01*
X117662859Y-98583764D01*
X117807008Y-98883092D01*
X117983769Y-99164405D01*
X118138283Y-99358162D01*
X118855739Y-98640705D01*
X118930767Y-98738483D01*
X119111517Y-98919233D01*
X119209292Y-98994259D01*
X118491836Y-99711715D01*
X118685594Y-99866230D01*
X118966907Y-100042991D01*
X119266235Y-100187140D01*
X119579818Y-100296868D01*
X119579830Y-100296872D01*
X119903736Y-100370801D01*
X119903750Y-100370804D01*
X120233875Y-100407999D01*
X120233879Y-100408000D01*
X120566121Y-100408000D01*
X120566124Y-100407999D01*
X120896249Y-100370804D01*
X120896263Y-100370801D01*
X121220169Y-100296872D01*
X121220181Y-100296868D01*
X121533764Y-100187140D01*
X121833092Y-100042991D01*
X122114405Y-99866230D01*
X122308162Y-99711715D01*
X121590706Y-98994259D01*
X121688483Y-98919233D01*
X121869233Y-98738483D01*
X121944259Y-98640706D01*
X122661715Y-99358162D01*
X122816230Y-99164405D01*
X122992991Y-98883092D01*
X123137140Y-98583764D01*
X123246868Y-98270181D01*
X123246872Y-98270169D01*
X123320801Y-97946263D01*
X123320804Y-97946249D01*
X123357999Y-97616124D01*
X123358000Y-97616120D01*
X123358000Y-97283879D01*
X123357999Y-97283875D01*
X123320804Y-96953750D01*
X123320801Y-96953736D01*
X123246872Y-96629830D01*
X123246868Y-96629818D01*
X123137140Y-96316235D01*
X122992991Y-96016907D01*
X122960242Y-95964787D01*
X122922614Y-95904902D01*
X128034500Y-95904902D01*
X128034500Y-96095097D01*
X128071601Y-96281618D01*
X128071603Y-96281626D01*
X128144383Y-96457332D01*
X128144388Y-96457342D01*
X128250046Y-96615470D01*
X128250049Y-96615474D01*
X128384525Y-96749950D01*
X128384529Y-96749953D01*
X128542657Y-96855611D01*
X128542661Y-96855613D01*
X128542664Y-96855615D01*
X128718374Y-96928397D01*
X128845835Y-96953750D01*
X128904902Y-96965499D01*
X128904906Y-96965500D01*
X128904907Y-96965500D01*
X129095094Y-96965500D01*
X129095095Y-96965499D01*
X129281626Y-96928397D01*
X129457336Y-96855615D01*
X129615471Y-96749953D01*
X129749953Y-96615471D01*
X129855615Y-96457336D01*
X129928397Y-96281626D01*
X129965500Y-96095093D01*
X129965500Y-95904907D01*
X129928397Y-95718374D01*
X129855615Y-95542664D01*
X129855613Y-95542661D01*
X129855611Y-95542657D01*
X129749953Y-95384529D01*
X129749950Y-95384525D01*
X129615474Y-95250049D01*
X129615470Y-95250046D01*
X129457342Y-95144388D01*
X129457332Y-95144383D01*
X129281626Y-95071603D01*
X129281618Y-95071601D01*
X129095097Y-95034500D01*
X129095093Y-95034500D01*
X128904907Y-95034500D01*
X128904902Y-95034500D01*
X128718381Y-95071601D01*
X128718373Y-95071603D01*
X128542667Y-95144383D01*
X128542657Y-95144388D01*
X128384529Y-95250046D01*
X128384525Y-95250049D01*
X128250049Y-95384525D01*
X128250046Y-95384529D01*
X128144388Y-95542657D01*
X128144383Y-95542667D01*
X128071603Y-95718373D01*
X128071601Y-95718381D01*
X128034500Y-95904902D01*
X122922614Y-95904902D01*
X122816230Y-95735594D01*
X122661715Y-95541836D01*
X121944258Y-96259292D01*
X121869233Y-96161517D01*
X121688483Y-95980767D01*
X121590705Y-95905739D01*
X122308162Y-95188283D01*
X122114405Y-95033769D01*
X121833092Y-94857008D01*
X121533764Y-94712859D01*
X121220181Y-94603131D01*
X121220169Y-94603127D01*
X120896263Y-94529198D01*
X120896249Y-94529195D01*
X120566124Y-94492000D01*
X120233875Y-94492000D01*
X119903750Y-94529195D01*
X119903736Y-94529198D01*
X119579830Y-94603127D01*
X119579818Y-94603131D01*
X119266235Y-94712859D01*
X118966907Y-94857008D01*
X118685590Y-95033771D01*
X118685586Y-95033774D01*
X118491836Y-95188283D01*
X119209293Y-95905740D01*
X119111517Y-95980767D01*
X118930767Y-96161517D01*
X118855740Y-96259293D01*
X118138283Y-95541836D01*
X117983774Y-95735586D01*
X117983771Y-95735590D01*
X117807008Y-96016907D01*
X117662859Y-96316235D01*
X117553131Y-96629818D01*
X117553127Y-96629830D01*
X117479198Y-96953736D01*
X117479195Y-96953750D01*
X117442000Y-97283875D01*
X102500500Y-97283875D01*
X102500500Y-84072247D01*
X117741500Y-84072247D01*
X117741500Y-89027752D01*
X117753131Y-89086229D01*
X117753132Y-89086230D01*
X117797447Y-89152552D01*
X117863769Y-89196867D01*
X117863770Y-89196868D01*
X117922247Y-89208499D01*
X117922250Y-89208500D01*
X117922252Y-89208500D01*
X122877750Y-89208500D01*
X122877751Y-89208499D01*
X122892568Y-89205552D01*
X122936229Y-89196868D01*
X122936229Y-89196867D01*
X122936231Y-89196867D01*
X123002552Y-89152552D01*
X123046867Y-89086231D01*
X123046867Y-89086229D01*
X123046868Y-89086229D01*
X123058499Y-89027752D01*
X123058500Y-89027750D01*
X123058500Y-84072249D01*
X123058499Y-84072247D01*
X123046868Y-84013770D01*
X123046867Y-84013769D01*
X123002552Y-83947447D01*
X122936230Y-83903132D01*
X122936229Y-83903131D01*
X122877752Y-83891500D01*
X122877748Y-83891500D01*
X117922252Y-83891500D01*
X117922247Y-83891500D01*
X117863770Y-83903131D01*
X117863769Y-83903132D01*
X117797447Y-83947447D01*
X117753132Y-84013769D01*
X117753131Y-84013770D01*
X117741500Y-84072247D01*
X102500500Y-84072247D01*
X102500500Y-82300000D01*
X109225261Y-82300000D01*
X110333012Y-82300000D01*
X110315795Y-82309940D01*
X110259940Y-82365795D01*
X110220444Y-82434204D01*
X110200000Y-82510504D01*
X110200000Y-82589496D01*
X110220444Y-82665796D01*
X110259940Y-82734205D01*
X110315795Y-82790060D01*
X110333012Y-82800000D01*
X109225261Y-82800000D01*
X109228315Y-82819285D01*
X109228318Y-82819295D01*
X109284250Y-82991441D01*
X109284252Y-82991447D01*
X109366434Y-83152734D01*
X109472823Y-83299169D01*
X109600830Y-83427176D01*
X109747265Y-83533565D01*
X109908552Y-83615747D01*
X109908555Y-83615748D01*
X110080706Y-83671682D01*
X110259494Y-83700000D01*
X110750000Y-83700000D01*
X110750000Y-82850000D01*
X111250000Y-82850000D01*
X111250000Y-83700000D01*
X111740506Y-83700000D01*
X111919293Y-83671682D01*
X112091444Y-83615748D01*
X112091447Y-83615747D01*
X112252734Y-83533565D01*
X112399169Y-83427176D01*
X112527176Y-83299169D01*
X112633565Y-83152734D01*
X112715747Y-82991447D01*
X112715749Y-82991441D01*
X112771681Y-82819295D01*
X112771684Y-82819285D01*
X112774739Y-82800000D01*
X111666988Y-82800000D01*
X111684205Y-82790060D01*
X111740060Y-82734205D01*
X111779556Y-82665796D01*
X111800000Y-82589496D01*
X111800000Y-82510504D01*
X111779556Y-82434204D01*
X111740060Y-82365795D01*
X111684205Y-82309940D01*
X111666988Y-82300000D01*
X112774739Y-82300000D01*
X112771684Y-82280714D01*
X112771681Y-82280704D01*
X112715749Y-82108558D01*
X112715747Y-82108552D01*
X112633565Y-81947265D01*
X112527176Y-81800830D01*
X112399169Y-81672823D01*
X112252734Y-81566434D01*
X112091447Y-81484252D01*
X112091444Y-81484251D01*
X111919293Y-81428317D01*
X111740506Y-81400000D01*
X111250000Y-81400000D01*
X111250000Y-82250000D01*
X110750000Y-82250000D01*
X110750000Y-81400000D01*
X110259494Y-81400000D01*
X110080706Y-81428317D01*
X109908555Y-81484251D01*
X109908552Y-81484252D01*
X109747265Y-81566434D01*
X109600830Y-81672823D01*
X109472823Y-81800830D01*
X109366434Y-81947265D01*
X109284252Y-82108552D01*
X109284250Y-82108558D01*
X109228318Y-82280704D01*
X109228315Y-82280714D01*
X109225261Y-82300000D01*
X102500500Y-82300000D01*
X102500500Y-77900436D01*
X117735000Y-77900436D01*
X117735000Y-78099563D01*
X117766147Y-78296222D01*
X117827679Y-78485594D01*
X117918077Y-78663008D01*
X117945580Y-78700863D01*
X117945581Y-78700864D01*
X118508871Y-78137574D01*
X118524755Y-78196853D01*
X118591898Y-78313147D01*
X118686853Y-78408102D01*
X118803147Y-78475245D01*
X118862425Y-78491128D01*
X118299134Y-79054417D01*
X118336994Y-79081924D01*
X118514405Y-79172320D01*
X118703777Y-79233852D01*
X118900437Y-79265000D01*
X119099563Y-79265000D01*
X119296222Y-79233852D01*
X119485594Y-79172320D01*
X119663005Y-79081924D01*
X119700863Y-79054418D01*
X119700863Y-79054417D01*
X119137574Y-78491128D01*
X119196853Y-78475245D01*
X119313147Y-78408102D01*
X119408102Y-78313147D01*
X119475245Y-78196853D01*
X119491128Y-78137574D01*
X120054417Y-78700863D01*
X120054418Y-78700863D01*
X120081924Y-78663005D01*
X120172320Y-78485594D01*
X120233852Y-78296222D01*
X120265000Y-78099563D01*
X120265000Y-77900436D01*
X120233852Y-77703777D01*
X120172320Y-77514405D01*
X120081924Y-77336994D01*
X120054417Y-77299135D01*
X120054417Y-77299134D01*
X119491128Y-77862424D01*
X119475245Y-77803147D01*
X119408102Y-77686853D01*
X119313147Y-77591898D01*
X119196853Y-77524755D01*
X119137574Y-77508871D01*
X119700864Y-76945581D01*
X119700863Y-76945580D01*
X119663008Y-76918077D01*
X119485594Y-76827679D01*
X119296222Y-76766147D01*
X119099563Y-76735000D01*
X118900437Y-76735000D01*
X118703777Y-76766147D01*
X118514405Y-76827679D01*
X118336990Y-76918077D01*
X118299135Y-76945580D01*
X118299135Y-76945581D01*
X118862425Y-77508871D01*
X118803147Y-77524755D01*
X118686853Y-77591898D01*
X118591898Y-77686853D01*
X118524755Y-77803147D01*
X118508871Y-77862425D01*
X117945581Y-77299135D01*
X117945580Y-77299135D01*
X117918077Y-77336990D01*
X117827679Y-77514405D01*
X117766147Y-77703777D01*
X117735000Y-77900436D01*
X102500500Y-77900436D01*
X102500500Y-73901617D01*
X105750000Y-73901617D01*
X105750000Y-74098382D01*
X105780778Y-74292705D01*
X105841581Y-74479835D01*
X105930905Y-74655145D01*
X105956319Y-74690125D01*
X105956320Y-74690125D01*
X106508871Y-74137574D01*
X106524755Y-74196853D01*
X106591898Y-74313147D01*
X106686853Y-74408102D01*
X106803147Y-74475245D01*
X106862424Y-74491128D01*
X106309873Y-75043677D01*
X106309873Y-75043678D01*
X106344858Y-75069096D01*
X106520164Y-75158418D01*
X106707294Y-75219221D01*
X106901618Y-75250000D01*
X107098382Y-75250000D01*
X107292705Y-75219221D01*
X107479835Y-75158418D01*
X107655143Y-75069095D01*
X107690125Y-75043678D01*
X107690126Y-75043678D01*
X107137575Y-74491127D01*
X107196853Y-74475245D01*
X107313147Y-74408102D01*
X107408102Y-74313147D01*
X107475245Y-74196853D01*
X107491127Y-74137575D01*
X108043678Y-74690126D01*
X108043678Y-74690125D01*
X108069095Y-74655143D01*
X108158418Y-74479835D01*
X108219221Y-74292705D01*
X108250000Y-74098382D01*
X108250000Y-73906379D01*
X108549500Y-73906379D01*
X108549500Y-74093620D01*
X108586025Y-74277243D01*
X108586027Y-74277251D01*
X108657676Y-74450228D01*
X108657681Y-74450237D01*
X108761697Y-74605907D01*
X108761700Y-74605911D01*
X108894088Y-74738299D01*
X108894092Y-74738302D01*
X109049762Y-74842318D01*
X109049771Y-74842323D01*
X109088956Y-74858554D01*
X109222749Y-74913973D01*
X109404102Y-74950046D01*
X109406379Y-74950499D01*
X109406383Y-74950500D01*
X109406384Y-74950500D01*
X109593617Y-74950500D01*
X109593618Y-74950499D01*
X109777251Y-74913973D01*
X109950231Y-74842322D01*
X110105908Y-74738302D01*
X110238302Y-74605908D01*
X110342322Y-74450231D01*
X110413973Y-74277251D01*
X110450500Y-74093616D01*
X110450500Y-73906384D01*
X110413973Y-73722749D01*
X110342322Y-73549769D01*
X110342321Y-73549768D01*
X110342318Y-73549762D01*
X110238302Y-73394092D01*
X110238299Y-73394088D01*
X110105911Y-73261700D01*
X110105907Y-73261697D01*
X109950237Y-73157681D01*
X109950228Y-73157676D01*
X109777251Y-73086027D01*
X109777243Y-73086025D01*
X109593620Y-73049500D01*
X109593616Y-73049500D01*
X109406384Y-73049500D01*
X109406379Y-73049500D01*
X109222756Y-73086025D01*
X109222748Y-73086027D01*
X109049771Y-73157676D01*
X109049762Y-73157681D01*
X108894092Y-73261697D01*
X108894088Y-73261700D01*
X108761700Y-73394088D01*
X108761697Y-73394092D01*
X108657681Y-73549762D01*
X108657676Y-73549771D01*
X108586027Y-73722748D01*
X108586025Y-73722756D01*
X108549500Y-73906379D01*
X108250000Y-73906379D01*
X108250000Y-73901617D01*
X108219221Y-73707294D01*
X108158418Y-73520164D01*
X108069096Y-73344858D01*
X108043678Y-73309873D01*
X108043677Y-73309873D01*
X107491127Y-73862423D01*
X107475245Y-73803147D01*
X107408102Y-73686853D01*
X107313147Y-73591898D01*
X107196853Y-73524755D01*
X107137574Y-73508871D01*
X107690125Y-72956320D01*
X107690125Y-72956319D01*
X107655145Y-72930905D01*
X107479835Y-72841581D01*
X107292705Y-72780778D01*
X107098382Y-72750000D01*
X106901618Y-72750000D01*
X106707294Y-72780778D01*
X106520161Y-72841582D01*
X106344863Y-72930899D01*
X106344859Y-72930902D01*
X106309873Y-72956320D01*
X106309872Y-72956320D01*
X106862425Y-73508871D01*
X106803147Y-73524755D01*
X106686853Y-73591898D01*
X106591898Y-73686853D01*
X106524755Y-73803147D01*
X106508871Y-73862424D01*
X105956320Y-73309872D01*
X105956320Y-73309873D01*
X105930902Y-73344859D01*
X105930899Y-73344863D01*
X105841582Y-73520161D01*
X105780778Y-73707294D01*
X105750000Y-73901617D01*
X102500500Y-73901617D01*
X102500500Y-67904902D01*
X118034500Y-67904902D01*
X118034500Y-68095097D01*
X118071601Y-68281618D01*
X118071603Y-68281626D01*
X118144383Y-68457332D01*
X118144388Y-68457342D01*
X118250046Y-68615470D01*
X118250049Y-68615474D01*
X118384525Y-68749950D01*
X118384529Y-68749953D01*
X118542657Y-68855611D01*
X118542661Y-68855613D01*
X118542664Y-68855615D01*
X118718374Y-68928397D01*
X118879458Y-68960438D01*
X118904902Y-68965499D01*
X118904906Y-68965500D01*
X118904907Y-68965500D01*
X119095094Y-68965500D01*
X119095095Y-68965499D01*
X119281626Y-68928397D01*
X119457336Y-68855615D01*
X119615471Y-68749953D01*
X119749953Y-68615471D01*
X119855615Y-68457336D01*
X119928397Y-68281626D01*
X119965500Y-68095093D01*
X119965500Y-67904907D01*
X119928397Y-67718374D01*
X119855615Y-67542664D01*
X119855613Y-67542661D01*
X119855611Y-67542657D01*
X119749953Y-67384529D01*
X119749950Y-67384525D01*
X119615474Y-67250049D01*
X119615470Y-67250046D01*
X119457342Y-67144388D01*
X119457332Y-67144383D01*
X119281626Y-67071603D01*
X119281618Y-67071601D01*
X119095097Y-67034500D01*
X119095093Y-67034500D01*
X118904907Y-67034500D01*
X118904902Y-67034500D01*
X118718381Y-67071601D01*
X118718373Y-67071603D01*
X118542667Y-67144383D01*
X118542657Y-67144388D01*
X118384529Y-67250046D01*
X118384525Y-67250049D01*
X118250049Y-67384525D01*
X118250046Y-67384529D01*
X118144388Y-67542657D01*
X118144383Y-67542667D01*
X118071603Y-67718373D01*
X118071601Y-67718381D01*
X118034500Y-67904902D01*
X102500500Y-67904902D01*
X102500500Y-62899999D01*
X108875884Y-62899999D01*
X108875885Y-62900000D01*
X109833012Y-62900000D01*
X109815795Y-62909940D01*
X109759940Y-62965795D01*
X109720444Y-63034204D01*
X109700000Y-63110504D01*
X109700000Y-63189496D01*
X109720444Y-63265796D01*
X109759940Y-63334205D01*
X109815795Y-63390060D01*
X109833012Y-63400000D01*
X108875885Y-63400000D01*
X108877085Y-63407584D01*
X108930591Y-63572255D01*
X109009195Y-63726524D01*
X109110967Y-63866602D01*
X109233397Y-63989032D01*
X109373475Y-64090804D01*
X109527742Y-64169408D01*
X109692415Y-64222914D01*
X109863429Y-64250000D01*
X110300000Y-64250000D01*
X110300000Y-63450000D01*
X110800000Y-63450000D01*
X110800000Y-64250000D01*
X111236571Y-64250000D01*
X111407584Y-64222914D01*
X111572257Y-64169408D01*
X111726524Y-64090804D01*
X111866602Y-63989032D01*
X111989032Y-63866602D01*
X112090804Y-63726524D01*
X112169408Y-63572255D01*
X112222914Y-63407584D01*
X112224115Y-63400000D01*
X111266988Y-63400000D01*
X111284205Y-63390060D01*
X111340060Y-63334205D01*
X111379556Y-63265796D01*
X111400000Y-63189496D01*
X111400000Y-63110504D01*
X111379556Y-63034204D01*
X111340060Y-62965795D01*
X111284205Y-62909940D01*
X111266988Y-62900000D01*
X112224115Y-62900000D01*
X112224115Y-62899999D01*
X112222914Y-62892415D01*
X112169408Y-62727744D01*
X112090804Y-62573475D01*
X111989032Y-62433397D01*
X111866602Y-62310967D01*
X111726524Y-62209195D01*
X111572257Y-62130591D01*
X111407584Y-62077085D01*
X111236571Y-62050000D01*
X110800000Y-62050000D01*
X110800000Y-62850000D01*
X110300000Y-62850000D01*
X110300000Y-62050000D01*
X109863429Y-62050000D01*
X109692415Y-62077085D01*
X109527742Y-62130591D01*
X109373475Y-62209195D01*
X109233397Y-62310967D01*
X109110967Y-62433397D01*
X109009195Y-62573475D01*
X108930591Y-62727744D01*
X108877085Y-62892415D01*
X108875884Y-62899999D01*
X102500500Y-62899999D01*
X102500500Y-59845441D01*
X114192000Y-59845441D01*
X114192000Y-60154558D01*
X114232346Y-60461001D01*
X114232348Y-60461012D01*
X114312347Y-60759577D01*
X114430634Y-61045147D01*
X114430638Y-61045157D01*
X114585187Y-61312844D01*
X114714751Y-61481694D01*
X115434728Y-60761716D01*
X115520278Y-60879466D01*
X115670534Y-61029722D01*
X115788281Y-61115270D01*
X115068304Y-61835247D01*
X115237159Y-61964815D01*
X115504842Y-62119361D01*
X115504852Y-62119365D01*
X115790422Y-62237652D01*
X116088987Y-62317651D01*
X116088998Y-62317653D01*
X116395441Y-62357999D01*
X116395456Y-62358000D01*
X116704544Y-62358000D01*
X116704558Y-62357999D01*
X117011001Y-62317653D01*
X117011012Y-62317651D01*
X117309577Y-62237652D01*
X117595147Y-62119365D01*
X117595156Y-62119361D01*
X117862845Y-61964811D01*
X118031694Y-61835247D01*
X117311717Y-61115270D01*
X117429466Y-61029722D01*
X117579722Y-60879466D01*
X117665270Y-60761717D01*
X118385247Y-61481694D01*
X118514811Y-61312845D01*
X118669361Y-61045156D01*
X118669365Y-61045147D01*
X118787652Y-60759577D01*
X118867651Y-60461012D01*
X118867653Y-60461001D01*
X118907999Y-60154558D01*
X118908000Y-60154544D01*
X118908000Y-59845455D01*
X118907999Y-59845441D01*
X118867653Y-59538998D01*
X118867651Y-59538987D01*
X118787652Y-59240422D01*
X118669365Y-58954852D01*
X118669361Y-58954842D01*
X118514815Y-58687159D01*
X118385247Y-58518304D01*
X117665270Y-59238281D01*
X117579722Y-59120534D01*
X117429466Y-58970278D01*
X117311716Y-58884728D01*
X118031694Y-58164751D01*
X118031694Y-58164750D01*
X117862844Y-58035187D01*
X117595157Y-57880638D01*
X117595147Y-57880634D01*
X117309577Y-57762347D01*
X117011012Y-57682348D01*
X117011001Y-57682346D01*
X116704558Y-57642000D01*
X116395441Y-57642000D01*
X116088998Y-57682346D01*
X116088987Y-57682348D01*
X115790422Y-57762347D01*
X115504852Y-57880634D01*
X115504842Y-57880638D01*
X115237155Y-58035187D01*
X115068304Y-58164750D01*
X115068304Y-58164751D01*
X115788282Y-58884729D01*
X115670534Y-58970278D01*
X115520278Y-59120534D01*
X115434729Y-59238282D01*
X114714751Y-58518304D01*
X114714750Y-58518304D01*
X114585187Y-58687155D01*
X114430638Y-58954842D01*
X114430634Y-58954852D01*
X114312347Y-59240422D01*
X114232348Y-59538987D01*
X114232346Y-59538998D01*
X114192000Y-59845441D01*
X102500500Y-59845441D01*
X102500500Y-50922247D01*
X114491500Y-50922247D01*
X114491500Y-54677752D01*
X114503131Y-54736229D01*
X114503132Y-54736230D01*
X114547447Y-54802552D01*
X114613769Y-54846867D01*
X114613770Y-54846868D01*
X114672247Y-54858499D01*
X114672250Y-54858500D01*
X114672252Y-54858500D01*
X118427750Y-54858500D01*
X118427751Y-54858499D01*
X118442568Y-54855552D01*
X118486229Y-54846868D01*
X118486229Y-54846867D01*
X118486231Y-54846867D01*
X118552552Y-54802552D01*
X118596867Y-54736231D01*
X118596867Y-54736229D01*
X118596868Y-54736229D01*
X118608499Y-54677752D01*
X118608500Y-54677750D01*
X118608500Y-54234108D01*
X125299500Y-54234108D01*
X125299500Y-54365892D01*
X125311814Y-54411848D01*
X125333608Y-54493187D01*
X125366554Y-54550250D01*
X125399500Y-54607314D01*
X125492686Y-54700500D01*
X125606814Y-54766392D01*
X125734108Y-54800500D01*
X125734110Y-54800500D01*
X125824167Y-54800500D01*
X125853607Y-54809144D01*
X125883594Y-54815668D01*
X125888609Y-54819422D01*
X125891206Y-54820185D01*
X125911848Y-54836819D01*
X126063181Y-54988152D01*
X126096666Y-55049475D01*
X126099500Y-55075833D01*
X126099500Y-71341323D01*
X126079815Y-71408362D01*
X126063182Y-71429004D01*
X125999500Y-71492686D01*
X125933608Y-71606812D01*
X125899500Y-71734108D01*
X125899500Y-71865891D01*
X125933608Y-71993187D01*
X125966554Y-72050250D01*
X125999500Y-72107314D01*
X126092686Y-72200500D01*
X126206814Y-72266392D01*
X126334108Y-72300500D01*
X126334110Y-72300500D01*
X126465890Y-72300500D01*
X126465892Y-72300500D01*
X126593186Y-72266392D01*
X126707314Y-72200500D01*
X126800500Y-72107314D01*
X126866392Y-71993186D01*
X126900500Y-71865892D01*
X126900500Y-71734108D01*
X126866392Y-71606814D01*
X126800500Y-71492686D01*
X126736818Y-71429004D01*
X126703334Y-71367680D01*
X126700500Y-71341323D01*
X126700500Y-65404902D01*
X127534500Y-65404902D01*
X127534500Y-65595097D01*
X127571601Y-65781618D01*
X127571603Y-65781626D01*
X127644383Y-65957332D01*
X127644388Y-65957342D01*
X127750046Y-66115470D01*
X127750049Y-66115474D01*
X127884525Y-66249950D01*
X127884529Y-66249953D01*
X128042657Y-66355611D01*
X128042661Y-66355613D01*
X128042664Y-66355615D01*
X128218374Y-66428397D01*
X128404902Y-66465499D01*
X128404906Y-66465500D01*
X128404907Y-66465500D01*
X128595094Y-66465500D01*
X128595095Y-66465499D01*
X128781626Y-66428397D01*
X128957336Y-66355615D01*
X129115471Y-66249953D01*
X129249953Y-66115471D01*
X129355615Y-65957336D01*
X129428397Y-65781626D01*
X129465500Y-65595093D01*
X129465500Y-65404907D01*
X129428397Y-65218374D01*
X129355615Y-65042664D01*
X129355613Y-65042661D01*
X129355611Y-65042657D01*
X129249953Y-64884529D01*
X129249950Y-64884525D01*
X129115474Y-64750049D01*
X129115470Y-64750046D01*
X128957342Y-64644388D01*
X128957332Y-64644383D01*
X128781626Y-64571603D01*
X128781618Y-64571601D01*
X128595097Y-64534500D01*
X128595093Y-64534500D01*
X128404907Y-64534500D01*
X128404902Y-64534500D01*
X128218381Y-64571601D01*
X128218373Y-64571603D01*
X128042667Y-64644383D01*
X128042657Y-64644388D01*
X127884529Y-64750046D01*
X127884525Y-64750049D01*
X127750049Y-64884525D01*
X127750046Y-64884529D01*
X127644388Y-65042657D01*
X127644383Y-65042667D01*
X127571603Y-65218373D01*
X127571601Y-65218381D01*
X127534500Y-65404902D01*
X126700500Y-65404902D01*
X126700500Y-60815350D01*
X134484500Y-60815350D01*
X134484500Y-60984649D01*
X134510981Y-61151847D01*
X134563296Y-61312853D01*
X134640152Y-61463688D01*
X134739648Y-61600634D01*
X134739652Y-61600639D01*
X134859360Y-61720347D01*
X134859365Y-61720351D01*
X134961765Y-61794748D01*
X134996315Y-61819850D01*
X135061825Y-61853229D01*
X135147146Y-61896703D01*
X135147148Y-61896703D01*
X135147151Y-61896705D01*
X135233450Y-61924745D01*
X135308152Y-61949018D01*
X135475351Y-61975500D01*
X135475356Y-61975500D01*
X135644649Y-61975500D01*
X135811847Y-61949018D01*
X135972849Y-61896705D01*
X136123685Y-61819850D01*
X136260641Y-61720346D01*
X136380346Y-61600641D01*
X136479850Y-61463685D01*
X136556705Y-61312849D01*
X136609018Y-61151847D01*
X136625916Y-61045156D01*
X136635500Y-60984649D01*
X136635500Y-60815350D01*
X137024500Y-60815350D01*
X137024500Y-60984649D01*
X137050981Y-61151847D01*
X137103296Y-61312853D01*
X137180152Y-61463688D01*
X137279648Y-61600634D01*
X137279652Y-61600639D01*
X137399360Y-61720347D01*
X137399365Y-61720351D01*
X137501765Y-61794748D01*
X137536315Y-61819850D01*
X137601825Y-61853229D01*
X137687146Y-61896703D01*
X137687148Y-61896703D01*
X137687151Y-61896705D01*
X137773450Y-61924745D01*
X137848152Y-61949018D01*
X138015351Y-61975500D01*
X138015356Y-61975500D01*
X138184649Y-61975500D01*
X138351847Y-61949018D01*
X138512849Y-61896705D01*
X138663685Y-61819850D01*
X138800641Y-61720346D01*
X138920346Y-61600641D01*
X139019850Y-61463685D01*
X139096705Y-61312849D01*
X139149018Y-61151847D01*
X139165916Y-61045156D01*
X139175500Y-60984649D01*
X139175500Y-60815350D01*
X139149018Y-60648152D01*
X139096703Y-60487146D01*
X139034920Y-60365892D01*
X139019850Y-60336315D01*
X138945593Y-60234108D01*
X138920351Y-60199365D01*
X138920347Y-60199360D01*
X138800639Y-60079652D01*
X138800634Y-60079648D01*
X138663688Y-59980152D01*
X138663687Y-59980151D01*
X138663685Y-59980150D01*
X138616582Y-59956150D01*
X138512853Y-59903296D01*
X138351847Y-59850981D01*
X138184649Y-59824500D01*
X138184644Y-59824500D01*
X138015356Y-59824500D01*
X138015351Y-59824500D01*
X137848152Y-59850981D01*
X137687146Y-59903296D01*
X137536311Y-59980152D01*
X137399365Y-60079648D01*
X137399360Y-60079652D01*
X137279652Y-60199360D01*
X137279648Y-60199365D01*
X137180152Y-60336311D01*
X137103296Y-60487146D01*
X137050981Y-60648152D01*
X137024500Y-60815350D01*
X136635500Y-60815350D01*
X136609018Y-60648152D01*
X136556703Y-60487146D01*
X136494920Y-60365892D01*
X136479850Y-60336315D01*
X136405593Y-60234108D01*
X136380351Y-60199365D01*
X136380347Y-60199360D01*
X136260639Y-60079652D01*
X136260634Y-60079648D01*
X136123688Y-59980152D01*
X136123687Y-59980151D01*
X136123685Y-59980150D01*
X136076582Y-59956150D01*
X135972853Y-59903296D01*
X135811847Y-59850981D01*
X135644649Y-59824500D01*
X135644644Y-59824500D01*
X135475356Y-59824500D01*
X135475351Y-59824500D01*
X135308152Y-59850981D01*
X135147146Y-59903296D01*
X134996311Y-59980152D01*
X134859365Y-60079648D01*
X134859360Y-60079652D01*
X134739652Y-60199360D01*
X134739648Y-60199365D01*
X134640152Y-60336311D01*
X134563296Y-60487146D01*
X134510981Y-60648152D01*
X134484500Y-60815350D01*
X126700500Y-60815350D01*
X126700500Y-60234108D01*
X128599500Y-60234108D01*
X128599500Y-60365891D01*
X128633608Y-60493187D01*
X128648061Y-60518220D01*
X128699500Y-60607314D01*
X128792686Y-60700500D01*
X128891521Y-60757563D01*
X128906810Y-60766390D01*
X128906814Y-60766392D01*
X129034108Y-60800500D01*
X129034110Y-60800500D01*
X129165890Y-60800500D01*
X129165892Y-60800500D01*
X129293186Y-60766392D01*
X129407314Y-60700500D01*
X129500500Y-60607314D01*
X129566392Y-60493186D01*
X129600500Y-60365892D01*
X129600500Y-60275832D01*
X129620185Y-60208793D01*
X129636819Y-60188151D01*
X130072959Y-59752011D01*
X130640460Y-59184511D01*
X130680022Y-59115988D01*
X130700500Y-59039562D01*
X130700500Y-58960438D01*
X130700500Y-57975832D01*
X130720185Y-57908793D01*
X130736815Y-57888155D01*
X130988151Y-57636818D01*
X131049474Y-57603334D01*
X131075832Y-57600500D01*
X131165890Y-57600500D01*
X131165892Y-57600500D01*
X131293186Y-57566392D01*
X131407314Y-57500500D01*
X131473706Y-57434108D01*
X131799500Y-57434108D01*
X131799500Y-57565892D01*
X131812789Y-57615487D01*
X131833608Y-57693187D01*
X131860902Y-57740460D01*
X131899500Y-57807314D01*
X131992686Y-57900500D01*
X132106814Y-57966392D01*
X132234108Y-58000500D01*
X132234110Y-58000500D01*
X132365890Y-58000500D01*
X132365892Y-58000500D01*
X132493186Y-57966392D01*
X132607314Y-57900500D01*
X132670995Y-57836819D01*
X132732318Y-57803334D01*
X132758676Y-57800500D01*
X133239560Y-57800500D01*
X133239562Y-57800500D01*
X133315989Y-57780021D01*
X133384511Y-57740460D01*
X133440460Y-57684511D01*
X133588152Y-57536819D01*
X133649475Y-57503334D01*
X133675833Y-57500500D01*
X139444167Y-57500500D01*
X139511206Y-57520185D01*
X139531848Y-57536819D01*
X140303181Y-58308152D01*
X140336666Y-58369475D01*
X140339500Y-58395833D01*
X140339500Y-59700500D01*
X140319815Y-59767539D01*
X140267011Y-59813294D01*
X140215500Y-59824500D01*
X139745247Y-59824500D01*
X139686770Y-59836131D01*
X139686769Y-59836132D01*
X139620447Y-59880447D01*
X139576132Y-59946769D01*
X139576131Y-59946770D01*
X139564500Y-60005247D01*
X139564500Y-61794752D01*
X139576131Y-61853229D01*
X139576132Y-61853230D01*
X139620447Y-61919552D01*
X139686769Y-61963867D01*
X139686770Y-61963868D01*
X139745247Y-61975499D01*
X139745250Y-61975500D01*
X139745252Y-61975500D01*
X141534750Y-61975500D01*
X141534751Y-61975499D01*
X141549568Y-61972552D01*
X141593229Y-61963868D01*
X141593229Y-61963867D01*
X141593231Y-61963867D01*
X141659552Y-61919552D01*
X141703867Y-61853231D01*
X141703867Y-61853229D01*
X141703868Y-61853229D01*
X141715499Y-61794752D01*
X141715500Y-61794750D01*
X141715500Y-60005249D01*
X141715499Y-60005247D01*
X141703868Y-59946770D01*
X141703867Y-59946769D01*
X141659552Y-59880447D01*
X141593230Y-59836132D01*
X141593229Y-59836131D01*
X141534752Y-59824500D01*
X141534748Y-59824500D01*
X141064500Y-59824500D01*
X140997461Y-59804815D01*
X140951706Y-59752011D01*
X140940500Y-59700500D01*
X140940500Y-58180439D01*
X140936497Y-58165499D01*
X140920021Y-58104011D01*
X140920017Y-58104004D01*
X140880464Y-58035495D01*
X140880458Y-58035487D01*
X140557152Y-57712181D01*
X140523667Y-57650858D01*
X140528651Y-57581166D01*
X140570523Y-57525233D01*
X140635987Y-57500816D01*
X140644833Y-57500500D01*
X144996567Y-57500500D01*
X145063606Y-57520185D01*
X145109361Y-57572989D01*
X145111128Y-57577047D01*
X145144383Y-57657333D01*
X145144388Y-57657342D01*
X145250046Y-57815470D01*
X145250049Y-57815474D01*
X145384525Y-57949950D01*
X145384529Y-57949953D01*
X145542657Y-58055611D01*
X145542661Y-58055613D01*
X145542664Y-58055615D01*
X145718374Y-58128397D01*
X145904902Y-58165499D01*
X145904906Y-58165500D01*
X145904907Y-58165500D01*
X146095094Y-58165500D01*
X146095095Y-58165499D01*
X146281626Y-58128397D01*
X146457336Y-58055615D01*
X146615471Y-57949953D01*
X146749953Y-57815471D01*
X146855615Y-57657336D01*
X146928397Y-57481626D01*
X146965500Y-57295093D01*
X146965500Y-57104907D01*
X146928397Y-56918374D01*
X146855615Y-56742664D01*
X146855613Y-56742661D01*
X146855611Y-56742657D01*
X146749953Y-56584529D01*
X146749950Y-56584525D01*
X146615474Y-56450049D01*
X146615470Y-56450046D01*
X146457342Y-56344388D01*
X146457332Y-56344383D01*
X146281626Y-56271603D01*
X146281618Y-56271601D01*
X146095097Y-56234500D01*
X146095093Y-56234500D01*
X145904907Y-56234500D01*
X145904902Y-56234500D01*
X145718381Y-56271601D01*
X145718373Y-56271603D01*
X145542667Y-56344383D01*
X145542657Y-56344388D01*
X145384529Y-56450046D01*
X145384525Y-56450049D01*
X145250049Y-56584525D01*
X145250046Y-56584529D01*
X145144388Y-56742657D01*
X145144383Y-56742666D01*
X145111128Y-56822953D01*
X145067287Y-56877356D01*
X145000993Y-56899421D01*
X144996567Y-56899500D01*
X140624833Y-56899500D01*
X140557794Y-56879815D01*
X140512039Y-56827011D01*
X140502095Y-56757853D01*
X140531120Y-56694297D01*
X140537152Y-56687819D01*
X140640446Y-56584525D01*
X140840460Y-56384511D01*
X140880021Y-56315989D01*
X140900500Y-56239562D01*
X140900500Y-54159500D01*
X140920185Y-54092461D01*
X140972989Y-54046706D01*
X141024500Y-54035500D01*
X141494750Y-54035500D01*
X141494751Y-54035499D01*
X141509568Y-54032552D01*
X141553229Y-54023868D01*
X141553229Y-54023867D01*
X141553231Y-54023867D01*
X141619552Y-53979552D01*
X141663867Y-53913231D01*
X141663867Y-53913229D01*
X141663868Y-53913229D01*
X141675499Y-53854752D01*
X141675500Y-53854750D01*
X141675500Y-52065249D01*
X141675499Y-52065247D01*
X141663868Y-52006770D01*
X141663867Y-52006769D01*
X141619552Y-51940447D01*
X141553230Y-51896132D01*
X141553229Y-51896131D01*
X141494752Y-51884500D01*
X141494748Y-51884500D01*
X139705252Y-51884500D01*
X139705247Y-51884500D01*
X139646770Y-51896131D01*
X139646769Y-51896132D01*
X139580447Y-51940447D01*
X139536132Y-52006769D01*
X139536131Y-52006770D01*
X139524500Y-52065247D01*
X139524500Y-53854752D01*
X139536131Y-53913229D01*
X139536132Y-53913230D01*
X139580447Y-53979552D01*
X139646769Y-54023867D01*
X139646770Y-54023868D01*
X139705247Y-54035499D01*
X139705250Y-54035500D01*
X139705252Y-54035500D01*
X140175500Y-54035500D01*
X140242539Y-54055185D01*
X140288294Y-54107989D01*
X140299500Y-54159500D01*
X140299500Y-56024167D01*
X140279815Y-56091206D01*
X140263181Y-56111848D01*
X139511848Y-56863181D01*
X139450525Y-56896666D01*
X139424167Y-56899500D01*
X133460438Y-56899500D01*
X133422224Y-56909739D01*
X133384009Y-56919979D01*
X133354642Y-56936935D01*
X133339958Y-56945413D01*
X133332687Y-56949610D01*
X133315489Y-56959539D01*
X133315487Y-56959541D01*
X133111848Y-57163181D01*
X133050525Y-57196666D01*
X133024167Y-57199500D01*
X132758676Y-57199500D01*
X132691637Y-57179815D01*
X132670995Y-57163181D01*
X132607316Y-57099502D01*
X132607314Y-57099500D01*
X132550250Y-57066554D01*
X132493187Y-57033608D01*
X132429539Y-57016554D01*
X132365892Y-56999500D01*
X132234108Y-56999500D01*
X132106812Y-57033608D01*
X131992686Y-57099500D01*
X131992683Y-57099502D01*
X131899502Y-57192683D01*
X131899500Y-57192686D01*
X131833608Y-57306812D01*
X131806681Y-57407307D01*
X131799500Y-57434108D01*
X131473706Y-57434108D01*
X131500500Y-57407314D01*
X131513023Y-57385622D01*
X131525520Y-57363980D01*
X131558525Y-57306812D01*
X131566392Y-57293186D01*
X131600500Y-57165892D01*
X131600500Y-57034108D01*
X131566392Y-56906814D01*
X131500500Y-56792686D01*
X131407314Y-56699500D01*
X131350250Y-56666554D01*
X131293187Y-56633608D01*
X131229539Y-56616554D01*
X131165892Y-56599500D01*
X131034108Y-56599500D01*
X130906812Y-56633608D01*
X130792686Y-56699500D01*
X130792683Y-56699502D01*
X130699502Y-56792683D01*
X130699500Y-56792686D01*
X130633608Y-56906812D01*
X130599500Y-57034108D01*
X130599500Y-57124166D01*
X130579815Y-57191205D01*
X130563181Y-57211847D01*
X130215489Y-57559540D01*
X130159541Y-57615487D01*
X130159535Y-57615495D01*
X130119982Y-57684004D01*
X130119979Y-57684009D01*
X130099500Y-57760439D01*
X130099500Y-58824166D01*
X130079815Y-58891205D01*
X130063181Y-58911847D01*
X129211847Y-59763181D01*
X129150524Y-59796666D01*
X129124166Y-59799500D01*
X129034108Y-59799500D01*
X128906812Y-59833608D01*
X128792686Y-59899500D01*
X128792683Y-59899502D01*
X128699502Y-59992683D01*
X128699500Y-59992686D01*
X128633608Y-60106812D01*
X128599500Y-60234108D01*
X126700500Y-60234108D01*
X126700500Y-54860439D01*
X126700500Y-54860438D01*
X126680021Y-54784011D01*
X126669848Y-54766391D01*
X126640464Y-54715495D01*
X126640458Y-54715487D01*
X126336819Y-54411848D01*
X126303334Y-54350525D01*
X126300500Y-54324167D01*
X126300500Y-54234110D01*
X126300500Y-54234108D01*
X126266392Y-54106814D01*
X126200500Y-53992686D01*
X126107314Y-53899500D01*
X126050250Y-53866554D01*
X125993187Y-53833608D01*
X125929539Y-53816554D01*
X125865892Y-53799500D01*
X125734108Y-53799500D01*
X125606812Y-53833608D01*
X125492686Y-53899500D01*
X125492683Y-53899502D01*
X125399502Y-53992683D01*
X125399500Y-53992686D01*
X125333608Y-54106812D01*
X125333293Y-54107989D01*
X125299500Y-54234108D01*
X118608500Y-54234108D01*
X118608500Y-52875350D01*
X134444500Y-52875350D01*
X134444500Y-53044649D01*
X134470981Y-53211847D01*
X134523296Y-53372853D01*
X134600152Y-53523688D01*
X134699648Y-53660634D01*
X134699652Y-53660639D01*
X134819360Y-53780347D01*
X134819365Y-53780351D01*
X134845722Y-53799500D01*
X134956315Y-53879850D01*
X135021825Y-53913229D01*
X135107146Y-53956703D01*
X135107148Y-53956703D01*
X135107151Y-53956705D01*
X135193450Y-53984745D01*
X135268152Y-54009018D01*
X135435351Y-54035500D01*
X135435356Y-54035500D01*
X135604649Y-54035500D01*
X135771847Y-54009018D01*
X135822111Y-53992686D01*
X135932849Y-53956705D01*
X136083685Y-53879850D01*
X136220641Y-53780346D01*
X136340346Y-53660641D01*
X136439850Y-53523685D01*
X136516705Y-53372849D01*
X136569018Y-53211847D01*
X136595500Y-53044649D01*
X136595500Y-52875350D01*
X136984500Y-52875350D01*
X136984500Y-53044649D01*
X137010981Y-53211847D01*
X137063296Y-53372853D01*
X137140152Y-53523688D01*
X137239648Y-53660634D01*
X137239652Y-53660639D01*
X137359360Y-53780347D01*
X137359365Y-53780351D01*
X137385722Y-53799500D01*
X137496315Y-53879850D01*
X137561825Y-53913229D01*
X137647146Y-53956703D01*
X137647148Y-53956703D01*
X137647151Y-53956705D01*
X137733450Y-53984745D01*
X137808152Y-54009018D01*
X137975351Y-54035500D01*
X137975356Y-54035500D01*
X138144649Y-54035500D01*
X138311847Y-54009018D01*
X138362111Y-53992686D01*
X138472849Y-53956705D01*
X138623685Y-53879850D01*
X138760641Y-53780346D01*
X138880346Y-53660641D01*
X138979850Y-53523685D01*
X139056705Y-53372849D01*
X139109018Y-53211847D01*
X139135500Y-53044649D01*
X139135500Y-52875350D01*
X139109018Y-52708152D01*
X139056703Y-52547146D01*
X139013920Y-52463181D01*
X138979850Y-52396315D01*
X138967137Y-52378817D01*
X138880351Y-52259365D01*
X138880347Y-52259360D01*
X138760639Y-52139652D01*
X138760634Y-52139648D01*
X138623688Y-52040152D01*
X138623687Y-52040151D01*
X138623685Y-52040150D01*
X138576582Y-52016150D01*
X138472853Y-51963296D01*
X138311847Y-51910981D01*
X138144649Y-51884500D01*
X138144644Y-51884500D01*
X137975356Y-51884500D01*
X137975351Y-51884500D01*
X137808152Y-51910981D01*
X137647146Y-51963296D01*
X137496311Y-52040152D01*
X137359365Y-52139648D01*
X137359360Y-52139652D01*
X137239652Y-52259360D01*
X137239648Y-52259365D01*
X137140152Y-52396311D01*
X137063296Y-52547146D01*
X137010981Y-52708152D01*
X136984500Y-52875350D01*
X136595500Y-52875350D01*
X136569018Y-52708152D01*
X136516703Y-52547146D01*
X136473920Y-52463181D01*
X136439850Y-52396315D01*
X136427137Y-52378817D01*
X136340351Y-52259365D01*
X136340347Y-52259360D01*
X136220639Y-52139652D01*
X136220634Y-52139648D01*
X136083688Y-52040152D01*
X136083687Y-52040151D01*
X136083685Y-52040150D01*
X136036582Y-52016150D01*
X135932853Y-51963296D01*
X135771847Y-51910981D01*
X135604649Y-51884500D01*
X135604644Y-51884500D01*
X135435356Y-51884500D01*
X135435351Y-51884500D01*
X135268152Y-51910981D01*
X135107146Y-51963296D01*
X134956311Y-52040152D01*
X134819365Y-52139648D01*
X134819360Y-52139652D01*
X134699652Y-52259360D01*
X134699648Y-52259365D01*
X134600152Y-52396311D01*
X134523296Y-52547146D01*
X134470981Y-52708152D01*
X134444500Y-52875350D01*
X118608500Y-52875350D01*
X118608500Y-50922249D01*
X118608499Y-50922247D01*
X118596868Y-50863770D01*
X118596867Y-50863769D01*
X118552552Y-50797447D01*
X118486230Y-50753132D01*
X118486229Y-50753131D01*
X118427752Y-50741500D01*
X118427748Y-50741500D01*
X114672252Y-50741500D01*
X114672247Y-50741500D01*
X114613770Y-50753131D01*
X114613769Y-50753132D01*
X114547447Y-50797447D01*
X114503132Y-50863769D01*
X114503131Y-50863770D01*
X114491500Y-50922247D01*
X102500500Y-50922247D01*
X102500500Y-49399999D01*
X108875884Y-49399999D01*
X108875885Y-49400000D01*
X109833012Y-49400000D01*
X109815795Y-49409940D01*
X109759940Y-49465795D01*
X109720444Y-49534204D01*
X109700000Y-49610504D01*
X109700000Y-49689496D01*
X109720444Y-49765796D01*
X109759940Y-49834205D01*
X109815795Y-49890060D01*
X109833012Y-49900000D01*
X108875885Y-49900000D01*
X108877085Y-49907584D01*
X108930591Y-50072255D01*
X109009195Y-50226524D01*
X109110967Y-50366602D01*
X109233397Y-50489032D01*
X109373475Y-50590804D01*
X109527742Y-50669408D01*
X109692415Y-50722914D01*
X109863429Y-50750000D01*
X110300000Y-50750000D01*
X110300000Y-49950000D01*
X110800000Y-49950000D01*
X110800000Y-50750000D01*
X111236571Y-50750000D01*
X111407584Y-50722914D01*
X111572257Y-50669408D01*
X111726524Y-50590804D01*
X111866602Y-50489032D01*
X111989032Y-50366602D01*
X112090804Y-50226524D01*
X112169408Y-50072255D01*
X112222914Y-49907584D01*
X112224115Y-49900000D01*
X111266988Y-49900000D01*
X111284205Y-49890060D01*
X111340060Y-49834205D01*
X111379556Y-49765796D01*
X111400000Y-49689496D01*
X111400000Y-49610504D01*
X111379556Y-49534204D01*
X111340060Y-49465795D01*
X111284205Y-49409940D01*
X111266988Y-49400000D01*
X112224115Y-49400000D01*
X112224115Y-49399999D01*
X112222914Y-49392415D01*
X112169408Y-49227744D01*
X112090804Y-49073475D01*
X111989032Y-48933397D01*
X111866602Y-48810967D01*
X111726524Y-48709195D01*
X111572257Y-48630591D01*
X111407584Y-48577085D01*
X111236571Y-48550000D01*
X110800000Y-48550000D01*
X110800000Y-49350000D01*
X110300000Y-49350000D01*
X110300000Y-48550000D01*
X109863429Y-48550000D01*
X109692415Y-48577085D01*
X109527742Y-48630591D01*
X109373475Y-48709195D01*
X109233397Y-48810967D01*
X109110967Y-48933397D01*
X109009195Y-49073475D01*
X108930591Y-49227744D01*
X108877085Y-49392415D01*
X108875884Y-49399999D01*
X102500500Y-49399999D01*
X102500500Y-44599999D01*
X108875884Y-44599999D01*
X108875885Y-44600000D01*
X109833012Y-44600000D01*
X109815795Y-44609940D01*
X109759940Y-44665795D01*
X109720444Y-44734204D01*
X109700000Y-44810504D01*
X109700000Y-44889496D01*
X109720444Y-44965796D01*
X109759940Y-45034205D01*
X109815795Y-45090060D01*
X109833012Y-45100000D01*
X108875885Y-45100000D01*
X108877085Y-45107584D01*
X108930591Y-45272255D01*
X109009195Y-45426524D01*
X109110967Y-45566602D01*
X109233397Y-45689032D01*
X109373475Y-45790804D01*
X109527742Y-45869408D01*
X109692415Y-45922914D01*
X109863429Y-45950000D01*
X110300000Y-45950000D01*
X110300000Y-45150000D01*
X110800000Y-45150000D01*
X110800000Y-45950000D01*
X111236571Y-45950000D01*
X111407584Y-45922914D01*
X111572257Y-45869408D01*
X111726524Y-45790804D01*
X111866602Y-45689032D01*
X111989032Y-45566602D01*
X112090804Y-45426524D01*
X112169409Y-45272254D01*
X112173242Y-45260460D01*
X112222914Y-45107584D01*
X112224115Y-45100000D01*
X111266988Y-45100000D01*
X111284205Y-45090060D01*
X111340060Y-45034205D01*
X111379556Y-44965796D01*
X111400000Y-44889496D01*
X111400000Y-44810504D01*
X111379556Y-44734204D01*
X111340060Y-44665795D01*
X111284205Y-44609940D01*
X111266988Y-44600000D01*
X112224115Y-44600000D01*
X112224115Y-44599999D01*
X112222914Y-44592415D01*
X112169408Y-44427744D01*
X112090804Y-44273475D01*
X111989032Y-44133397D01*
X111866602Y-44010967D01*
X111726524Y-43909195D01*
X111572257Y-43830591D01*
X111407584Y-43777085D01*
X111236571Y-43750000D01*
X110800000Y-43750000D01*
X110800000Y-44550000D01*
X110300000Y-44550000D01*
X110300000Y-43750000D01*
X109863429Y-43750000D01*
X109692415Y-43777085D01*
X109527742Y-43830591D01*
X109373475Y-43909195D01*
X109233397Y-44010967D01*
X109110967Y-44133397D01*
X109009195Y-44273475D01*
X108930591Y-44427744D01*
X108877085Y-44592415D01*
X108875884Y-44599999D01*
X102500500Y-44599999D01*
X102500500Y-41545441D01*
X114192000Y-41545441D01*
X114192000Y-41854558D01*
X114232346Y-42161001D01*
X114232348Y-42161012D01*
X114312347Y-42459577D01*
X114430634Y-42745147D01*
X114430638Y-42745157D01*
X114585187Y-43012844D01*
X114714751Y-43181694D01*
X115434728Y-42461716D01*
X115520278Y-42579466D01*
X115670534Y-42729722D01*
X115788281Y-42815270D01*
X115068304Y-43535247D01*
X115237159Y-43664815D01*
X115504842Y-43819361D01*
X115504852Y-43819365D01*
X115790422Y-43937652D01*
X116088987Y-44017651D01*
X116088998Y-44017653D01*
X116395441Y-44057999D01*
X116395456Y-44058000D01*
X116704544Y-44058000D01*
X116704558Y-44057999D01*
X117011001Y-44017653D01*
X117011012Y-44017651D01*
X117309577Y-43937652D01*
X117342823Y-43923881D01*
X142447500Y-43923881D01*
X142447500Y-44176118D01*
X142486959Y-44425253D01*
X142564906Y-44665150D01*
X142679421Y-44889897D01*
X142753957Y-44992487D01*
X142753958Y-44992488D01*
X143383902Y-44362544D01*
X143398652Y-44398153D01*
X143479088Y-44518535D01*
X143581465Y-44620912D01*
X143701847Y-44701348D01*
X143737454Y-44716097D01*
X143107510Y-45346040D01*
X143107511Y-45346041D01*
X143210103Y-45420578D01*
X143434849Y-45535093D01*
X143674746Y-45613040D01*
X143923882Y-45652500D01*
X144176118Y-45652500D01*
X144425253Y-45613040D01*
X144665150Y-45535093D01*
X144889893Y-45420580D01*
X144992487Y-45346040D01*
X144992488Y-45346040D01*
X144362544Y-44716097D01*
X144398153Y-44701348D01*
X144518535Y-44620912D01*
X144620912Y-44518535D01*
X144701348Y-44398153D01*
X144716097Y-44362545D01*
X145346040Y-44992488D01*
X145346040Y-44992487D01*
X145420580Y-44889893D01*
X145535093Y-44665150D01*
X145613040Y-44425253D01*
X145652500Y-44176118D01*
X145652500Y-43923881D01*
X145613040Y-43674746D01*
X145535093Y-43434849D01*
X145420578Y-43210103D01*
X145346041Y-43107511D01*
X145346040Y-43107510D01*
X144716097Y-43737454D01*
X144701348Y-43701847D01*
X144620912Y-43581465D01*
X144518535Y-43479088D01*
X144398153Y-43398652D01*
X144362543Y-43383902D01*
X144992488Y-42753958D01*
X144992487Y-42753957D01*
X144889897Y-42679421D01*
X144665150Y-42564906D01*
X144425253Y-42486959D01*
X144176118Y-42447500D01*
X143923882Y-42447500D01*
X143674746Y-42486959D01*
X143434849Y-42564906D01*
X143210108Y-42679418D01*
X143107511Y-42753958D01*
X143737455Y-43383902D01*
X143701847Y-43398652D01*
X143581465Y-43479088D01*
X143479088Y-43581465D01*
X143398652Y-43701847D01*
X143383902Y-43737455D01*
X142753958Y-43107511D01*
X142679418Y-43210108D01*
X142564906Y-43434849D01*
X142486959Y-43674746D01*
X142447500Y-43923881D01*
X117342823Y-43923881D01*
X117595147Y-43819365D01*
X117595157Y-43819361D01*
X117608562Y-43811622D01*
X117862845Y-43664811D01*
X118031694Y-43535247D01*
X117311717Y-42815270D01*
X117429466Y-42729722D01*
X117579722Y-42579466D01*
X117665270Y-42461717D01*
X118385247Y-43181694D01*
X118514811Y-43012845D01*
X118669363Y-42745152D01*
X118787652Y-42459577D01*
X118867651Y-42161012D01*
X118867653Y-42161001D01*
X118907999Y-41854558D01*
X118908000Y-41854544D01*
X118908000Y-41545455D01*
X118907999Y-41545441D01*
X118867653Y-41238998D01*
X118867651Y-41238987D01*
X118787652Y-40940422D01*
X118669365Y-40654852D01*
X118669361Y-40654842D01*
X118514815Y-40387159D01*
X118385247Y-40218304D01*
X117665270Y-40938281D01*
X117579722Y-40820534D01*
X117429466Y-40670278D01*
X117311716Y-40584728D01*
X118031694Y-39864751D01*
X118031694Y-39864750D01*
X117862844Y-39735187D01*
X117595157Y-39580638D01*
X117595147Y-39580634D01*
X117309577Y-39462347D01*
X117011012Y-39382348D01*
X117011001Y-39382346D01*
X116704558Y-39342000D01*
X116395441Y-39342000D01*
X116088998Y-39382346D01*
X116088987Y-39382348D01*
X115790422Y-39462347D01*
X115504852Y-39580634D01*
X115504842Y-39580638D01*
X115237155Y-39735187D01*
X115068304Y-39864750D01*
X115068304Y-39864751D01*
X115788282Y-40584729D01*
X115670534Y-40670278D01*
X115520278Y-40820534D01*
X115434729Y-40938282D01*
X114714751Y-40218304D01*
X114714750Y-40218304D01*
X114585187Y-40387155D01*
X114430638Y-40654842D01*
X114430634Y-40654852D01*
X114312347Y-40940422D01*
X114232348Y-41238987D01*
X114232346Y-41238998D01*
X114192000Y-41545441D01*
X102500500Y-41545441D01*
X102500500Y-32622247D01*
X114491500Y-32622247D01*
X114491500Y-36377752D01*
X114503131Y-36436229D01*
X114503132Y-36436230D01*
X114547447Y-36502552D01*
X114613769Y-36546867D01*
X114613770Y-36546868D01*
X114672247Y-36558499D01*
X114672250Y-36558500D01*
X114672252Y-36558500D01*
X118427750Y-36558500D01*
X118427751Y-36558499D01*
X118442568Y-36555552D01*
X118486229Y-36546868D01*
X118486229Y-36546867D01*
X118486231Y-36546867D01*
X118552552Y-36502552D01*
X118596867Y-36436231D01*
X118596867Y-36436229D01*
X118596868Y-36436229D01*
X118608499Y-36377752D01*
X118608500Y-36377750D01*
X118608500Y-36347446D01*
X142747000Y-36347446D01*
X142747000Y-36552553D01*
X142775820Y-36734511D01*
X142779084Y-36755120D01*
X142827258Y-36903384D01*
X142842464Y-36950182D01*
X142896879Y-37056976D01*
X142931868Y-37125646D01*
X142935577Y-37132924D01*
X143056121Y-37298840D01*
X143056125Y-37298845D01*
X143201154Y-37443874D01*
X143201159Y-37443878D01*
X143312815Y-37525000D01*
X143367079Y-37564425D01*
X143469282Y-37616500D01*
X143549817Y-37657535D01*
X143549819Y-37657535D01*
X143549822Y-37657537D01*
X143744880Y-37720916D01*
X143846166Y-37736958D01*
X143947447Y-37753000D01*
X143947452Y-37753000D01*
X144152553Y-37753000D01*
X144244626Y-37738416D01*
X144355120Y-37720916D01*
X144550178Y-37657537D01*
X144656977Y-37603119D01*
X144725646Y-37590224D01*
X144790387Y-37616500D01*
X144800953Y-37625924D01*
X149163181Y-41988152D01*
X149196666Y-42049475D01*
X149199500Y-42075833D01*
X149199500Y-104824166D01*
X149179815Y-104891205D01*
X149163181Y-104911847D01*
X148887680Y-105187347D01*
X148826357Y-105220832D01*
X148756665Y-105215848D01*
X148712318Y-105187347D01*
X147122019Y-103597048D01*
X147088534Y-103535725D01*
X147093518Y-103466033D01*
X147095140Y-103461913D01*
X147128395Y-103381631D01*
X147128395Y-103381630D01*
X147128397Y-103381626D01*
X147165500Y-103195093D01*
X147165500Y-103004907D01*
X147128397Y-102818374D01*
X147055615Y-102642664D01*
X147055613Y-102642661D01*
X147055611Y-102642657D01*
X146949953Y-102484529D01*
X146949950Y-102484525D01*
X146815474Y-102350049D01*
X146815470Y-102350046D01*
X146657342Y-102244388D01*
X146657332Y-102244383D01*
X146481626Y-102171603D01*
X146481618Y-102171601D01*
X146295097Y-102134500D01*
X146295093Y-102134500D01*
X146104907Y-102134500D01*
X146104902Y-102134500D01*
X145918381Y-102171601D01*
X145918373Y-102171603D01*
X145742667Y-102244383D01*
X145742657Y-102244388D01*
X145584529Y-102350046D01*
X145584525Y-102350049D01*
X145450049Y-102484525D01*
X145450046Y-102484529D01*
X145344388Y-102642657D01*
X145344383Y-102642667D01*
X145271603Y-102818373D01*
X145271601Y-102818381D01*
X145234500Y-103004902D01*
X145234500Y-103195097D01*
X145271601Y-103381618D01*
X145271603Y-103381626D01*
X145344383Y-103557332D01*
X145344388Y-103557342D01*
X145450046Y-103715470D01*
X145450049Y-103715474D01*
X145584525Y-103849950D01*
X145584529Y-103849953D01*
X145742657Y-103955611D01*
X145742661Y-103955613D01*
X145742664Y-103955615D01*
X145918374Y-104028397D01*
X146104902Y-104065499D01*
X146104906Y-104065500D01*
X146104907Y-104065500D01*
X146295094Y-104065500D01*
X146295095Y-104065499D01*
X146481626Y-104028397D01*
X146497024Y-104022019D01*
X146561913Y-103995140D01*
X146631382Y-103987670D01*
X146693862Y-104018944D01*
X146697048Y-104022019D01*
X148145926Y-105470897D01*
X148179411Y-105532220D01*
X148174427Y-105601912D01*
X148145927Y-105646258D01*
X148099503Y-105692682D01*
X148099500Y-105692686D01*
X148033608Y-105806812D01*
X147999500Y-105934108D01*
X147999500Y-106065891D01*
X148033608Y-106193187D01*
X148066554Y-106250250D01*
X148099500Y-106307314D01*
X148192686Y-106400500D01*
X148306814Y-106466392D01*
X148434108Y-106500500D01*
X148434110Y-106500500D01*
X148565890Y-106500500D01*
X148565892Y-106500500D01*
X148693186Y-106466392D01*
X148807314Y-106400500D01*
X148900500Y-106307314D01*
X148966392Y-106193186D01*
X149000500Y-106065892D01*
X149000500Y-105975832D01*
X149020185Y-105908793D01*
X149036819Y-105888151D01*
X149329405Y-105595565D01*
X149740460Y-105184511D01*
X149780022Y-105115988D01*
X149800500Y-105039562D01*
X149800500Y-104960438D01*
X149800500Y-100934108D01*
X154499500Y-100934108D01*
X154499500Y-101065891D01*
X154533608Y-101193187D01*
X154560902Y-101240460D01*
X154599500Y-101307314D01*
X154692686Y-101400500D01*
X154806814Y-101466392D01*
X154934108Y-101500500D01*
X154934110Y-101500500D01*
X155065890Y-101500500D01*
X155065892Y-101500500D01*
X155193186Y-101466392D01*
X155307314Y-101400500D01*
X155370995Y-101336819D01*
X155432318Y-101303334D01*
X155458676Y-101300500D01*
X158539560Y-101300500D01*
X158539562Y-101300500D01*
X158615989Y-101280021D01*
X158684511Y-101240460D01*
X158740460Y-101184511D01*
X172640461Y-87284510D01*
X172680022Y-87215988D01*
X172700501Y-87139561D01*
X172700501Y-75604902D01*
X183834500Y-75604902D01*
X183834500Y-75795097D01*
X183871601Y-75981618D01*
X183871603Y-75981626D01*
X183944383Y-76157332D01*
X183944388Y-76157342D01*
X184050046Y-76315470D01*
X184050049Y-76315474D01*
X184184525Y-76449950D01*
X184184529Y-76449953D01*
X184342657Y-76555611D01*
X184342661Y-76555613D01*
X184342664Y-76555615D01*
X184518374Y-76628397D01*
X184704902Y-76665499D01*
X184704906Y-76665500D01*
X184704907Y-76665500D01*
X184895094Y-76665500D01*
X184895095Y-76665499D01*
X185081626Y-76628397D01*
X185257336Y-76555615D01*
X185415471Y-76449953D01*
X185549953Y-76315471D01*
X185655615Y-76157336D01*
X185728397Y-75981626D01*
X185765500Y-75795093D01*
X185765500Y-75604907D01*
X185728397Y-75418374D01*
X185655615Y-75242664D01*
X185655613Y-75242661D01*
X185655611Y-75242657D01*
X185549953Y-75084529D01*
X185549950Y-75084525D01*
X185415474Y-74950049D01*
X185415470Y-74950046D01*
X185257342Y-74844388D01*
X185257332Y-74844383D01*
X185081626Y-74771603D01*
X185081618Y-74771601D01*
X184895097Y-74734500D01*
X184895093Y-74734500D01*
X184704907Y-74734500D01*
X184704902Y-74734500D01*
X184518381Y-74771601D01*
X184518373Y-74771603D01*
X184342667Y-74844383D01*
X184342657Y-74844388D01*
X184184529Y-74950046D01*
X184184525Y-74950049D01*
X184050049Y-75084525D01*
X184050046Y-75084529D01*
X183944388Y-75242657D01*
X183944383Y-75242667D01*
X183871603Y-75418373D01*
X183871601Y-75418381D01*
X183834500Y-75604902D01*
X172700501Y-75604902D01*
X172700501Y-75190548D01*
X172720186Y-75123509D01*
X172736820Y-75102867D01*
X172755162Y-75084525D01*
X172800501Y-75039186D01*
X172866393Y-74925058D01*
X172900501Y-74797764D01*
X172900501Y-74665980D01*
X172866393Y-74538686D01*
X172800501Y-74424558D01*
X172707315Y-74331372D01*
X172640342Y-74292705D01*
X172593188Y-74265480D01*
X172529540Y-74248426D01*
X172465893Y-74231372D01*
X172334109Y-74231372D01*
X172206813Y-74265480D01*
X172092687Y-74331372D01*
X172092684Y-74331374D01*
X171999503Y-74424555D01*
X171999501Y-74424558D01*
X171933609Y-74538684D01*
X171902405Y-74655143D01*
X171899501Y-74665980D01*
X171899501Y-74797764D01*
X171911992Y-74844383D01*
X171933609Y-74925059D01*
X171948297Y-74950499D01*
X171999501Y-75039186D01*
X171999503Y-75039188D01*
X172063182Y-75102867D01*
X172096667Y-75164190D01*
X172099501Y-75190548D01*
X172099501Y-86924166D01*
X172079816Y-86991205D01*
X172063182Y-87011847D01*
X158411848Y-100663181D01*
X158350525Y-100696666D01*
X158324167Y-100699500D01*
X155458676Y-100699500D01*
X155391637Y-100679815D01*
X155370995Y-100663181D01*
X155307316Y-100599502D01*
X155307314Y-100599500D01*
X155250250Y-100566554D01*
X155193187Y-100533608D01*
X155129539Y-100516554D01*
X155065892Y-100499500D01*
X154934108Y-100499500D01*
X154806812Y-100533608D01*
X154692686Y-100599500D01*
X154692683Y-100599502D01*
X154599502Y-100692683D01*
X154599500Y-100692686D01*
X154533608Y-100806812D01*
X154499500Y-100934108D01*
X149800500Y-100934108D01*
X149800500Y-94904902D01*
X152034500Y-94904902D01*
X152034500Y-95095097D01*
X152071601Y-95281618D01*
X152071603Y-95281626D01*
X152144383Y-95457332D01*
X152144388Y-95457342D01*
X152250046Y-95615470D01*
X152250049Y-95615474D01*
X152384525Y-95749950D01*
X152384529Y-95749953D01*
X152542657Y-95855611D01*
X152542661Y-95855613D01*
X152542664Y-95855615D01*
X152718374Y-95928397D01*
X152904902Y-95965499D01*
X152904906Y-95965500D01*
X152904907Y-95965500D01*
X153095094Y-95965500D01*
X153095095Y-95965499D01*
X153281626Y-95928397D01*
X153457336Y-95855615D01*
X153615471Y-95749953D01*
X153749953Y-95615471D01*
X153855615Y-95457336D01*
X153928397Y-95281626D01*
X153965500Y-95095093D01*
X153965500Y-94904907D01*
X153928397Y-94718374D01*
X153855615Y-94542664D01*
X153855613Y-94542661D01*
X153855611Y-94542657D01*
X153749953Y-94384529D01*
X153749950Y-94384525D01*
X153615474Y-94250049D01*
X153615470Y-94250046D01*
X153457342Y-94144388D01*
X153457332Y-94144383D01*
X153281626Y-94071603D01*
X153281618Y-94071601D01*
X153095097Y-94034500D01*
X153095093Y-94034500D01*
X152904907Y-94034500D01*
X152904902Y-94034500D01*
X152718381Y-94071601D01*
X152718373Y-94071603D01*
X152542667Y-94144383D01*
X152542657Y-94144388D01*
X152384529Y-94250046D01*
X152384525Y-94250049D01*
X152250049Y-94384525D01*
X152250046Y-94384529D01*
X152144388Y-94542657D01*
X152144383Y-94542667D01*
X152071603Y-94718373D01*
X152071601Y-94718381D01*
X152034500Y-94904902D01*
X149800500Y-94904902D01*
X149800500Y-88856379D01*
X151549500Y-88856379D01*
X151549500Y-89043620D01*
X151586025Y-89227243D01*
X151586027Y-89227251D01*
X151657676Y-89400228D01*
X151657681Y-89400237D01*
X151761697Y-89555907D01*
X151761700Y-89555911D01*
X151894088Y-89688299D01*
X151894092Y-89688302D01*
X152049762Y-89792318D01*
X152049768Y-89792321D01*
X152049769Y-89792322D01*
X152222749Y-89863973D01*
X152406379Y-89900499D01*
X152406383Y-89900500D01*
X152406384Y-89900500D01*
X152593617Y-89900500D01*
X152593618Y-89900499D01*
X152777251Y-89863973D01*
X152950231Y-89792322D01*
X153105908Y-89688302D01*
X153238302Y-89555908D01*
X153342322Y-89400231D01*
X153413973Y-89227251D01*
X153450500Y-89043616D01*
X153450500Y-88856384D01*
X153450499Y-88856381D01*
X153450499Y-88856379D01*
X154049500Y-88856379D01*
X154049500Y-89043620D01*
X154086025Y-89227243D01*
X154086027Y-89227251D01*
X154157676Y-89400228D01*
X154157681Y-89400237D01*
X154261697Y-89555907D01*
X154261700Y-89555911D01*
X154394088Y-89688299D01*
X154394092Y-89688302D01*
X154549762Y-89792318D01*
X154549768Y-89792321D01*
X154549769Y-89792322D01*
X154722749Y-89863973D01*
X154906379Y-89900499D01*
X154906383Y-89900500D01*
X154906384Y-89900500D01*
X155093617Y-89900500D01*
X155093618Y-89900499D01*
X155277251Y-89863973D01*
X155450231Y-89792322D01*
X155605908Y-89688302D01*
X155738302Y-89555908D01*
X155842322Y-89400231D01*
X155913973Y-89227251D01*
X155950500Y-89043616D01*
X155950500Y-88856384D01*
X155950500Y-88856383D01*
X155950500Y-88856381D01*
X155949552Y-88851617D01*
X156250000Y-88851617D01*
X156250000Y-89048382D01*
X156280778Y-89242705D01*
X156341581Y-89429835D01*
X156430905Y-89605145D01*
X156456319Y-89640125D01*
X156456320Y-89640125D01*
X157008871Y-89087574D01*
X157024755Y-89146853D01*
X157091898Y-89263147D01*
X157186853Y-89358102D01*
X157303147Y-89425245D01*
X157362424Y-89441128D01*
X156809873Y-89993677D01*
X156809873Y-89993678D01*
X156844858Y-90019096D01*
X157020164Y-90108418D01*
X157207294Y-90169221D01*
X157401618Y-90200000D01*
X157598382Y-90200000D01*
X157792705Y-90169221D01*
X157979835Y-90108418D01*
X158155143Y-90019095D01*
X158190125Y-89993678D01*
X158190126Y-89993678D01*
X157637575Y-89441127D01*
X157696853Y-89425245D01*
X157813147Y-89358102D01*
X157908102Y-89263147D01*
X157975245Y-89146853D01*
X157991127Y-89087575D01*
X158543678Y-89640126D01*
X158543678Y-89640125D01*
X158569097Y-89605141D01*
X158639515Y-89466937D01*
X158687489Y-89416140D01*
X158755310Y-89399345D01*
X158821445Y-89421882D01*
X158860485Y-89466936D01*
X158930905Y-89605145D01*
X158956319Y-89640125D01*
X158956320Y-89640125D01*
X159508871Y-89087574D01*
X159524755Y-89146853D01*
X159591898Y-89263147D01*
X159686853Y-89358102D01*
X159803147Y-89425245D01*
X159862424Y-89441128D01*
X159309873Y-89993677D01*
X159309873Y-89993678D01*
X159344858Y-90019096D01*
X159520164Y-90108418D01*
X159707294Y-90169221D01*
X159901618Y-90200000D01*
X160098382Y-90200000D01*
X160292705Y-90169221D01*
X160479835Y-90108418D01*
X160655143Y-90019095D01*
X160690125Y-89993678D01*
X160690126Y-89993678D01*
X160137575Y-89441127D01*
X160196853Y-89425245D01*
X160313147Y-89358102D01*
X160408102Y-89263147D01*
X160475245Y-89146853D01*
X160491127Y-89087575D01*
X161043678Y-89640126D01*
X161043678Y-89640125D01*
X161069097Y-89605141D01*
X161139515Y-89466937D01*
X161187489Y-89416140D01*
X161255310Y-89399345D01*
X161321445Y-89421882D01*
X161360485Y-89466936D01*
X161430905Y-89605145D01*
X161456319Y-89640125D01*
X161456320Y-89640125D01*
X162008871Y-89087574D01*
X162024755Y-89146853D01*
X162091898Y-89263147D01*
X162186853Y-89358102D01*
X162303147Y-89425245D01*
X162362424Y-89441128D01*
X161809873Y-89993677D01*
X161809873Y-89993678D01*
X161844858Y-90019096D01*
X162020164Y-90108418D01*
X162207294Y-90169221D01*
X162401618Y-90200000D01*
X162598382Y-90200000D01*
X162792705Y-90169221D01*
X162979835Y-90108418D01*
X163155143Y-90019095D01*
X163190125Y-89993678D01*
X163190126Y-89993678D01*
X162637575Y-89441127D01*
X162696853Y-89425245D01*
X162813147Y-89358102D01*
X162908102Y-89263147D01*
X162975245Y-89146853D01*
X162991127Y-89087575D01*
X163543678Y-89640126D01*
X163543678Y-89640125D01*
X163569097Y-89605141D01*
X163639515Y-89466937D01*
X163687489Y-89416140D01*
X163755310Y-89399345D01*
X163821445Y-89421882D01*
X163860485Y-89466936D01*
X163930905Y-89605145D01*
X163956319Y-89640125D01*
X163956320Y-89640125D01*
X164508871Y-89087574D01*
X164524755Y-89146853D01*
X164591898Y-89263147D01*
X164686853Y-89358102D01*
X164803147Y-89425245D01*
X164862424Y-89441128D01*
X164309873Y-89993677D01*
X164309873Y-89993678D01*
X164344858Y-90019096D01*
X164520164Y-90108418D01*
X164707294Y-90169221D01*
X164901618Y-90200000D01*
X165098382Y-90200000D01*
X165292705Y-90169221D01*
X165479835Y-90108418D01*
X165655143Y-90019095D01*
X165690125Y-89993678D01*
X165690126Y-89993678D01*
X165137575Y-89441127D01*
X165196853Y-89425245D01*
X165313147Y-89358102D01*
X165408102Y-89263147D01*
X165475245Y-89146853D01*
X165491127Y-89087575D01*
X166043678Y-89640126D01*
X166043678Y-89640125D01*
X166069095Y-89605143D01*
X166158418Y-89429835D01*
X166219221Y-89242705D01*
X166250000Y-89048382D01*
X166250000Y-88851617D01*
X166219221Y-88657294D01*
X166158418Y-88470164D01*
X166069096Y-88294858D01*
X166043678Y-88259873D01*
X166043677Y-88259873D01*
X165491127Y-88812423D01*
X165475245Y-88753147D01*
X165408102Y-88636853D01*
X165313147Y-88541898D01*
X165196853Y-88474755D01*
X165137574Y-88458871D01*
X165690125Y-87906320D01*
X165690125Y-87906319D01*
X165655145Y-87880905D01*
X165479835Y-87791581D01*
X165292705Y-87730778D01*
X165098382Y-87700000D01*
X164901618Y-87700000D01*
X164707294Y-87730778D01*
X164520161Y-87791582D01*
X164344863Y-87880899D01*
X164344859Y-87880902D01*
X164309873Y-87906320D01*
X164309872Y-87906320D01*
X164862425Y-88458871D01*
X164803147Y-88474755D01*
X164686853Y-88541898D01*
X164591898Y-88636853D01*
X164524755Y-88753147D01*
X164508871Y-88812424D01*
X163956320Y-88259872D01*
X163956320Y-88259873D01*
X163930902Y-88294859D01*
X163860484Y-88433063D01*
X163812509Y-88483859D01*
X163744688Y-88500654D01*
X163678553Y-88478117D01*
X163639514Y-88433062D01*
X163569097Y-88294860D01*
X163543678Y-88259873D01*
X163543677Y-88259873D01*
X162991127Y-88812423D01*
X162975245Y-88753147D01*
X162908102Y-88636853D01*
X162813147Y-88541898D01*
X162696853Y-88474755D01*
X162637574Y-88458871D01*
X163190125Y-87906320D01*
X163190125Y-87906319D01*
X163155145Y-87880905D01*
X162979835Y-87791581D01*
X162792705Y-87730778D01*
X162598382Y-87700000D01*
X162401618Y-87700000D01*
X162207294Y-87730778D01*
X162020161Y-87791582D01*
X161844863Y-87880899D01*
X161844859Y-87880902D01*
X161809873Y-87906320D01*
X161809872Y-87906320D01*
X162362425Y-88458871D01*
X162303147Y-88474755D01*
X162186853Y-88541898D01*
X162091898Y-88636853D01*
X162024755Y-88753147D01*
X162008871Y-88812424D01*
X161456320Y-88259872D01*
X161456320Y-88259873D01*
X161430902Y-88294859D01*
X161360484Y-88433063D01*
X161312509Y-88483859D01*
X161244688Y-88500654D01*
X161178553Y-88478117D01*
X161139514Y-88433062D01*
X161069097Y-88294860D01*
X161043678Y-88259873D01*
X161043677Y-88259873D01*
X160491127Y-88812423D01*
X160475245Y-88753147D01*
X160408102Y-88636853D01*
X160313147Y-88541898D01*
X160196853Y-88474755D01*
X160137574Y-88458871D01*
X160690125Y-87906320D01*
X160690125Y-87906319D01*
X160655145Y-87880905D01*
X160479835Y-87791581D01*
X160292705Y-87730778D01*
X160098382Y-87700000D01*
X159901618Y-87700000D01*
X159707294Y-87730778D01*
X159520161Y-87791582D01*
X159344863Y-87880899D01*
X159344859Y-87880902D01*
X159309873Y-87906320D01*
X159309872Y-87906320D01*
X159862425Y-88458871D01*
X159803147Y-88474755D01*
X159686853Y-88541898D01*
X159591898Y-88636853D01*
X159524755Y-88753147D01*
X159508871Y-88812424D01*
X158956320Y-88259872D01*
X158956320Y-88259873D01*
X158930902Y-88294859D01*
X158860484Y-88433063D01*
X158812509Y-88483859D01*
X158744688Y-88500654D01*
X158678553Y-88478117D01*
X158639514Y-88433062D01*
X158569097Y-88294860D01*
X158543678Y-88259873D01*
X158543677Y-88259873D01*
X157991127Y-88812423D01*
X157975245Y-88753147D01*
X157908102Y-88636853D01*
X157813147Y-88541898D01*
X157696853Y-88474755D01*
X157637574Y-88458871D01*
X158190125Y-87906320D01*
X158190125Y-87906319D01*
X158155145Y-87880905D01*
X157979835Y-87791581D01*
X157792705Y-87730778D01*
X157598382Y-87700000D01*
X157401618Y-87700000D01*
X157207294Y-87730778D01*
X157020161Y-87791582D01*
X156844863Y-87880899D01*
X156844859Y-87880902D01*
X156809873Y-87906320D01*
X156809872Y-87906320D01*
X157362425Y-88458871D01*
X157303147Y-88474755D01*
X157186853Y-88541898D01*
X157091898Y-88636853D01*
X157024755Y-88753147D01*
X157008871Y-88812424D01*
X156456320Y-88259872D01*
X156456320Y-88259873D01*
X156430902Y-88294859D01*
X156430899Y-88294863D01*
X156341582Y-88470161D01*
X156280778Y-88657294D01*
X156250000Y-88851617D01*
X155949552Y-88851617D01*
X155913974Y-88672756D01*
X155913973Y-88672749D01*
X155842322Y-88499769D01*
X155842321Y-88499768D01*
X155842318Y-88499762D01*
X155738302Y-88344092D01*
X155738299Y-88344088D01*
X155605911Y-88211700D01*
X155605907Y-88211697D01*
X155450237Y-88107681D01*
X155450228Y-88107676D01*
X155354778Y-88068140D01*
X155277251Y-88036027D01*
X155277243Y-88036025D01*
X155093620Y-87999500D01*
X155093616Y-87999500D01*
X154906384Y-87999500D01*
X154906379Y-87999500D01*
X154722756Y-88036025D01*
X154722748Y-88036027D01*
X154549771Y-88107676D01*
X154549762Y-88107681D01*
X154394092Y-88211697D01*
X154394088Y-88211700D01*
X154261700Y-88344088D01*
X154261697Y-88344092D01*
X154157681Y-88499762D01*
X154157676Y-88499771D01*
X154086027Y-88672748D01*
X154086025Y-88672756D01*
X154049500Y-88856379D01*
X153450499Y-88856379D01*
X153413974Y-88672756D01*
X153413973Y-88672749D01*
X153342322Y-88499769D01*
X153342321Y-88499768D01*
X153342318Y-88499762D01*
X153238302Y-88344092D01*
X153238299Y-88344088D01*
X153105911Y-88211700D01*
X153105907Y-88211697D01*
X152950237Y-88107681D01*
X152950228Y-88107676D01*
X152777251Y-88036027D01*
X152777243Y-88036025D01*
X152593620Y-87999500D01*
X152593616Y-87999500D01*
X152406384Y-87999500D01*
X152406379Y-87999500D01*
X152222756Y-88036025D01*
X152222748Y-88036027D01*
X152049771Y-88107676D01*
X152049762Y-88107681D01*
X151894092Y-88211697D01*
X151894088Y-88211700D01*
X151761700Y-88344088D01*
X151761697Y-88344092D01*
X151657681Y-88499762D01*
X151657676Y-88499771D01*
X151586027Y-88672748D01*
X151586025Y-88672756D01*
X151549500Y-88856379D01*
X149800500Y-88856379D01*
X149800500Y-77554902D01*
X167434500Y-77554902D01*
X167434500Y-77745097D01*
X167471601Y-77931618D01*
X167471603Y-77931626D01*
X167544383Y-78107332D01*
X167544388Y-78107342D01*
X167650046Y-78265470D01*
X167650049Y-78265474D01*
X167784525Y-78399950D01*
X167784529Y-78399953D01*
X167942657Y-78505611D01*
X167942661Y-78505613D01*
X167942664Y-78505615D01*
X168118374Y-78578397D01*
X168304902Y-78615499D01*
X168304906Y-78615500D01*
X168304907Y-78615500D01*
X168495094Y-78615500D01*
X168495095Y-78615499D01*
X168681626Y-78578397D01*
X168857336Y-78505615D01*
X169015471Y-78399953D01*
X169149953Y-78265471D01*
X169255615Y-78107336D01*
X169328397Y-77931626D01*
X169365500Y-77745093D01*
X169365500Y-77554907D01*
X169328397Y-77368374D01*
X169255615Y-77192664D01*
X169255613Y-77192661D01*
X169255611Y-77192657D01*
X169149953Y-77034529D01*
X169149950Y-77034525D01*
X169015474Y-76900049D01*
X169015470Y-76900046D01*
X168857342Y-76794388D01*
X168857332Y-76794383D01*
X168681626Y-76721603D01*
X168681618Y-76721601D01*
X168495097Y-76684500D01*
X168495093Y-76684500D01*
X168304907Y-76684500D01*
X168304902Y-76684500D01*
X168118381Y-76721601D01*
X168118373Y-76721603D01*
X167942667Y-76794383D01*
X167942657Y-76794388D01*
X167784529Y-76900046D01*
X167784525Y-76900049D01*
X167650049Y-77034525D01*
X167650046Y-77034529D01*
X167544388Y-77192657D01*
X167544383Y-77192667D01*
X167471603Y-77368373D01*
X167471601Y-77368381D01*
X167434500Y-77554902D01*
X149800500Y-77554902D01*
X149800500Y-74934108D01*
X168499500Y-74934108D01*
X168499500Y-75065891D01*
X168533608Y-75193187D01*
X168548639Y-75219221D01*
X168599500Y-75307314D01*
X168692686Y-75400500D01*
X168806814Y-75466392D01*
X168934108Y-75500500D01*
X168934110Y-75500500D01*
X169065890Y-75500500D01*
X169065892Y-75500500D01*
X169193186Y-75466392D01*
X169307314Y-75400500D01*
X169400500Y-75307314D01*
X169466392Y-75193186D01*
X169500500Y-75065892D01*
X169500500Y-74934108D01*
X169466392Y-74806814D01*
X169400500Y-74692686D01*
X169336818Y-74629004D01*
X169303334Y-74567680D01*
X169300500Y-74541323D01*
X169300500Y-69175832D01*
X169320185Y-69108793D01*
X169336814Y-69088156D01*
X171888151Y-66536818D01*
X171949474Y-66503334D01*
X171975832Y-66500500D01*
X172065890Y-66500500D01*
X172065892Y-66500500D01*
X172193186Y-66466392D01*
X172307314Y-66400500D01*
X172400500Y-66307314D01*
X172466392Y-66193186D01*
X172500500Y-66065892D01*
X172500500Y-65934108D01*
X172466392Y-65806814D01*
X172400500Y-65692686D01*
X172307314Y-65599500D01*
X172250250Y-65566554D01*
X172193187Y-65533608D01*
X172129539Y-65516554D01*
X172065892Y-65499500D01*
X171934108Y-65499500D01*
X171806812Y-65533608D01*
X171692686Y-65599500D01*
X171692683Y-65599502D01*
X171599502Y-65692683D01*
X171599500Y-65692686D01*
X171533608Y-65806812D01*
X171499500Y-65934108D01*
X171499500Y-66024166D01*
X171479815Y-66091205D01*
X171463181Y-66111847D01*
X168815489Y-68759540D01*
X168759541Y-68815487D01*
X168759535Y-68815495D01*
X168719982Y-68884004D01*
X168719979Y-68884009D01*
X168699500Y-68960439D01*
X168699500Y-74541323D01*
X168679815Y-74608362D01*
X168663182Y-74629004D01*
X168599500Y-74692686D01*
X168533608Y-74806812D01*
X168499500Y-74934108D01*
X149800500Y-74934108D01*
X149800500Y-45268475D01*
X150324500Y-45268475D01*
X150324500Y-45731517D01*
X150333890Y-45790804D01*
X150339354Y-45825304D01*
X150396950Y-45938342D01*
X150396952Y-45938344D01*
X150396954Y-45938347D01*
X150486652Y-46028045D01*
X150486654Y-46028046D01*
X150486658Y-46028050D01*
X150599694Y-46085645D01*
X150599698Y-46085647D01*
X150693475Y-46100499D01*
X150693481Y-46100500D01*
X151306518Y-46100499D01*
X151400304Y-46085646D01*
X151513342Y-46028050D01*
X151603050Y-45938342D01*
X151638787Y-45868203D01*
X151686761Y-45817409D01*
X151749271Y-45800500D01*
X155750728Y-45800500D01*
X155817767Y-45820185D01*
X155861212Y-45868204D01*
X155896949Y-45938340D01*
X155896954Y-45938347D01*
X155986652Y-46028045D01*
X155986654Y-46028046D01*
X155986658Y-46028050D01*
X156099694Y-46085645D01*
X156099698Y-46085647D01*
X156108980Y-46088663D01*
X156108162Y-46091177D01*
X156158019Y-46114803D01*
X156194959Y-46174109D01*
X156199500Y-46207359D01*
X156199500Y-50324166D01*
X156179815Y-50391205D01*
X156163181Y-50411847D01*
X154111847Y-52463181D01*
X154050524Y-52496666D01*
X154024166Y-52499500D01*
X153934108Y-52499500D01*
X153806812Y-52533608D01*
X153692686Y-52599500D01*
X153692683Y-52599502D01*
X153599502Y-52692683D01*
X153599500Y-52692686D01*
X153533608Y-52806812D01*
X153499500Y-52934108D01*
X153499500Y-53065891D01*
X153533608Y-53193187D01*
X153544382Y-53211847D01*
X153599500Y-53307314D01*
X153692686Y-53400500D01*
X153806814Y-53466392D01*
X153934108Y-53500500D01*
X153934110Y-53500500D01*
X154065890Y-53500500D01*
X154065892Y-53500500D01*
X154193186Y-53466392D01*
X154307314Y-53400500D01*
X154400500Y-53307314D01*
X154466392Y-53193186D01*
X154500500Y-53065892D01*
X154500500Y-52975832D01*
X154520185Y-52908793D01*
X154536819Y-52888151D01*
X155540470Y-51884500D01*
X156740460Y-50684511D01*
X156780021Y-50615989D01*
X156800500Y-50539562D01*
X156800500Y-46207359D01*
X156820185Y-46140320D01*
X156872989Y-46094565D01*
X156891157Y-46089089D01*
X156891019Y-46088663D01*
X156900300Y-46085647D01*
X156900301Y-46085646D01*
X156900304Y-46085646D01*
X157013342Y-46028050D01*
X157103050Y-45938342D01*
X157160646Y-45825304D01*
X157160646Y-45825302D01*
X157160647Y-45825301D01*
X157175499Y-45731524D01*
X157175500Y-45731519D01*
X157175499Y-45347446D01*
X163047000Y-45347446D01*
X163047000Y-45552553D01*
X163075346Y-45731517D01*
X163079084Y-45755120D01*
X163113513Y-45861079D01*
X163142464Y-45950182D01*
X163200968Y-46065000D01*
X163226343Y-46114803D01*
X163235577Y-46132924D01*
X163356121Y-46298840D01*
X163356125Y-46298845D01*
X163501154Y-46443874D01*
X163501159Y-46443878D01*
X163645880Y-46549023D01*
X163667079Y-46564425D01*
X163783522Y-46623755D01*
X163849817Y-46657535D01*
X163849819Y-46657535D01*
X163849822Y-46657537D01*
X164044880Y-46720916D01*
X164146166Y-46736958D01*
X164247447Y-46753000D01*
X164247452Y-46753000D01*
X164452553Y-46753000D01*
X164544626Y-46738416D01*
X164655120Y-46720916D01*
X164850178Y-46657537D01*
X165032921Y-46564425D01*
X165198847Y-46443873D01*
X165343873Y-46298847D01*
X165464425Y-46132921D01*
X165557537Y-45950178D01*
X165620916Y-45755120D01*
X165643419Y-45613040D01*
X165653000Y-45552553D01*
X165653000Y-45347446D01*
X166847000Y-45347446D01*
X166847000Y-45552553D01*
X166875346Y-45731517D01*
X166879084Y-45755120D01*
X166913513Y-45861079D01*
X166942464Y-45950182D01*
X167000968Y-46065000D01*
X167026343Y-46114803D01*
X167035577Y-46132924D01*
X167156121Y-46298840D01*
X167156125Y-46298845D01*
X167301154Y-46443874D01*
X167301159Y-46443878D01*
X167445880Y-46549023D01*
X167467079Y-46564425D01*
X167583522Y-46623755D01*
X167649817Y-46657535D01*
X167649819Y-46657535D01*
X167649822Y-46657537D01*
X167844880Y-46720916D01*
X167946166Y-46736958D01*
X168047447Y-46753000D01*
X168047452Y-46753000D01*
X168252553Y-46753000D01*
X168344626Y-46738416D01*
X168455120Y-46720916D01*
X168650178Y-46657537D01*
X168832921Y-46564425D01*
X168998847Y-46443873D01*
X169143873Y-46298847D01*
X169264425Y-46132921D01*
X169357537Y-45950178D01*
X169420916Y-45755120D01*
X169443419Y-45613040D01*
X169449719Y-45573268D01*
X169453000Y-45552553D01*
X169453000Y-45347446D01*
X169429567Y-45199500D01*
X169420916Y-45144880D01*
X169357537Y-44949822D01*
X169357535Y-44949819D01*
X169357535Y-44949817D01*
X169323755Y-44883522D01*
X169264425Y-44767079D01*
X169215035Y-44699099D01*
X169143878Y-44601159D01*
X169143874Y-44601154D01*
X168998845Y-44456125D01*
X168998840Y-44456121D01*
X168832924Y-44335577D01*
X168832923Y-44335576D01*
X168832921Y-44335575D01*
X168740221Y-44288342D01*
X168650182Y-44242464D01*
X168603384Y-44227258D01*
X168455120Y-44179084D01*
X168455114Y-44179083D01*
X168252553Y-44147000D01*
X168252548Y-44147000D01*
X168047452Y-44147000D01*
X168047447Y-44147000D01*
X167844885Y-44179083D01*
X167844883Y-44179083D01*
X167844880Y-44179084D01*
X167747351Y-44210773D01*
X167649817Y-44242464D01*
X167467075Y-44335577D01*
X167301159Y-44456121D01*
X167301154Y-44456125D01*
X167156125Y-44601154D01*
X167156121Y-44601159D01*
X167035577Y-44767075D01*
X166942464Y-44949817D01*
X166919275Y-45021186D01*
X166879084Y-45144880D01*
X166879083Y-45144883D01*
X166879083Y-45144885D01*
X166847000Y-45347446D01*
X165653000Y-45347446D01*
X165629567Y-45199500D01*
X165620916Y-45144880D01*
X165557537Y-44949822D01*
X165557535Y-44949819D01*
X165557535Y-44949817D01*
X165523755Y-44883522D01*
X165464425Y-44767079D01*
X165415035Y-44699099D01*
X165343878Y-44601159D01*
X165343874Y-44601154D01*
X165198845Y-44456125D01*
X165198840Y-44456121D01*
X165032924Y-44335577D01*
X165032923Y-44335576D01*
X165032921Y-44335575D01*
X164940221Y-44288342D01*
X164850182Y-44242464D01*
X164803384Y-44227258D01*
X164655120Y-44179084D01*
X164655114Y-44179083D01*
X164452553Y-44147000D01*
X164452548Y-44147000D01*
X164247452Y-44147000D01*
X164247447Y-44147000D01*
X164044885Y-44179083D01*
X164044883Y-44179083D01*
X164044880Y-44179084D01*
X163947351Y-44210773D01*
X163849817Y-44242464D01*
X163667075Y-44335577D01*
X163501159Y-44456121D01*
X163501154Y-44456125D01*
X163356125Y-44601154D01*
X163356121Y-44601159D01*
X163235577Y-44767075D01*
X163142464Y-44949817D01*
X163119275Y-45021186D01*
X163079084Y-45144880D01*
X163079083Y-45144883D01*
X163079083Y-45144885D01*
X163047000Y-45347446D01*
X157175499Y-45347446D01*
X157175499Y-45268482D01*
X157160646Y-45174696D01*
X157103050Y-45061658D01*
X157103046Y-45061654D01*
X157103045Y-45061652D01*
X157013347Y-44971954D01*
X157013344Y-44971952D01*
X157013342Y-44971950D01*
X156936517Y-44932805D01*
X156900301Y-44914352D01*
X156806524Y-44899500D01*
X156193482Y-44899500D01*
X156112519Y-44912323D01*
X156099696Y-44914354D01*
X155986658Y-44971950D01*
X155986657Y-44971951D01*
X155986652Y-44971954D01*
X155896954Y-45061652D01*
X155896951Y-45061657D01*
X155896950Y-45061658D01*
X155861212Y-45131796D01*
X155813239Y-45182591D01*
X155750729Y-45199500D01*
X151749272Y-45199500D01*
X151682233Y-45179815D01*
X151638788Y-45131796D01*
X151617522Y-45090060D01*
X151603050Y-45061658D01*
X151603047Y-45061655D01*
X151603045Y-45061652D01*
X151513347Y-44971954D01*
X151513344Y-44971952D01*
X151513342Y-44971950D01*
X151436517Y-44932805D01*
X151400301Y-44914352D01*
X151306524Y-44899500D01*
X150693482Y-44899500D01*
X150612519Y-44912323D01*
X150599696Y-44914354D01*
X150486658Y-44971950D01*
X150486657Y-44971951D01*
X150486652Y-44971954D01*
X150396954Y-45061652D01*
X150396951Y-45061657D01*
X150396950Y-45061658D01*
X150377751Y-45099337D01*
X150339352Y-45174698D01*
X150324500Y-45268475D01*
X149800500Y-45268475D01*
X149800500Y-41860438D01*
X149780021Y-41784011D01*
X149759964Y-41749271D01*
X149740464Y-41715495D01*
X149740458Y-41715487D01*
X145225924Y-37200953D01*
X145192439Y-37139630D01*
X145197423Y-37069938D01*
X145203120Y-37056977D01*
X145257535Y-36950182D01*
X145257535Y-36950181D01*
X145257537Y-36950178D01*
X145320916Y-36755120D01*
X145338416Y-36644626D01*
X145353000Y-36552553D01*
X145353000Y-36347446D01*
X145335499Y-36236958D01*
X145320916Y-36144880D01*
X145257537Y-35949822D01*
X145257535Y-35949819D01*
X145257535Y-35949817D01*
X145193697Y-35824529D01*
X145164425Y-35767079D01*
X145149023Y-35745880D01*
X145043878Y-35601159D01*
X145043874Y-35601154D01*
X144898845Y-35456125D01*
X144898840Y-35456121D01*
X144732924Y-35335577D01*
X144732923Y-35335576D01*
X144732921Y-35335575D01*
X144675853Y-35306497D01*
X144550182Y-35242464D01*
X144503384Y-35227258D01*
X144355120Y-35179084D01*
X144355114Y-35179083D01*
X144152553Y-35147000D01*
X144152548Y-35147000D01*
X143947452Y-35147000D01*
X143947447Y-35147000D01*
X143744885Y-35179083D01*
X143744883Y-35179083D01*
X143744880Y-35179084D01*
X143647351Y-35210773D01*
X143549817Y-35242464D01*
X143367075Y-35335577D01*
X143201159Y-35456121D01*
X143201154Y-35456125D01*
X143056125Y-35601154D01*
X143056121Y-35601159D01*
X142935577Y-35767075D01*
X142842464Y-35949817D01*
X142810773Y-36047351D01*
X142779084Y-36144880D01*
X142779083Y-36144883D01*
X142779083Y-36144885D01*
X142747000Y-36347446D01*
X118608500Y-36347446D01*
X118608500Y-32622249D01*
X118608499Y-32622247D01*
X118597465Y-32566771D01*
X118596867Y-32563770D01*
X118596867Y-32563769D01*
X118585960Y-32547446D01*
X142747000Y-32547446D01*
X142747000Y-32752553D01*
X142756099Y-32810000D01*
X142779084Y-32955120D01*
X142827258Y-33103384D01*
X142842464Y-33150182D01*
X142871667Y-33207495D01*
X142918099Y-33298623D01*
X142935577Y-33332924D01*
X143056121Y-33498840D01*
X143056125Y-33498845D01*
X143201154Y-33643874D01*
X143201159Y-33643878D01*
X143345880Y-33749023D01*
X143367079Y-33764425D01*
X143483522Y-33823755D01*
X143549817Y-33857535D01*
X143549819Y-33857535D01*
X143549822Y-33857537D01*
X143744880Y-33920916D01*
X143846166Y-33936958D01*
X143947447Y-33953000D01*
X143947452Y-33953000D01*
X144152553Y-33953000D01*
X144244626Y-33938416D01*
X144355120Y-33920916D01*
X144550178Y-33857537D01*
X144732921Y-33764425D01*
X144898847Y-33643873D01*
X145043873Y-33498847D01*
X145164425Y-33332921D01*
X145257537Y-33150178D01*
X145320916Y-32955120D01*
X145343901Y-32810000D01*
X145353000Y-32752553D01*
X145353000Y-32547446D01*
X145333275Y-32422914D01*
X145320916Y-32344880D01*
X145257537Y-32149822D01*
X145257535Y-32149819D01*
X145257535Y-32149817D01*
X145215134Y-32066602D01*
X145164425Y-31967079D01*
X145058566Y-31821376D01*
X145043878Y-31801159D01*
X145043874Y-31801154D01*
X144898845Y-31656125D01*
X144898840Y-31656121D01*
X144732924Y-31535577D01*
X144732923Y-31535576D01*
X144732921Y-31535575D01*
X144675853Y-31506497D01*
X144550182Y-31442464D01*
X144503384Y-31427258D01*
X144355120Y-31379084D01*
X144355114Y-31379083D01*
X144152553Y-31347000D01*
X144152548Y-31347000D01*
X143947452Y-31347000D01*
X143947447Y-31347000D01*
X143744885Y-31379083D01*
X143744883Y-31379083D01*
X143744880Y-31379084D01*
X143647351Y-31410773D01*
X143549817Y-31442464D01*
X143367075Y-31535577D01*
X143201159Y-31656121D01*
X143201154Y-31656125D01*
X143056125Y-31801154D01*
X143056121Y-31801159D01*
X142935577Y-31967075D01*
X142842464Y-32149817D01*
X142810773Y-32247351D01*
X142779084Y-32344880D01*
X142779083Y-32344883D01*
X142779083Y-32344885D01*
X142747000Y-32547446D01*
X118585960Y-32547446D01*
X118552552Y-32497447D01*
X118486230Y-32453132D01*
X118486229Y-32453131D01*
X118427752Y-32441500D01*
X118427748Y-32441500D01*
X114672252Y-32441500D01*
X114672247Y-32441500D01*
X114613770Y-32453131D01*
X114613769Y-32453132D01*
X114547447Y-32497447D01*
X114503132Y-32563769D01*
X114503131Y-32563770D01*
X114491500Y-32622247D01*
X102500500Y-32622247D01*
X102500500Y-31099999D01*
X108875884Y-31099999D01*
X108875885Y-31100000D01*
X109833012Y-31100000D01*
X109815795Y-31109940D01*
X109759940Y-31165795D01*
X109720444Y-31234204D01*
X109700000Y-31310504D01*
X109700000Y-31389496D01*
X109720444Y-31465796D01*
X109759940Y-31534205D01*
X109815795Y-31590060D01*
X109833012Y-31600000D01*
X108875885Y-31600000D01*
X108877085Y-31607584D01*
X108930591Y-31772255D01*
X109009195Y-31926524D01*
X109110967Y-32066602D01*
X109233397Y-32189032D01*
X109373475Y-32290804D01*
X109527742Y-32369408D01*
X109692415Y-32422914D01*
X109863429Y-32450000D01*
X110300000Y-32450000D01*
X110300000Y-31650000D01*
X110800000Y-31650000D01*
X110800000Y-32450000D01*
X111236571Y-32450000D01*
X111407584Y-32422914D01*
X111572257Y-32369408D01*
X111726524Y-32290804D01*
X111866602Y-32189032D01*
X111989032Y-32066602D01*
X112090804Y-31926524D01*
X112169408Y-31772255D01*
X112222914Y-31607584D01*
X112224115Y-31600000D01*
X111266988Y-31600000D01*
X111284205Y-31590060D01*
X111340060Y-31534205D01*
X111379556Y-31465796D01*
X111400000Y-31389496D01*
X111400000Y-31310504D01*
X111379556Y-31234204D01*
X111340060Y-31165795D01*
X111284205Y-31109940D01*
X111266988Y-31100000D01*
X112224115Y-31100000D01*
X112224115Y-31099999D01*
X112222914Y-31092415D01*
X112169408Y-30927744D01*
X112090804Y-30773475D01*
X111989032Y-30633397D01*
X111866602Y-30510967D01*
X111726524Y-30409195D01*
X111572257Y-30330591D01*
X111407584Y-30277085D01*
X111236571Y-30250000D01*
X110800000Y-30250000D01*
X110800000Y-31050000D01*
X110300000Y-31050000D01*
X110300000Y-30250000D01*
X109863429Y-30250000D01*
X109692415Y-30277085D01*
X109527742Y-30330591D01*
X109373475Y-30409195D01*
X109233397Y-30510967D01*
X109110967Y-30633397D01*
X109009195Y-30773475D01*
X108930591Y-30927744D01*
X108877085Y-31092415D01*
X108875884Y-31099999D01*
X102500500Y-31099999D01*
X102500500Y-27727747D01*
X142747000Y-27727747D01*
X142747000Y-29972252D01*
X142758631Y-30030729D01*
X142758632Y-30030730D01*
X142802947Y-30097052D01*
X142869269Y-30141367D01*
X142869270Y-30141368D01*
X142927747Y-30152999D01*
X142927750Y-30153000D01*
X142927752Y-30153000D01*
X145172250Y-30153000D01*
X145172251Y-30152999D01*
X145187068Y-30150052D01*
X145230729Y-30141368D01*
X145230729Y-30141367D01*
X145230731Y-30141367D01*
X145297052Y-30097052D01*
X145341367Y-30030731D01*
X145341367Y-30030729D01*
X145341368Y-30030729D01*
X145352999Y-29972252D01*
X145353000Y-29972250D01*
X145353000Y-27727749D01*
X145352999Y-27727747D01*
X145341368Y-27669270D01*
X145341367Y-27669269D01*
X145297052Y-27602947D01*
X145230730Y-27558632D01*
X145230729Y-27558631D01*
X145172252Y-27547000D01*
X145172248Y-27547000D01*
X142927752Y-27547000D01*
X142927747Y-27547000D01*
X142869270Y-27558631D01*
X142869269Y-27558632D01*
X142802947Y-27602947D01*
X142758632Y-27669269D01*
X142758631Y-27669270D01*
X142747000Y-27727747D01*
X102500500Y-27727747D01*
X102500500Y-21852486D01*
X104749500Y-21852486D01*
X104749500Y-22147513D01*
X104768482Y-22291690D01*
X104788007Y-22439993D01*
X104788008Y-22439995D01*
X104864361Y-22724951D01*
X104864364Y-22724961D01*
X104977254Y-22997500D01*
X104977258Y-22997510D01*
X105124761Y-23252993D01*
X105304352Y-23487040D01*
X105304358Y-23487047D01*
X105512952Y-23695641D01*
X105512959Y-23695647D01*
X105747006Y-23875238D01*
X106002489Y-24022741D01*
X106002490Y-24022741D01*
X106002493Y-24022743D01*
X106275048Y-24135639D01*
X106560007Y-24211993D01*
X106852494Y-24250500D01*
X106852501Y-24250500D01*
X107147499Y-24250500D01*
X107147506Y-24250500D01*
X107439993Y-24211993D01*
X107724952Y-24135639D01*
X107997507Y-24022743D01*
X108252994Y-23875238D01*
X108487042Y-23695646D01*
X108695646Y-23487042D01*
X108736264Y-23434108D01*
X149499500Y-23434108D01*
X149499500Y-23565892D01*
X149511814Y-23611848D01*
X149533608Y-23693187D01*
X149537569Y-23700047D01*
X149599500Y-23807314D01*
X149692686Y-23900500D01*
X149806814Y-23966392D01*
X149934108Y-24000500D01*
X149934110Y-24000500D01*
X150024167Y-24000500D01*
X150091206Y-24020185D01*
X150111848Y-24036819D01*
X150663181Y-24588152D01*
X150696666Y-24649475D01*
X150699500Y-24675833D01*
X150699500Y-43142640D01*
X150679815Y-43209679D01*
X150627011Y-43255434D01*
X150608842Y-43260911D01*
X150608981Y-43261337D01*
X150599699Y-43264352D01*
X150544297Y-43292580D01*
X150486658Y-43321950D01*
X150486657Y-43321951D01*
X150486652Y-43321954D01*
X150396954Y-43411652D01*
X150396951Y-43411657D01*
X150396950Y-43411658D01*
X150385134Y-43434849D01*
X150339352Y-43524698D01*
X150324500Y-43618475D01*
X150324500Y-44081517D01*
X150330974Y-44122391D01*
X150339354Y-44175304D01*
X150396950Y-44288342D01*
X150396952Y-44288344D01*
X150396954Y-44288347D01*
X150486652Y-44378045D01*
X150486654Y-44378046D01*
X150486658Y-44378050D01*
X150579299Y-44425253D01*
X150599698Y-44435647D01*
X150693475Y-44450499D01*
X150693481Y-44450500D01*
X151306518Y-44450499D01*
X151400304Y-44435646D01*
X151513342Y-44378050D01*
X151603050Y-44288342D01*
X151660646Y-44175304D01*
X151660646Y-44175302D01*
X151660647Y-44175301D01*
X151675499Y-44081524D01*
X151675500Y-44081519D01*
X151675499Y-43618482D01*
X151660646Y-43524696D01*
X151603050Y-43411658D01*
X151603046Y-43411654D01*
X151603045Y-43411652D01*
X151513347Y-43321954D01*
X151513344Y-43321952D01*
X151513342Y-43321950D01*
X151436517Y-43282805D01*
X151400301Y-43264352D01*
X151391020Y-43261337D01*
X151391836Y-43258825D01*
X151341963Y-43235180D01*
X151305034Y-43175866D01*
X151300500Y-43142640D01*
X151300500Y-38193475D01*
X154074500Y-38193475D01*
X154074500Y-38806517D01*
X154079328Y-38837000D01*
X154089354Y-38900304D01*
X154146950Y-39013342D01*
X154146952Y-39013344D01*
X154146954Y-39013347D01*
X154236652Y-39103045D01*
X154236654Y-39103046D01*
X154236658Y-39103050D01*
X154306796Y-39138787D01*
X154357591Y-39186761D01*
X154374500Y-39249271D01*
X154374500Y-40250728D01*
X154354815Y-40317767D01*
X154306796Y-40361212D01*
X154236659Y-40396949D01*
X154236652Y-40396954D01*
X154146954Y-40486652D01*
X154146951Y-40486657D01*
X154089352Y-40599698D01*
X154074500Y-40693475D01*
X154074500Y-41306517D01*
X154080824Y-41346446D01*
X154089354Y-41400304D01*
X154146950Y-41513342D01*
X154146952Y-41513344D01*
X154146954Y-41513347D01*
X154236652Y-41603045D01*
X154236654Y-41603046D01*
X154236658Y-41603050D01*
X154347525Y-41659540D01*
X154349698Y-41660647D01*
X154443475Y-41675499D01*
X154443481Y-41675500D01*
X154906518Y-41675499D01*
X155000304Y-41660646D01*
X155113342Y-41603050D01*
X155203050Y-41513342D01*
X155260646Y-41400304D01*
X155260646Y-41400302D01*
X155260647Y-41400301D01*
X155275499Y-41306524D01*
X155275500Y-41306519D01*
X155275499Y-40693482D01*
X155275498Y-40693475D01*
X155724500Y-40693475D01*
X155724500Y-41306517D01*
X155730824Y-41346446D01*
X155739354Y-41400304D01*
X155796950Y-41513342D01*
X155796952Y-41513344D01*
X155796954Y-41513347D01*
X155886652Y-41603045D01*
X155886654Y-41603046D01*
X155886658Y-41603050D01*
X155956796Y-41638787D01*
X156007591Y-41686761D01*
X156024500Y-41749271D01*
X156024500Y-43232745D01*
X156004815Y-43299784D01*
X155988181Y-43320426D01*
X155896954Y-43411652D01*
X155896951Y-43411657D01*
X155896950Y-43411658D01*
X155885134Y-43434849D01*
X155839352Y-43524698D01*
X155824500Y-43618475D01*
X155824500Y-44081517D01*
X155830974Y-44122391D01*
X155839354Y-44175304D01*
X155896950Y-44288342D01*
X155896952Y-44288344D01*
X155896954Y-44288347D01*
X155986652Y-44378045D01*
X155986654Y-44378046D01*
X155986658Y-44378050D01*
X156079299Y-44425253D01*
X156099698Y-44435647D01*
X156193475Y-44450499D01*
X156193481Y-44450500D01*
X156806518Y-44450499D01*
X156900304Y-44435646D01*
X157013342Y-44378050D01*
X157103050Y-44288342D01*
X157138787Y-44218203D01*
X157186761Y-44167409D01*
X157249271Y-44150500D01*
X161689560Y-44150500D01*
X161689562Y-44150500D01*
X161765989Y-44130021D01*
X161834511Y-44090460D01*
X161890460Y-44034511D01*
X162007035Y-43917936D01*
X169935000Y-43917936D01*
X169935000Y-44182063D01*
X169935001Y-44182080D01*
X169969475Y-44443940D01*
X169969478Y-44443953D01*
X170037841Y-44699089D01*
X170037844Y-44699099D01*
X170138920Y-44943117D01*
X170138924Y-44943127D01*
X170270992Y-45171875D01*
X170359379Y-45287064D01*
X170359380Y-45287064D01*
X171080216Y-44566228D01*
X171165482Y-44693837D01*
X171306163Y-44834518D01*
X171433770Y-44919782D01*
X170712934Y-45640618D01*
X170712934Y-45640619D01*
X170828124Y-45729007D01*
X171056872Y-45861075D01*
X171056882Y-45861079D01*
X171300900Y-45962155D01*
X171300910Y-45962158D01*
X171556046Y-46030521D01*
X171556059Y-46030524D01*
X171817919Y-46064998D01*
X171817937Y-46065000D01*
X172082063Y-46065000D01*
X172082080Y-46064998D01*
X172343940Y-46030524D01*
X172343953Y-46030521D01*
X172599089Y-45962158D01*
X172599099Y-45962155D01*
X172843117Y-45861079D01*
X172843126Y-45861075D01*
X173071869Y-45729010D01*
X173071876Y-45729005D01*
X173187064Y-45640618D01*
X172466228Y-44919782D01*
X172593837Y-44834518D01*
X172734518Y-44693837D01*
X172819782Y-44566228D01*
X173540618Y-45287064D01*
X173629005Y-45171876D01*
X173629010Y-45171869D01*
X173761075Y-44943126D01*
X173761079Y-44943117D01*
X173862155Y-44699099D01*
X173862158Y-44699089D01*
X173930521Y-44443953D01*
X173930524Y-44443940D01*
X173964998Y-44182080D01*
X173965000Y-44182063D01*
X173965000Y-43917936D01*
X173964998Y-43917919D01*
X173930524Y-43656059D01*
X173930521Y-43656046D01*
X173862158Y-43400910D01*
X173862155Y-43400900D01*
X173761079Y-43156882D01*
X173761075Y-43156872D01*
X173629007Y-42928124D01*
X173540619Y-42812934D01*
X173540618Y-42812934D01*
X172819782Y-43533770D01*
X172734518Y-43406163D01*
X172593837Y-43265482D01*
X172466228Y-43180216D01*
X173187064Y-42459380D01*
X173187064Y-42459379D01*
X173071875Y-42370992D01*
X172843127Y-42238924D01*
X172843117Y-42238920D01*
X172599099Y-42137844D01*
X172599089Y-42137841D01*
X172343953Y-42069478D01*
X172343940Y-42069475D01*
X172082080Y-42035001D01*
X172082063Y-42035000D01*
X171817937Y-42035000D01*
X171817919Y-42035001D01*
X171556059Y-42069475D01*
X171556046Y-42069478D01*
X171300910Y-42137841D01*
X171300900Y-42137844D01*
X171056882Y-42238920D01*
X171056872Y-42238924D01*
X170828133Y-42370986D01*
X170828126Y-42370992D01*
X170712934Y-42459379D01*
X170712934Y-42459380D01*
X171433771Y-43180217D01*
X171306163Y-43265482D01*
X171165482Y-43406163D01*
X171080217Y-43533770D01*
X170359380Y-42812934D01*
X170359379Y-42812934D01*
X170270992Y-42928126D01*
X170270986Y-42928133D01*
X170138924Y-43156872D01*
X170138920Y-43156882D01*
X170037844Y-43400900D01*
X170037841Y-43400910D01*
X169969478Y-43656046D01*
X169969475Y-43656059D01*
X169935001Y-43917919D01*
X169935000Y-43917936D01*
X162007035Y-43917936D01*
X162169577Y-43755394D01*
X162388151Y-43536819D01*
X162449474Y-43503334D01*
X162475832Y-43500500D01*
X162565890Y-43500500D01*
X162565892Y-43500500D01*
X162693186Y-43466392D01*
X162807314Y-43400500D01*
X162900500Y-43307314D01*
X162966392Y-43193186D01*
X163000500Y-43065892D01*
X163000500Y-42934108D01*
X162966392Y-42806814D01*
X162900500Y-42692686D01*
X162807314Y-42599500D01*
X162747396Y-42564906D01*
X162693187Y-42533608D01*
X162629539Y-42516554D01*
X162565892Y-42499500D01*
X162434108Y-42499500D01*
X162306812Y-42533608D01*
X162192686Y-42599500D01*
X162192683Y-42599502D01*
X162099502Y-42692683D01*
X162099500Y-42692686D01*
X162033608Y-42806812D01*
X161999500Y-42934108D01*
X161999500Y-43024166D01*
X161979815Y-43091205D01*
X161963181Y-43111847D01*
X161561848Y-43513181D01*
X161500525Y-43546666D01*
X161474167Y-43549500D01*
X157249272Y-43549500D01*
X157182233Y-43529815D01*
X157138788Y-43481796D01*
X157114866Y-43434849D01*
X157103050Y-43411658D01*
X157103047Y-43411655D01*
X157103045Y-43411652D01*
X157013347Y-43321954D01*
X157013344Y-43321952D01*
X157013342Y-43321950D01*
X156936517Y-43282805D01*
X156900301Y-43264352D01*
X156806524Y-43249500D01*
X156806519Y-43249500D01*
X156749500Y-43249500D01*
X156682461Y-43229815D01*
X156636706Y-43177011D01*
X156625500Y-43125500D01*
X156625500Y-41749271D01*
X156645185Y-41682232D01*
X156693203Y-41638787D01*
X156763342Y-41603050D01*
X156853050Y-41513342D01*
X156910646Y-41400304D01*
X156910646Y-41400302D01*
X156910647Y-41400301D01*
X156925500Y-41306524D01*
X156925500Y-41274986D01*
X166850001Y-41274986D01*
X166860494Y-41377697D01*
X166915641Y-41544119D01*
X166915643Y-41544124D01*
X167007684Y-41693345D01*
X167131654Y-41817315D01*
X167280875Y-41909356D01*
X167280880Y-41909358D01*
X167447302Y-41964505D01*
X167447309Y-41964506D01*
X167550019Y-41974999D01*
X167799999Y-41974999D01*
X168300000Y-41974999D01*
X168549972Y-41974999D01*
X168549986Y-41974998D01*
X168652697Y-41964505D01*
X168819119Y-41909358D01*
X168819124Y-41909356D01*
X168968345Y-41817315D01*
X169092315Y-41693345D01*
X169184356Y-41544124D01*
X169184358Y-41544119D01*
X169239505Y-41377697D01*
X169239506Y-41377690D01*
X169249999Y-41274986D01*
X169250000Y-41274973D01*
X169250000Y-41212500D01*
X168300000Y-41212500D01*
X168300000Y-41974999D01*
X167799999Y-41974999D01*
X167800000Y-41974998D01*
X167800000Y-41212500D01*
X166850001Y-41212500D01*
X166850001Y-41274986D01*
X156925500Y-41274986D01*
X156925500Y-41161138D01*
X156925499Y-40693481D01*
X156921188Y-40666260D01*
X156921188Y-40666257D01*
X156918615Y-40650013D01*
X166850000Y-40650013D01*
X166850000Y-40712500D01*
X169249999Y-40712500D01*
X169249999Y-40650028D01*
X169249998Y-40650013D01*
X169239505Y-40547302D01*
X169184358Y-40380880D01*
X169184356Y-40380875D01*
X169092315Y-40231654D01*
X169008107Y-40147446D01*
X170647000Y-40147446D01*
X170647000Y-40352553D01*
X170677541Y-40545377D01*
X170679084Y-40555120D01*
X170715195Y-40666257D01*
X170742464Y-40750182D01*
X170778311Y-40820534D01*
X170826685Y-40915474D01*
X170835577Y-40932924D01*
X170956121Y-41098840D01*
X170956125Y-41098845D01*
X171101154Y-41243874D01*
X171101159Y-41243878D01*
X171187378Y-41306519D01*
X171267079Y-41364425D01*
X171337492Y-41400302D01*
X171449817Y-41457535D01*
X171449819Y-41457535D01*
X171449822Y-41457537D01*
X171644880Y-41520916D01*
X171746166Y-41536958D01*
X171847447Y-41553000D01*
X171847452Y-41553000D01*
X172052553Y-41553000D01*
X172144626Y-41538416D01*
X172255120Y-41520916D01*
X172450178Y-41457537D01*
X172632921Y-41364425D01*
X172798847Y-41243873D01*
X172943873Y-41098847D01*
X173064425Y-40932921D01*
X173157537Y-40750178D01*
X173220916Y-40555120D01*
X173245967Y-40396954D01*
X173253000Y-40352553D01*
X173253000Y-40204902D01*
X176034500Y-40204902D01*
X176034500Y-40395097D01*
X176071601Y-40581618D01*
X176071603Y-40581626D01*
X176144383Y-40757332D01*
X176144388Y-40757342D01*
X176250046Y-40915470D01*
X176250049Y-40915474D01*
X176384525Y-41049950D01*
X176384529Y-41049953D01*
X176542657Y-41155611D01*
X176542661Y-41155613D01*
X176542664Y-41155615D01*
X176718374Y-41228397D01*
X176904902Y-41265499D01*
X176904906Y-41265500D01*
X176904907Y-41265500D01*
X177095094Y-41265500D01*
X177095095Y-41265499D01*
X177281626Y-41228397D01*
X177457336Y-41155615D01*
X177615471Y-41049953D01*
X177749953Y-40915471D01*
X177855615Y-40757336D01*
X177928397Y-40581626D01*
X177965500Y-40395093D01*
X177965500Y-40204907D01*
X177928397Y-40018374D01*
X177855615Y-39842664D01*
X177855613Y-39842661D01*
X177855611Y-39842657D01*
X177749953Y-39684529D01*
X177749950Y-39684525D01*
X177615474Y-39550049D01*
X177615470Y-39550046D01*
X177457342Y-39444388D01*
X177457332Y-39444383D01*
X177281626Y-39371603D01*
X177281618Y-39371601D01*
X177095097Y-39334500D01*
X177095093Y-39334500D01*
X176904907Y-39334500D01*
X176904902Y-39334500D01*
X176718381Y-39371601D01*
X176718373Y-39371603D01*
X176542667Y-39444383D01*
X176542657Y-39444388D01*
X176384529Y-39550046D01*
X176384525Y-39550049D01*
X176250049Y-39684525D01*
X176250046Y-39684529D01*
X176144388Y-39842657D01*
X176144383Y-39842667D01*
X176071603Y-40018373D01*
X176071601Y-40018381D01*
X176034500Y-40204902D01*
X173253000Y-40204902D01*
X173253000Y-40147446D01*
X173232556Y-40018373D01*
X173220916Y-39944880D01*
X173157537Y-39749822D01*
X173157535Y-39749819D01*
X173157535Y-39749817D01*
X173123755Y-39683522D01*
X173064425Y-39567079D01*
X172997525Y-39474999D01*
X172943878Y-39401159D01*
X172943874Y-39401154D01*
X172798845Y-39256125D01*
X172798840Y-39256121D01*
X172632924Y-39135577D01*
X172632923Y-39135576D01*
X172632921Y-39135575D01*
X172569077Y-39103045D01*
X172450182Y-39042464D01*
X172403384Y-39027258D01*
X172255120Y-38979084D01*
X172255114Y-38979083D01*
X172052553Y-38947000D01*
X172052548Y-38947000D01*
X171847452Y-38947000D01*
X171847447Y-38947000D01*
X171644885Y-38979083D01*
X171644883Y-38979083D01*
X171644880Y-38979084D01*
X171547351Y-39010773D01*
X171449817Y-39042464D01*
X171267075Y-39135577D01*
X171101159Y-39256121D01*
X171101154Y-39256125D01*
X170956125Y-39401154D01*
X170956121Y-39401159D01*
X170835577Y-39567075D01*
X170742464Y-39749817D01*
X170731610Y-39783223D01*
X170679084Y-39944880D01*
X170679083Y-39944883D01*
X170679083Y-39944885D01*
X170647000Y-40147446D01*
X169008107Y-40147446D01*
X168968345Y-40107684D01*
X168819124Y-40015643D01*
X168819121Y-40015642D01*
X168774026Y-40000699D01*
X168716582Y-39960926D01*
X168689759Y-39896410D01*
X168702074Y-39827634D01*
X168739394Y-39783225D01*
X168822150Y-39722150D01*
X168902793Y-39612882D01*
X168924780Y-39550046D01*
X168934929Y-39521044D01*
X168975651Y-39464269D01*
X169040604Y-39438522D01*
X169051970Y-39438000D01*
X169302060Y-39438000D01*
X169302062Y-39438000D01*
X169378489Y-39417521D01*
X169447011Y-39377960D01*
X169502960Y-39322011D01*
X171199048Y-37625921D01*
X171260369Y-37592438D01*
X171330060Y-37597422D01*
X171343022Y-37603120D01*
X171449812Y-37657533D01*
X171449817Y-37657534D01*
X171449822Y-37657537D01*
X171644880Y-37720916D01*
X171746166Y-37736958D01*
X171847447Y-37753000D01*
X171847452Y-37753000D01*
X172052553Y-37753000D01*
X172144626Y-37738416D01*
X172255120Y-37720916D01*
X172450178Y-37657537D01*
X172632921Y-37564425D01*
X172798847Y-37443873D01*
X172943873Y-37298847D01*
X173064425Y-37132921D01*
X173157537Y-36950178D01*
X173220916Y-36755120D01*
X173238416Y-36644626D01*
X173253000Y-36552553D01*
X173253000Y-36347446D01*
X173235499Y-36236958D01*
X173220916Y-36144880D01*
X173157537Y-35949822D01*
X173157535Y-35949819D01*
X173157535Y-35949817D01*
X173093697Y-35824529D01*
X173064425Y-35767079D01*
X173049023Y-35745880D01*
X172943878Y-35601159D01*
X172943874Y-35601154D01*
X172798845Y-35456125D01*
X172798840Y-35456121D01*
X172632924Y-35335577D01*
X172632923Y-35335576D01*
X172632921Y-35335575D01*
X172575853Y-35306497D01*
X172450182Y-35242464D01*
X172403384Y-35227258D01*
X172255120Y-35179084D01*
X172255114Y-35179083D01*
X172052553Y-35147000D01*
X172052548Y-35147000D01*
X171847452Y-35147000D01*
X171847447Y-35147000D01*
X171644885Y-35179083D01*
X171644883Y-35179083D01*
X171644880Y-35179084D01*
X171547351Y-35210773D01*
X171449817Y-35242464D01*
X171267075Y-35335577D01*
X171101159Y-35456121D01*
X171101154Y-35456125D01*
X170956125Y-35601154D01*
X170956121Y-35601159D01*
X170835577Y-35767075D01*
X170742464Y-35949817D01*
X170710773Y-36047351D01*
X170679084Y-36144880D01*
X170679083Y-36144883D01*
X170679083Y-36144885D01*
X170647000Y-36347446D01*
X170647000Y-36552553D01*
X170675820Y-36734511D01*
X170679084Y-36755120D01*
X170742463Y-36950178D01*
X170742464Y-36950181D01*
X170742465Y-36950182D01*
X170796879Y-37056976D01*
X170809775Y-37125646D01*
X170783499Y-37190386D01*
X170774075Y-37200952D01*
X169174348Y-38800681D01*
X169147420Y-38815384D01*
X169121602Y-38831977D01*
X169115401Y-38832868D01*
X169113025Y-38834166D01*
X169086667Y-38837000D01*
X169051970Y-38837000D01*
X168984931Y-38817315D01*
X168939176Y-38764511D01*
X168934929Y-38753956D01*
X168902793Y-38662119D01*
X168902793Y-38662118D01*
X168822150Y-38552850D01*
X168712882Y-38472207D01*
X168712880Y-38472206D01*
X168584700Y-38427353D01*
X168554270Y-38424500D01*
X168554266Y-38424500D01*
X167545734Y-38424500D01*
X167545730Y-38424500D01*
X167515300Y-38427353D01*
X167515298Y-38427353D01*
X167387119Y-38472206D01*
X167387117Y-38472207D01*
X167277850Y-38552850D01*
X167197207Y-38662117D01*
X167197206Y-38662119D01*
X167152353Y-38790298D01*
X167152353Y-38790300D01*
X167149500Y-38820730D01*
X167149500Y-39454269D01*
X167152353Y-39484699D01*
X167152353Y-39484701D01*
X167197206Y-39612880D01*
X167197207Y-39612882D01*
X167277851Y-39722151D01*
X167360601Y-39783223D01*
X167402852Y-39838870D01*
X167408311Y-39908526D01*
X167375244Y-39970076D01*
X167325974Y-40000698D01*
X167280883Y-40015640D01*
X167280875Y-40015643D01*
X167131654Y-40107684D01*
X167007684Y-40231654D01*
X166915643Y-40380875D01*
X166915641Y-40380880D01*
X166860494Y-40547302D01*
X166860493Y-40547309D01*
X166850000Y-40650013D01*
X156918615Y-40650013D01*
X156910647Y-40599700D01*
X156910647Y-40599699D01*
X156910646Y-40599697D01*
X156910646Y-40599696D01*
X156853050Y-40486658D01*
X156853046Y-40486654D01*
X156853045Y-40486652D01*
X156763347Y-40396954D01*
X156763344Y-40396952D01*
X156763342Y-40396950D01*
X156686517Y-40357805D01*
X156650301Y-40339352D01*
X156556524Y-40324500D01*
X156093482Y-40324500D01*
X156012519Y-40337323D01*
X155999696Y-40339354D01*
X155886658Y-40396950D01*
X155886657Y-40396951D01*
X155886652Y-40396954D01*
X155796954Y-40486652D01*
X155796951Y-40486657D01*
X155739352Y-40599698D01*
X155724500Y-40693475D01*
X155275498Y-40693475D01*
X155260646Y-40599696D01*
X155203050Y-40486658D01*
X155203046Y-40486654D01*
X155203045Y-40486652D01*
X155113347Y-40396954D01*
X155113343Y-40396951D01*
X155113342Y-40396950D01*
X155109697Y-40395093D01*
X155043204Y-40361212D01*
X154992408Y-40313237D01*
X154975500Y-40250728D01*
X154975500Y-39249271D01*
X154995185Y-39182232D01*
X155043203Y-39138787D01*
X155113342Y-39103050D01*
X155203050Y-39013342D01*
X155227995Y-38964384D01*
X155275967Y-38913591D01*
X155343788Y-38896796D01*
X155409923Y-38919333D01*
X155453375Y-38974048D01*
X155456863Y-38983791D01*
X155481981Y-39064396D01*
X155569927Y-39209877D01*
X155690122Y-39330072D01*
X155835604Y-39418019D01*
X155835603Y-39418019D01*
X155997894Y-39468590D01*
X155997893Y-39468590D01*
X156068408Y-39474998D01*
X156068426Y-39474999D01*
X156575000Y-39474999D01*
X156581581Y-39474999D01*
X156652102Y-39468591D01*
X156652107Y-39468590D01*
X156814396Y-39418018D01*
X156959877Y-39330072D01*
X157080072Y-39209877D01*
X157168019Y-39064395D01*
X157218590Y-38902106D01*
X157225000Y-38831572D01*
X157225000Y-38750000D01*
X156575000Y-38750000D01*
X156575000Y-39474999D01*
X156068426Y-39474999D01*
X156074999Y-39474998D01*
X156075000Y-39474998D01*
X156075000Y-38250000D01*
X156575000Y-38250000D01*
X157224999Y-38250000D01*
X157224999Y-38168417D01*
X157218591Y-38097897D01*
X157218590Y-38097892D01*
X157168018Y-37935603D01*
X157080072Y-37790122D01*
X156959877Y-37669927D01*
X156814395Y-37581980D01*
X156814396Y-37581980D01*
X156652105Y-37531409D01*
X156652106Y-37531409D01*
X156581572Y-37525000D01*
X156575000Y-37525000D01*
X156575000Y-38250000D01*
X156075000Y-38250000D01*
X156075000Y-37525000D01*
X156074999Y-37524999D01*
X156068436Y-37525000D01*
X156068417Y-37525001D01*
X155997897Y-37531408D01*
X155997892Y-37531409D01*
X155835603Y-37581981D01*
X155690122Y-37669927D01*
X155569927Y-37790122D01*
X155481981Y-37935603D01*
X155456863Y-38016209D01*
X155418125Y-38074356D01*
X155354100Y-38102330D01*
X155285115Y-38091248D01*
X155233072Y-38044629D01*
X155228002Y-38035630D01*
X155203050Y-37986658D01*
X155203048Y-37986656D01*
X155203045Y-37986652D01*
X155113347Y-37896954D01*
X155113343Y-37896951D01*
X155113342Y-37896950D01*
X155111582Y-37896053D01*
X155043204Y-37861212D01*
X155032140Y-37850763D01*
X155018297Y-37844441D01*
X155007255Y-37827259D01*
X154992408Y-37813237D01*
X154988166Y-37797556D01*
X154980523Y-37785663D01*
X154975500Y-37750728D01*
X154975500Y-37500833D01*
X154995185Y-37433794D01*
X155011819Y-37413152D01*
X156825494Y-35599477D01*
X158740460Y-33684511D01*
X158780021Y-33615989D01*
X158800500Y-33539562D01*
X158800500Y-32547446D01*
X170647000Y-32547446D01*
X170647000Y-32752553D01*
X170656099Y-32810000D01*
X170679084Y-32955120D01*
X170727258Y-33103384D01*
X170742464Y-33150182D01*
X170771667Y-33207495D01*
X170818099Y-33298623D01*
X170835577Y-33332924D01*
X170956121Y-33498840D01*
X170956125Y-33498845D01*
X171101154Y-33643874D01*
X171101159Y-33643878D01*
X171245880Y-33749023D01*
X171267079Y-33764425D01*
X171383522Y-33823755D01*
X171449817Y-33857535D01*
X171449819Y-33857535D01*
X171449822Y-33857537D01*
X171644880Y-33920916D01*
X171746166Y-33936958D01*
X171847447Y-33953000D01*
X171847452Y-33953000D01*
X172052553Y-33953000D01*
X172144626Y-33938416D01*
X172255120Y-33920916D01*
X172450178Y-33857537D01*
X172632921Y-33764425D01*
X172798847Y-33643873D01*
X172943873Y-33498847D01*
X173064425Y-33332921D01*
X173157537Y-33150178D01*
X173220916Y-32955120D01*
X173243901Y-32810000D01*
X173253000Y-32752553D01*
X173253000Y-32547446D01*
X173233275Y-32422914D01*
X173220916Y-32344880D01*
X173157537Y-32149822D01*
X173157535Y-32149819D01*
X173157535Y-32149817D01*
X173115134Y-32066602D01*
X173064425Y-31967079D01*
X172958566Y-31821376D01*
X172943878Y-31801159D01*
X172943874Y-31801154D01*
X172798845Y-31656125D01*
X172798840Y-31656121D01*
X172632924Y-31535577D01*
X172632923Y-31535576D01*
X172632921Y-31535575D01*
X172575853Y-31506497D01*
X172450182Y-31442464D01*
X172403384Y-31427258D01*
X172255120Y-31379084D01*
X172255114Y-31379083D01*
X172052553Y-31347000D01*
X172052548Y-31347000D01*
X171847452Y-31347000D01*
X171847447Y-31347000D01*
X171644885Y-31379083D01*
X171644883Y-31379083D01*
X171644880Y-31379084D01*
X171547351Y-31410773D01*
X171449817Y-31442464D01*
X171267075Y-31535577D01*
X171101159Y-31656121D01*
X171101154Y-31656125D01*
X170956125Y-31801154D01*
X170956121Y-31801159D01*
X170835577Y-31967075D01*
X170742464Y-32149817D01*
X170710773Y-32247351D01*
X170679084Y-32344880D01*
X170679083Y-32344883D01*
X170679083Y-32344885D01*
X170647000Y-32547446D01*
X158800500Y-32547446D01*
X158800500Y-28737552D01*
X170234500Y-28737552D01*
X170234500Y-28962447D01*
X170263852Y-29185393D01*
X170322057Y-29402615D01*
X170322059Y-29402622D01*
X170408110Y-29610367D01*
X170408114Y-29610377D01*
X170520552Y-29805125D01*
X170657449Y-29983533D01*
X170657455Y-29983540D01*
X170816459Y-30142544D01*
X170816466Y-30142550D01*
X170994874Y-30279447D01*
X171189622Y-30391885D01*
X171189623Y-30391885D01*
X171189626Y-30391887D01*
X171350318Y-30458447D01*
X171385192Y-30472893D01*
X171397387Y-30477944D01*
X171614604Y-30536147D01*
X171837560Y-30565500D01*
X171837567Y-30565500D01*
X172062433Y-30565500D01*
X172062440Y-30565500D01*
X172285396Y-30536147D01*
X172502613Y-30477944D01*
X172710374Y-30391887D01*
X172905126Y-30279447D01*
X173083535Y-30142549D01*
X173242549Y-29983535D01*
X173379447Y-29805126D01*
X173491887Y-29610374D01*
X173577944Y-29402613D01*
X173636147Y-29185396D01*
X173665500Y-28962440D01*
X173665500Y-28785837D01*
X186649500Y-28785837D01*
X186649500Y-29014162D01*
X186685215Y-29239660D01*
X186755770Y-29456803D01*
X186839524Y-29621178D01*
X186859421Y-29660228D01*
X186993621Y-29844937D01*
X187155063Y-30006379D01*
X187339772Y-30140579D01*
X187364148Y-30152999D01*
X187543196Y-30244229D01*
X187543198Y-30244229D01*
X187543201Y-30244231D01*
X187644315Y-30277085D01*
X187760339Y-30314784D01*
X187985838Y-30350500D01*
X187985843Y-30350500D01*
X188214162Y-30350500D01*
X188439660Y-30314784D01*
X188656799Y-30244231D01*
X188860228Y-30140579D01*
X189044937Y-30006379D01*
X189206379Y-29844937D01*
X189340579Y-29660228D01*
X189444231Y-29456799D01*
X189475575Y-29360330D01*
X189515011Y-29302658D01*
X189579370Y-29275459D01*
X189648216Y-29287373D01*
X189699692Y-29334617D01*
X189713280Y-29366556D01*
X189739319Y-29463732D01*
X189827102Y-29675659D01*
X189827106Y-29675669D01*
X189941799Y-29874324D01*
X189941805Y-29874331D01*
X189998381Y-29948064D01*
X190722421Y-29224024D01*
X190735359Y-29255258D01*
X190817437Y-29378097D01*
X190921903Y-29482563D01*
X191044742Y-29564641D01*
X191075974Y-29577578D01*
X190351934Y-30301617D01*
X190351934Y-30301618D01*
X190425666Y-30358194D01*
X190624330Y-30472893D01*
X190624340Y-30472897D01*
X190836269Y-30560681D01*
X191057862Y-30620057D01*
X191285289Y-30649998D01*
X191285306Y-30650000D01*
X191514694Y-30650000D01*
X191514710Y-30649998D01*
X191742137Y-30620057D01*
X191963730Y-30560681D01*
X192175659Y-30472897D01*
X192175668Y-30472893D01*
X192374327Y-30358197D01*
X192374334Y-30358192D01*
X192448064Y-30301617D01*
X191724025Y-29577578D01*
X191755258Y-29564641D01*
X191878097Y-29482563D01*
X191982563Y-29378097D01*
X192064641Y-29255258D01*
X192077578Y-29224025D01*
X192801617Y-29948064D01*
X192858192Y-29874334D01*
X192858197Y-29874327D01*
X192972893Y-29675668D01*
X192972897Y-29675659D01*
X193060681Y-29463730D01*
X193120057Y-29242137D01*
X193149998Y-29014710D01*
X193150000Y-29014694D01*
X193150000Y-28785305D01*
X193149998Y-28785289D01*
X193120057Y-28557862D01*
X193060681Y-28336269D01*
X192972897Y-28124340D01*
X192972893Y-28124330D01*
X192858194Y-27925666D01*
X192801618Y-27851934D01*
X192801617Y-27851934D01*
X192077577Y-28575973D01*
X192064641Y-28544742D01*
X191982563Y-28421903D01*
X191878097Y-28317437D01*
X191755258Y-28235359D01*
X191724023Y-28222421D01*
X192448064Y-27498381D01*
X192448064Y-27498380D01*
X192374331Y-27441805D01*
X192374324Y-27441799D01*
X192175669Y-27327106D01*
X192175659Y-27327102D01*
X191963730Y-27239318D01*
X191742137Y-27179942D01*
X191514710Y-27150001D01*
X191514694Y-27150000D01*
X191285306Y-27150000D01*
X191285289Y-27150001D01*
X191057862Y-27179942D01*
X190836269Y-27239318D01*
X190624340Y-27327102D01*
X190624330Y-27327106D01*
X190425673Y-27441801D01*
X190425659Y-27441810D01*
X190351934Y-27498380D01*
X191075975Y-28222421D01*
X191044742Y-28235359D01*
X190921903Y-28317437D01*
X190817437Y-28421903D01*
X190735359Y-28544742D01*
X190722421Y-28575975D01*
X189998380Y-27851934D01*
X189941810Y-27925659D01*
X189941801Y-27925673D01*
X189827106Y-28124330D01*
X189827102Y-28124340D01*
X189739316Y-28336274D01*
X189713279Y-28433443D01*
X189676914Y-28493103D01*
X189614066Y-28523631D01*
X189544691Y-28515336D01*
X189490814Y-28470850D01*
X189475574Y-28439666D01*
X189444231Y-28343201D01*
X189340579Y-28139772D01*
X189206379Y-27955063D01*
X189044937Y-27793621D01*
X188860228Y-27659421D01*
X188831534Y-27644801D01*
X188656803Y-27555770D01*
X188439660Y-27485215D01*
X188214162Y-27449500D01*
X188214157Y-27449500D01*
X187985843Y-27449500D01*
X187985838Y-27449500D01*
X187760339Y-27485215D01*
X187543196Y-27555770D01*
X187339771Y-27659421D01*
X187155061Y-27793622D01*
X186993622Y-27955061D01*
X186859421Y-28139771D01*
X186755770Y-28343196D01*
X186685215Y-28560339D01*
X186649500Y-28785837D01*
X173665500Y-28785837D01*
X173665500Y-28737560D01*
X173636147Y-28514604D01*
X173577944Y-28297387D01*
X173491887Y-28089626D01*
X173379447Y-27894874D01*
X173242549Y-27716465D01*
X173242544Y-27716459D01*
X173083540Y-27557455D01*
X173083533Y-27557449D01*
X172905125Y-27420552D01*
X172710377Y-27308114D01*
X172710367Y-27308110D01*
X172502622Y-27222059D01*
X172502615Y-27222057D01*
X172502616Y-27222057D01*
X172502613Y-27222056D01*
X172345441Y-27179942D01*
X172285393Y-27163852D01*
X172062447Y-27134500D01*
X172062440Y-27134500D01*
X171837560Y-27134500D01*
X171837552Y-27134500D01*
X171614606Y-27163852D01*
X171461917Y-27204765D01*
X171397387Y-27222056D01*
X171397385Y-27222056D01*
X171397384Y-27222057D01*
X171397377Y-27222059D01*
X171189632Y-27308110D01*
X171189622Y-27308114D01*
X170994874Y-27420552D01*
X170816466Y-27557449D01*
X170816459Y-27557455D01*
X170657455Y-27716459D01*
X170657449Y-27716466D01*
X170520552Y-27894874D01*
X170408114Y-28089622D01*
X170408110Y-28089632D01*
X170322059Y-28297377D01*
X170322057Y-28297384D01*
X170263852Y-28514606D01*
X170234500Y-28737552D01*
X158800500Y-28737552D01*
X158800500Y-24354902D01*
X184034500Y-24354902D01*
X184034500Y-24545097D01*
X184071601Y-24731618D01*
X184071603Y-24731626D01*
X184144383Y-24907332D01*
X184144388Y-24907342D01*
X184250046Y-25065470D01*
X184250049Y-25065474D01*
X184384525Y-25199950D01*
X184384529Y-25199953D01*
X184542657Y-25305611D01*
X184542661Y-25305613D01*
X184542664Y-25305615D01*
X184718374Y-25378397D01*
X184904902Y-25415499D01*
X184904906Y-25415500D01*
X184904907Y-25415500D01*
X185095094Y-25415500D01*
X185095095Y-25415499D01*
X185281626Y-25378397D01*
X185457336Y-25305615D01*
X185615471Y-25199953D01*
X185749953Y-25065471D01*
X185855615Y-24907336D01*
X185928397Y-24731626D01*
X185965500Y-24545093D01*
X185965500Y-24354907D01*
X185928397Y-24168374D01*
X185855615Y-23992664D01*
X185855613Y-23992661D01*
X185855611Y-23992657D01*
X185749953Y-23834529D01*
X185749950Y-23834525D01*
X185615474Y-23700049D01*
X185615470Y-23700046D01*
X185457342Y-23594388D01*
X185457332Y-23594383D01*
X185281626Y-23521603D01*
X185281618Y-23521601D01*
X185095097Y-23484500D01*
X185095093Y-23484500D01*
X184904907Y-23484500D01*
X184904902Y-23484500D01*
X184718381Y-23521601D01*
X184718373Y-23521603D01*
X184542667Y-23594383D01*
X184542657Y-23594388D01*
X184384529Y-23700046D01*
X184384525Y-23700049D01*
X184250049Y-23834525D01*
X184250046Y-23834529D01*
X184144388Y-23992657D01*
X184144383Y-23992667D01*
X184071603Y-24168373D01*
X184071601Y-24168381D01*
X184034500Y-24354902D01*
X158800500Y-24354902D01*
X158800500Y-22003433D01*
X158820185Y-21936394D01*
X158872989Y-21890639D01*
X158877047Y-21888872D01*
X158877583Y-21888649D01*
X158957336Y-21855615D01*
X158962019Y-21852486D01*
X188749500Y-21852486D01*
X188749500Y-22147513D01*
X188768482Y-22291690D01*
X188788007Y-22439993D01*
X188788008Y-22439995D01*
X188864361Y-22724951D01*
X188864364Y-22724961D01*
X188977254Y-22997500D01*
X188977258Y-22997510D01*
X189124761Y-23252993D01*
X189304352Y-23487040D01*
X189304358Y-23487047D01*
X189512952Y-23695641D01*
X189512959Y-23695647D01*
X189747006Y-23875238D01*
X190002489Y-24022741D01*
X190002490Y-24022741D01*
X190002493Y-24022743D01*
X190275048Y-24135639D01*
X190560007Y-24211993D01*
X190852494Y-24250500D01*
X190852501Y-24250500D01*
X191147499Y-24250500D01*
X191147506Y-24250500D01*
X191439993Y-24211993D01*
X191724952Y-24135639D01*
X191997507Y-24022743D01*
X192252994Y-23875238D01*
X192487042Y-23695646D01*
X192695646Y-23487042D01*
X192875238Y-23252994D01*
X193022743Y-22997507D01*
X193135639Y-22724952D01*
X193211993Y-22439993D01*
X193250500Y-22147506D01*
X193250500Y-21852494D01*
X193211993Y-21560007D01*
X193135639Y-21275048D01*
X193022743Y-21002493D01*
X192875238Y-20747006D01*
X192718443Y-20542667D01*
X192695647Y-20512959D01*
X192695641Y-20512952D01*
X192487047Y-20304358D01*
X192487040Y-20304352D01*
X192252993Y-20124761D01*
X191997510Y-19977258D01*
X191997500Y-19977254D01*
X191724961Y-19864364D01*
X191724954Y-19864362D01*
X191724952Y-19864361D01*
X191439993Y-19788007D01*
X191391113Y-19781571D01*
X191147513Y-19749500D01*
X191147506Y-19749500D01*
X190852494Y-19749500D01*
X190852486Y-19749500D01*
X190574085Y-19786153D01*
X190560007Y-19788007D01*
X190275048Y-19864361D01*
X190275038Y-19864364D01*
X190002499Y-19977254D01*
X190002489Y-19977258D01*
X189747006Y-20124761D01*
X189512959Y-20304352D01*
X189512952Y-20304358D01*
X189304358Y-20512952D01*
X189304352Y-20512959D01*
X189124761Y-20747006D01*
X188977258Y-21002489D01*
X188977254Y-21002499D01*
X188864364Y-21275038D01*
X188864361Y-21275048D01*
X188815518Y-21457336D01*
X188788008Y-21560004D01*
X188788006Y-21560015D01*
X188749500Y-21852486D01*
X158962019Y-21852486D01*
X159115471Y-21749953D01*
X159249953Y-21615471D01*
X159355615Y-21457336D01*
X159428397Y-21281626D01*
X159465500Y-21095093D01*
X159465500Y-20904907D01*
X159428397Y-20718374D01*
X159355615Y-20542664D01*
X159355613Y-20542661D01*
X159355611Y-20542657D01*
X159249953Y-20384529D01*
X159249950Y-20384525D01*
X159115474Y-20250049D01*
X159115470Y-20250046D01*
X158957342Y-20144388D01*
X158957332Y-20144383D01*
X158781626Y-20071603D01*
X158781618Y-20071601D01*
X158595097Y-20034500D01*
X158595093Y-20034500D01*
X158404907Y-20034500D01*
X158404902Y-20034500D01*
X158218381Y-20071601D01*
X158218373Y-20071603D01*
X158042667Y-20144383D01*
X158042657Y-20144388D01*
X157884529Y-20250046D01*
X157884525Y-20250049D01*
X157750049Y-20384525D01*
X157750046Y-20384529D01*
X157644388Y-20542657D01*
X157644383Y-20542667D01*
X157571603Y-20718373D01*
X157571601Y-20718381D01*
X157534500Y-20904902D01*
X157534500Y-21095097D01*
X157571601Y-21281618D01*
X157571603Y-21281626D01*
X157644383Y-21457332D01*
X157644388Y-21457342D01*
X157750046Y-21615470D01*
X157750049Y-21615474D01*
X157884525Y-21749950D01*
X157884529Y-21749953D01*
X158042657Y-21855611D01*
X158042666Y-21855616D01*
X158122953Y-21888872D01*
X158177356Y-21932713D01*
X158199421Y-21999007D01*
X158199500Y-22003433D01*
X158199500Y-33324167D01*
X158179815Y-33391206D01*
X158163181Y-33411848D01*
X155962181Y-35612848D01*
X155900858Y-35646333D01*
X155831166Y-35641349D01*
X155775233Y-35599477D01*
X155750816Y-35534013D01*
X155750500Y-35525167D01*
X155750500Y-33447172D01*
X155770185Y-33380133D01*
X155805607Y-33344071D01*
X155873624Y-33298624D01*
X155934515Y-33207495D01*
X155950500Y-33127133D01*
X155950499Y-31992868D01*
X155934515Y-31912505D01*
X155906041Y-31869891D01*
X155873624Y-31821375D01*
X155818995Y-31784874D01*
X155782495Y-31760485D01*
X155782493Y-31760484D01*
X155782490Y-31760483D01*
X155702135Y-31744500D01*
X155197870Y-31744500D01*
X155117504Y-31760485D01*
X155026375Y-31821375D01*
X154965485Y-31912505D01*
X154965483Y-31912509D01*
X154949500Y-31992862D01*
X154949500Y-33127129D01*
X154965484Y-33207490D01*
X154965485Y-33207495D01*
X155026376Y-33298624D01*
X155094391Y-33344071D01*
X155139196Y-33397681D01*
X155149500Y-33447172D01*
X155149500Y-36374167D01*
X155129815Y-36441206D01*
X155113181Y-36461848D01*
X154434541Y-37140487D01*
X154434535Y-37140495D01*
X154394982Y-37209004D01*
X154394979Y-37209009D01*
X154374500Y-37285439D01*
X154374500Y-37750728D01*
X154354815Y-37817767D01*
X154306796Y-37861212D01*
X154236659Y-37896949D01*
X154236652Y-37896954D01*
X154146954Y-37986652D01*
X154146951Y-37986657D01*
X154089352Y-38099698D01*
X154074500Y-38193475D01*
X151300500Y-38193475D01*
X151300500Y-33137697D01*
X152750000Y-33137697D01*
X152764800Y-33250104D01*
X152764801Y-33250108D01*
X152822736Y-33389978D01*
X152914905Y-33510094D01*
X153035021Y-33602263D01*
X153174891Y-33660198D01*
X153174895Y-33660199D01*
X153287302Y-33674999D01*
X153287317Y-33675000D01*
X153300000Y-33675000D01*
X153800000Y-33675000D01*
X153812683Y-33675000D01*
X153812697Y-33674999D01*
X153925104Y-33660199D01*
X153925108Y-33660198D01*
X154064978Y-33602263D01*
X154185094Y-33510094D01*
X154277263Y-33389978D01*
X154335198Y-33250108D01*
X154335199Y-33250104D01*
X154349999Y-33137697D01*
X154350000Y-33137683D01*
X154350000Y-32810000D01*
X153800000Y-32810000D01*
X153800000Y-33675000D01*
X153300000Y-33675000D01*
X153300000Y-32810000D01*
X152750000Y-32810000D01*
X152750000Y-33137697D01*
X151300500Y-33137697D01*
X151300500Y-31982302D01*
X152750000Y-31982302D01*
X152750000Y-32310000D01*
X153300000Y-32310000D01*
X153800000Y-32310000D01*
X154350000Y-32310000D01*
X154350000Y-31982316D01*
X154349999Y-31982302D01*
X154335199Y-31869895D01*
X154335198Y-31869891D01*
X154277263Y-31730021D01*
X154185094Y-31609905D01*
X154064978Y-31517736D01*
X153925108Y-31459801D01*
X153925104Y-31459800D01*
X153812697Y-31445000D01*
X153800000Y-31445000D01*
X153800000Y-32310000D01*
X153300000Y-32310000D01*
X153300000Y-31445000D01*
X153287302Y-31445000D01*
X153174895Y-31459800D01*
X153174891Y-31459801D01*
X153035021Y-31517736D01*
X152914905Y-31609905D01*
X152822736Y-31730021D01*
X152764801Y-31869891D01*
X152764800Y-31869895D01*
X152750000Y-31982302D01*
X151300500Y-31982302D01*
X151300500Y-24460440D01*
X151300500Y-24460438D01*
X151280022Y-24384012D01*
X151240460Y-24315489D01*
X150536819Y-23611848D01*
X150522115Y-23584920D01*
X150505523Y-23559102D01*
X150504631Y-23552901D01*
X150503334Y-23550525D01*
X150500500Y-23524167D01*
X150500500Y-23434110D01*
X150500500Y-23434108D01*
X152499500Y-23434108D01*
X152499500Y-23565892D01*
X152511814Y-23611848D01*
X152533608Y-23693187D01*
X152537569Y-23700047D01*
X152599500Y-23807314D01*
X152692686Y-23900500D01*
X152806814Y-23966392D01*
X152934108Y-24000500D01*
X152934110Y-24000500D01*
X153024167Y-24000500D01*
X153091206Y-24020185D01*
X153111848Y-24036819D01*
X154163181Y-25088152D01*
X154196666Y-25149475D01*
X154199500Y-25175833D01*
X154199500Y-29552827D01*
X154179815Y-29619866D01*
X154144391Y-29655929D01*
X154076375Y-29701375D01*
X154015485Y-29792505D01*
X154015483Y-29792509D01*
X153999500Y-29872862D01*
X153999500Y-31007129D01*
X154015485Y-31087495D01*
X154076375Y-31178624D01*
X154112876Y-31203013D01*
X154167505Y-31239515D01*
X154167508Y-31239515D01*
X154167509Y-31239516D01*
X154194533Y-31244891D01*
X154247867Y-31255500D01*
X154752132Y-31255499D01*
X154832495Y-31239515D01*
X154923624Y-31178624D01*
X154984515Y-31087495D01*
X155000500Y-31007133D01*
X155000499Y-29872868D01*
X154984515Y-29792505D01*
X154964309Y-29762266D01*
X154923624Y-29701375D01*
X154855609Y-29655929D01*
X154810804Y-29602317D01*
X154800500Y-29552827D01*
X154800500Y-24960439D01*
X154800500Y-24960438D01*
X154780021Y-24884011D01*
X154780017Y-24884004D01*
X154740464Y-24815495D01*
X154740458Y-24815487D01*
X153536819Y-23611848D01*
X153503334Y-23550525D01*
X153500500Y-23524167D01*
X153500500Y-23434110D01*
X153500500Y-23434108D01*
X153466392Y-23306814D01*
X153400500Y-23192686D01*
X153307314Y-23099500D01*
X153248206Y-23065374D01*
X153193187Y-23033608D01*
X153129539Y-23016554D01*
X153065892Y-22999500D01*
X152934108Y-22999500D01*
X152806812Y-23033608D01*
X152692686Y-23099500D01*
X152692683Y-23099502D01*
X152599502Y-23192683D01*
X152599500Y-23192686D01*
X152533608Y-23306812D01*
X152521904Y-23350494D01*
X152499500Y-23434108D01*
X150500500Y-23434108D01*
X150466392Y-23306814D01*
X150400500Y-23192686D01*
X150307314Y-23099500D01*
X150248206Y-23065374D01*
X150193187Y-23033608D01*
X150129539Y-23016554D01*
X150065892Y-22999500D01*
X149934108Y-22999500D01*
X149806812Y-23033608D01*
X149692686Y-23099500D01*
X149692683Y-23099502D01*
X149599502Y-23192683D01*
X149599500Y-23192686D01*
X149533608Y-23306812D01*
X149521904Y-23350494D01*
X149499500Y-23434108D01*
X108736264Y-23434108D01*
X108875238Y-23252994D01*
X109022743Y-22997507D01*
X109135639Y-22724952D01*
X109211993Y-22439993D01*
X109250500Y-22147506D01*
X109250500Y-21852494D01*
X109211993Y-21560007D01*
X109135639Y-21275048D01*
X109022743Y-21002493D01*
X108875238Y-20747006D01*
X108718443Y-20542667D01*
X108695647Y-20512959D01*
X108695641Y-20512952D01*
X108487047Y-20304358D01*
X108487040Y-20304352D01*
X108252993Y-20124761D01*
X107997510Y-19977258D01*
X107997500Y-19977254D01*
X107724961Y-19864364D01*
X107724954Y-19864362D01*
X107724952Y-19864361D01*
X107439993Y-19788007D01*
X107391113Y-19781571D01*
X107147513Y-19749500D01*
X107147506Y-19749500D01*
X106852494Y-19749500D01*
X106852486Y-19749500D01*
X106574085Y-19786153D01*
X106560007Y-19788007D01*
X106275048Y-19864361D01*
X106275038Y-19864364D01*
X106002499Y-19977254D01*
X106002489Y-19977258D01*
X105747006Y-20124761D01*
X105512959Y-20304352D01*
X105512952Y-20304358D01*
X105304358Y-20512952D01*
X105304352Y-20512959D01*
X105124761Y-20747006D01*
X104977258Y-21002489D01*
X104977254Y-21002499D01*
X104864364Y-21275038D01*
X104864361Y-21275048D01*
X104815518Y-21457336D01*
X104788008Y-21560004D01*
X104788006Y-21560015D01*
X104749500Y-21852486D01*
X102500500Y-21852486D01*
X102500500Y-17624500D01*
X102520185Y-17557461D01*
X102572989Y-17511706D01*
X102624500Y-17500500D01*
X195375500Y-17500500D01*
X195442539Y-17520185D01*
G37*
%TD.AperFunction*%
%TD*%
M02*
