%TF.GenerationSoftware,KiCad,Pcbnew,9.0.7-9.0.7~ubuntu24.04.1*%
%TF.CreationDate,2026-03-17T21:49:25-04:00*%
%TF.ProjectId,VECTAR-PSU-Rev1a,56454354-4152-42d5-9053-552d52657631,rev?*%
%TF.SameCoordinates,Original*%
%TF.FileFunction,Paste,Top*%
%TF.FilePolarity,Positive*%
%FSLAX46Y46*%
G04 Gerber Fmt 4.6, Leading zero omitted, Abs format (unit mm)*
G04 Created by KiCad (PCBNEW 9.0.7-9.0.7~ubuntu24.04.1) date 2026-03-17 21:49:25*
%MOMM*%
%LPD*%
G01*
G04 APERTURE LIST*
G04 Aperture macros list*
%AMRoundRect*
0 Rectangle with rounded corners*
0 $1 Rounding radius*
0 $2 $3 $4 $5 $6 $7 $8 $9 X,Y pos of 4 corners*
0 Add a 4 corners polygon primitive as box body*
4,1,4,$2,$3,$4,$5,$6,$7,$8,$9,$2,$3,0*
0 Add four circle primitives for the rounded corners*
1,1,$1+$1,$2,$3*
1,1,$1+$1,$4,$5*
1,1,$1+$1,$6,$7*
1,1,$1+$1,$8,$9*
0 Add four rect primitives between the rounded corners*
20,1,$1+$1,$2,$3,$4,$5,0*
20,1,$1+$1,$4,$5,$6,$7,0*
20,1,$1+$1,$6,$7,$8,$9,0*
20,1,$1+$1,$8,$9,$2,$3,0*%
G04 Aperture macros list end*
%ADD10RoundRect,0.200000X0.200000X0.275000X-0.200000X0.275000X-0.200000X-0.275000X0.200000X-0.275000X0*%
%ADD11RoundRect,0.225000X-0.250000X0.225000X-0.250000X-0.225000X0.250000X-0.225000X0.250000X0.225000X0*%
%ADD12RoundRect,0.200000X0.275000X-0.200000X0.275000X0.200000X-0.275000X0.200000X-0.275000X-0.200000X0*%
%ADD13RoundRect,0.225000X0.250000X-0.225000X0.250000X0.225000X-0.250000X0.225000X-0.250000X-0.225000X0*%
%ADD14R,4.749800X13.995400*%
%ADD15RoundRect,0.240000X1.510000X0.560000X-1.510000X0.560000X-1.510000X-0.560000X1.510000X-0.560000X0*%
%ADD16R,3.400000X6.150000*%
%ADD17RoundRect,0.225000X-0.225000X-0.250000X0.225000X-0.250000X0.225000X0.250000X-0.225000X0.250000X0*%
%ADD18RoundRect,0.225000X0.225000X0.250000X-0.225000X0.250000X-0.225000X-0.250000X0.225000X-0.250000X0*%
%ADD19R,0.299999X0.670001*%
%ADD20RoundRect,0.250000X-0.250000X-0.475000X0.250000X-0.475000X0.250000X0.475000X-0.250000X0.475000X0*%
%ADD21R,0.800000X0.800000*%
%ADD22R,1.100000X1.000000*%
%ADD23R,0.457200X0.812800*%
%ADD24R,3.210000X1.620000*%
%ADD25R,1.500000X1.100000*%
%ADD26R,1.050000X0.449999*%
G04 APERTURE END LIST*
D10*
%TO.C,R2*%
X130800000Y-62000000D03*
X129150000Y-62000000D03*
%TD*%
D11*
%TO.C,C16*%
X170500000Y-73350000D03*
X170500000Y-74900000D03*
%TD*%
D12*
%TO.C,JP2*%
X155050000Y-112300000D03*
X155050000Y-110650000D03*
%TD*%
D13*
%TO.C,C2*%
X123550000Y-27175000D03*
X123550000Y-25625000D03*
%TD*%
%TO.C,C3*%
X126060000Y-27175000D03*
X126060000Y-25625000D03*
%TD*%
D14*
%TO.C,L1*%
X168022800Y-59400000D03*
X158777200Y-59400000D03*
%TD*%
D10*
%TO.C,R8*%
X126675000Y-62100000D03*
X125025000Y-62100000D03*
%TD*%
D15*
%TO.C,C1*%
X135800000Y-21500000D03*
X130200000Y-21500000D03*
%TD*%
D11*
%TO.C,C12*%
X184500000Y-69675000D03*
X184500000Y-71225000D03*
%TD*%
D12*
%TO.C,JP1*%
X152600000Y-112125000D03*
X152600000Y-110475000D03*
%TD*%
D16*
%TO.C,F1*%
X129150000Y-86500000D03*
X135850000Y-86500000D03*
%TD*%
D13*
%TO.C,C4*%
X128570000Y-27175000D03*
X128570000Y-25625000D03*
%TD*%
D17*
%TO.C,C7*%
X185500000Y-36000000D03*
X187050000Y-36000000D03*
%TD*%
%TO.C,C6*%
X185400000Y-43470000D03*
X186950000Y-43470000D03*
%TD*%
%TO.C,C19*%
X156000000Y-81210000D03*
X157550000Y-81210000D03*
%TD*%
D18*
%TO.C,C10*%
X127875000Y-59300000D03*
X126325000Y-59300000D03*
%TD*%
D11*
%TO.C,C13*%
X181900000Y-69675000D03*
X181900000Y-71225000D03*
%TD*%
D12*
%TO.C,JP4*%
X157000000Y-94825000D03*
X157000000Y-93175000D03*
%TD*%
D17*
%TO.C,C11*%
X126800000Y-68900000D03*
X128350000Y-68900000D03*
%TD*%
D12*
%TO.C,R10*%
X159500000Y-94825000D03*
X159500000Y-93175000D03*
%TD*%
D19*
%TO.C,U2*%
X172900000Y-69919998D03*
X172400001Y-69919998D03*
X171900002Y-69919998D03*
X171900002Y-71400000D03*
X172400001Y-71400000D03*
X172900000Y-71400000D03*
%TD*%
D20*
%TO.C,C5*%
X185100000Y-33500000D03*
X187000000Y-33500000D03*
%TD*%
D21*
%TO.C,D5*%
X162000000Y-94750000D03*
X162000000Y-93250000D03*
%TD*%
D11*
%TO.C,C15*%
X175100000Y-69725000D03*
X175100000Y-71275000D03*
%TD*%
D17*
%TO.C,C18*%
X156000000Y-78700000D03*
X157550000Y-78700000D03*
%TD*%
D22*
%TO.C,D4*%
X190175000Y-69000000D03*
X188475000Y-69000000D03*
%TD*%
D11*
%TO.C,C14*%
X179450000Y-69700000D03*
X179450000Y-71250000D03*
%TD*%
D23*
%TO.C,D2*%
X151000000Y-21000000D03*
X149857000Y-21000000D03*
%TD*%
D10*
%TO.C,JP3*%
X190175000Y-63000000D03*
X188525000Y-63000000D03*
%TD*%
%TO.C,R9*%
X190000000Y-66000000D03*
X188350000Y-66000000D03*
%TD*%
D24*
%TO.C,C17*%
X159200000Y-72000000D03*
X164500000Y-72000000D03*
%TD*%
D17*
%TO.C,C9*%
X185500000Y-41020000D03*
X187050000Y-41020000D03*
%TD*%
D25*
%TO.C,S1*%
X152050000Y-103730000D03*
X160950000Y-103730000D03*
X152050000Y-106270000D03*
X160950000Y-106270000D03*
%TD*%
D17*
%TO.C,C8*%
X185500000Y-38510000D03*
X187050000Y-38510000D03*
%TD*%
D12*
%TO.C,R7*%
X176950000Y-76400000D03*
X176950000Y-74750000D03*
%TD*%
D10*
%TO.C,R11*%
X128125000Y-73800000D03*
X126475000Y-73800000D03*
%TD*%
D12*
%TO.C,R12*%
X176950000Y-73050000D03*
X176950000Y-71400000D03*
%TD*%
D17*
%TO.C,C20*%
X156000000Y-83720000D03*
X157550000Y-83720000D03*
%TD*%
D26*
%TO.C,U1*%
X125800000Y-55900000D03*
X125800000Y-56549998D03*
X125800000Y-57200000D03*
X125800000Y-57849998D03*
X128400000Y-57849998D03*
X128400000Y-57200000D03*
X128400000Y-56549998D03*
X128400000Y-55900000D03*
%TD*%
M02*
