M48
; DRILL file {KiCad 9.0.7-9.0.7~ubuntu24.04.1} date 2026-03-17T21:52:00-0400
; FORMAT={-:-/ absolute / metric / decimal}
; #@! TF.CreationDate,2026-03-17T21:52:00-04:00
; #@! TF.GenerationSoftware,Kicad,Pcbnew,9.0.7-9.0.7~ubuntu24.04.1
; #@! TF.FileFunction,Plated,1,2,PTH
FMAT,2
METRIC
; #@! TA.AperFunction,Plated,PTH,ViaDrill
T1C0.200
; #@! TA.AperFunction,Plated,PTH,ViaDrill
T2C0.300
; #@! TA.AperFunction,Plated,PTH,ComponentDrill
T3C0.600
; #@! TA.AperFunction,Plated,PTH,ComponentDrill
T4C1.020
; #@! TA.AperFunction,Plated,PTH,ComponentDrill
T5C1.400
; #@! TA.AperFunction,Plated,PTH,ComponentDrill
T6C1.470
; #@! TA.AperFunction,Plated,PTH,ComponentDrill
T7C1.500
; #@! TA.AperFunction,Plated,PTH,ComponentDrill
T8C2.020
; #@! TA.AperFunction,Plated,PTH,ComponentDrill
T9C2.700
; #@! TA.AperFunction,Plated,PTH,ComponentDrill
T10C3.900
%
G90
G05
T1
X170.9Y-70.1
X170.9Y-70.6
X170.9Y-71.1
X171.4Y-70.6
X173.8Y-70.8
X173.8Y-71.3
T2
X125.8Y-54.3
X126.4Y-71.8
X129.1Y-60.3
X131.1Y-57.1
X132.3Y-57.5
X148.5Y-106.0
X150.0Y-23.5
X153.0Y-23.5
X153.0Y-36.0
X154.0Y-53.0
X155.0Y-101.0
X162.5Y-43.0
X169.0Y-75.0
X172.0Y-66.0
X172.4Y-74.732
T4
X107.0Y-74.0
X109.5Y-74.0
X119.0Y-68.0
X119.0Y-78.0
X128.5Y-65.5
X129.0Y-96.0
X146.0Y-57.2
X146.2Y-103.1
X152.5Y-88.95
X153.0Y-95.0
X155.0Y-88.95
X157.5Y-88.95
X158.5Y-21.0
X160.0Y-88.95
X162.5Y-88.95
X165.0Y-88.95
X168.4Y-77.65
X177.0Y-40.3
X184.8Y-75.7
X185.0Y-24.45
T5
X135.52Y-52.96
X135.56Y-60.9
X138.06Y-52.96
X138.1Y-60.9
X140.6Y-52.96
X140.64Y-60.9
T6
X144.05Y-28.85
X144.05Y-32.65
X144.05Y-36.45
X144.05Y-44.05
X164.35Y-45.45
X168.15Y-45.45
X171.95Y-32.65
X171.95Y-36.45
X171.95Y-40.25
T7
X188.1Y-28.9
X191.4Y-28.9
T8
X171.95Y-28.85
X171.95Y-44.05
T9
X116.55Y-34.5
X116.55Y-41.7
X116.55Y-52.8
X116.55Y-60.0
T10
X120.4Y-86.55
X120.4Y-97.45
T3
X111.1Y-31.35G85X110.0Y-31.35
G05
X111.1Y-44.85G85X110.0Y-44.85
G05
X111.1Y-49.65G85X110.0Y-49.65
G05
X111.1Y-63.15G85X110.0Y-63.15
G05
X111.5Y-82.55G85X110.5Y-82.55
G05
X111.5Y-101.45G85X110.5Y-101.45
G05
M30
