%TF.GenerationSoftware,KiCad,Pcbnew,9.0.7-9.0.7~ubuntu24.04.1*%
%TF.CreationDate,2026-03-17T21:42:03-04:00*%
%TF.ProjectId,VECTAR-PSU-Rev1a,56454354-4152-42d5-9053-552d52657631,rev?*%
%TF.SameCoordinates,Original*%
%TF.FileFunction,Soldermask,Bot*%
%TF.FilePolarity,Negative*%
%FSLAX46Y46*%
G04 Gerber Fmt 4.6, Leading zero omitted, Abs format (unit mm)*
G04 Created by KiCad (PCBNEW 9.0.7-9.0.7~ubuntu24.04.1) date 2026-03-17 21:42:03*
%MOMM*%
%LPD*%
G01*
G04 APERTURE LIST*
G04 Aperture macros list*
%AMRoundRect*
0 Rectangle with rounded corners*
0 $1 Rounding radius*
0 $2 $3 $4 $5 $6 $7 $8 $9 X,Y pos of 4 corners*
0 Add a 4 corners polygon primitive as box body*
4,1,4,$2,$3,$4,$5,$6,$7,$8,$9,$2,$3,0*
0 Add four circle primitives for the rounded corners*
1,1,$1+$1,$2,$3*
1,1,$1+$1,$4,$5*
1,1,$1+$1,$6,$7*
1,1,$1+$1,$8,$9*
0 Add four rect primitives between the rounded corners*
20,1,$1+$1,$2,$3,$4,$5,0*
20,1,$1+$1,$4,$5,$6,$7,0*
20,1,$1+$1,$6,$7,$8,$9,0*
20,1,$1+$1,$8,$9,$2,$3,0*%
G04 Aperture macros list end*
%ADD10C,1.734000*%
%ADD11RoundRect,0.102000X-1.858000X1.858000X-1.858000X-1.858000X1.858000X-1.858000X1.858000X1.858000X0*%
%ADD12C,3.920000*%
%ADD13O,2.604000X1.404000*%
%ADD14R,1.750000X1.750000*%
%ADD15C,1.750000*%
%ADD16RoundRect,0.102000X-1.102500X-1.102500X1.102500X-1.102500X1.102500X1.102500X-1.102500X1.102500X0*%
%ADD17C,2.409000*%
%ADD18C,3.234000*%
%ADD19RoundRect,0.102000X-2.458000X2.458000X-2.458000X-2.458000X2.458000X-2.458000X2.458000X2.458000X0*%
%ADD20C,5.120000*%
%ADD21O,2.804000X1.504000*%
%ADD22C,1.500000*%
%ADD23C,2.500000*%
%ADD24RoundRect,0.200000X0.200000X0.275000X-0.200000X0.275000X-0.200000X-0.275000X0.200000X-0.275000X0*%
%ADD25RoundRect,0.100500X0.301500X-0.616500X0.301500X0.616500X-0.301500X0.616500X-0.301500X-0.616500X0*%
%ADD26RoundRect,0.250000X-0.450000X0.262500X-0.450000X-0.262500X0.450000X-0.262500X0.450000X0.262500X0*%
%ADD27RoundRect,0.200000X0.275000X-0.200000X0.275000X0.200000X-0.275000X0.200000X-0.275000X-0.200000X0*%
%ADD28RoundRect,0.200000X-0.275000X0.200000X-0.275000X-0.200000X0.275000X-0.200000X0.275000X0.200000X0*%
G04 APERTURE END LIST*
D10*
%TO.C,TP4*%
X146200000Y-103100000D03*
%TD*%
%TO.C,TP2*%
X185000000Y-25000000D03*
%TD*%
%TO.C,TP9*%
X146000000Y-57200000D03*
%TD*%
D11*
%TO.C,J2*%
X116550000Y-52800000D03*
D12*
X116550000Y-60000000D03*
D13*
X110550000Y-49650000D03*
X110550000Y-63150000D03*
%TD*%
D10*
%TO.C,TP5*%
X168400000Y-77650000D03*
%TD*%
D11*
%TO.C,J1*%
X116550000Y-34500000D03*
D12*
X116550000Y-41700000D03*
D13*
X110550000Y-31350000D03*
X110550000Y-44850000D03*
%TD*%
D10*
%TO.C,TP3*%
X153000000Y-95000000D03*
%TD*%
D14*
%TO.C,Q2*%
X140640000Y-60900000D03*
D15*
X138100000Y-60900000D03*
X135560000Y-60900000D03*
%TD*%
D16*
%TO.C,PS78*%
X144050000Y-28850000D03*
D17*
X144050000Y-36450000D03*
X144050000Y-44050000D03*
D18*
X171950000Y-44050000D03*
D17*
X171950000Y-40250000D03*
X171950000Y-36450000D03*
X171950000Y-32650000D03*
D18*
X171950000Y-28850000D03*
D17*
X164350000Y-45450000D03*
X168150000Y-45450000D03*
X144050000Y-32650000D03*
%TD*%
D10*
%TO.C,TP11*%
X128500000Y-65500000D03*
%TD*%
D19*
%TO.C,J6*%
X120400000Y-86550000D03*
D20*
X120400000Y-97450000D03*
D21*
X111000000Y-82550000D03*
X111000000Y-101450000D03*
%TD*%
D22*
%TO.C,SW2*%
X107000000Y-74000000D03*
X109500000Y-74000000D03*
%TD*%
D10*
%TO.C,TP12*%
X119000000Y-78000000D03*
%TD*%
%TO.C,TP10*%
X119000000Y-68000000D03*
%TD*%
D22*
%TO.C,J5*%
X153000000Y-88950000D03*
X155500000Y-88950000D03*
X158000000Y-88950000D03*
X160500000Y-88950000D03*
X163000000Y-88950000D03*
X165500000Y-88950000D03*
%TD*%
D10*
%TO.C,TP6*%
X177000000Y-40300000D03*
%TD*%
D23*
%TO.C,J3*%
X188100000Y-28900000D03*
X191400000Y-28900000D03*
%TD*%
D10*
%TO.C,TP8*%
X184800000Y-75700000D03*
%TD*%
%TO.C,TP1*%
X129000000Y-96000000D03*
%TD*%
D14*
%TO.C,Q3*%
X140600000Y-52960000D03*
D15*
X138060000Y-52960000D03*
X135520000Y-52960000D03*
%TD*%
D10*
%TO.C,TP7*%
X158500000Y-21000000D03*
%TD*%
D24*
%TO.C,R5*%
X156325000Y-38500000D03*
X154675000Y-38500000D03*
%TD*%
D25*
%TO.C,Q1*%
X155450000Y-32560000D03*
X153550000Y-32560000D03*
X154500000Y-30440000D03*
%TD*%
D26*
%TO.C,R1*%
X168050000Y-39137500D03*
X168050000Y-40962500D03*
%TD*%
D24*
%TO.C,R4*%
X156325000Y-41000000D03*
X154675000Y-41000000D03*
%TD*%
D27*
%TO.C,R3*%
X156500000Y-45500000D03*
X156500000Y-43850000D03*
%TD*%
D28*
%TO.C,R6*%
X151000000Y-43850000D03*
X151000000Y-45500000D03*
%TD*%
M02*
